M48
; DRILL file {KiCad 7.0.9} date Sun Jun 23 02:13:21 2024
; FORMAT={-:-/ absolute / inch / decimal}
; #@! TF.CreationDate,2024-06-23T02:13:21+02:00
; #@! TF.GenerationSoftware,Kicad,Pcbnew,7.0.9
; #@! TF.FileFunction,Plated,1,2,PTH
FMAT,2
INCH
; #@! TA.AperFunction,Plated,PTH,ViaDrill
T1C0.0079
; #@! TA.AperFunction,Plated,PTH,ComponentDrill
T2C0.0394
%
G90
G05
T1
X5.563Y-4.0157
X5.5689Y-3.5827
X5.7126Y-3.6417
X5.7126Y-3.7579
X5.7343Y-3.8504
X5.7362Y-3.878
X5.7835Y-3.8425
X5.7933Y-3.9724
X5.8031Y-4.0315
X5.8543Y-3.7717
X5.8799Y-3.8976
X5.903Y-3.9139
X5.937Y-3.5669
X5.937Y-3.7717
X5.9626Y-3.9843
X6.0689Y-3.5689
X6.074Y-3.9843
X6.0965Y-3.7736
X6.1831Y-4.0059
X6.2028Y-3.7579
X6.2303Y-3.8327
X6.2717Y-3.9843
X6.2854Y-3.8996
X6.3091Y-3.6969
X6.315Y-3.7756
X6.3209Y-3.565
X6.3287Y-3.9508
X6.3386Y-3.8524
X6.3898Y-3.9449
X6.4185Y-3.6496
X6.4568Y-3.933
X6.4846Y-4.0213
X6.5098Y-3.6386
X6.5551Y-3.7736
X6.5563Y-3.9953
X6.6079Y-4.0043
X6.6366Y-4.0043
X6.6551Y-3.774
X6.6673Y-4.0075
X6.6862Y-3.6004
X6.6969Y-3.9961
X6.7362Y-3.8524
X6.7618Y-3.9984
X6.8114Y-3.8217
X6.8654Y-3.9945
X6.8689Y-3.7528
X6.8925Y-3.9043
X6.9071Y-3.6945
X6.9102Y-3.785
X6.9488Y-3.9606
X6.9508Y-3.6417
X6.9882Y-3.878
X6.9902Y-4.0335
X7.0315Y-3.7953
X7.0453Y-4.0335
X7.0472Y-3.5768
X7.0728Y-3.7224
X7.0945Y-3.8524
X7.0965Y-4.002
X7.2106Y-3.5768
X7.2185Y-4.0177
T2
X5.8571Y-3.8425
X5.9571Y-3.8425
X6.0571Y-3.8425
X6.1571Y-3.8425
T0
M30
