%TF.GenerationSoftware,KiCad,Pcbnew,7.0.9*%
%TF.CreationDate,2024-06-23T02:13:20+02:00*%
%TF.ProjectId,board,626f6172-642e-46b6-9963-61645f706362,rev?*%
%TF.SameCoordinates,Original*%
%TF.FileFunction,Legend,Bot*%
%TF.FilePolarity,Positive*%
%FSLAX46Y46*%
G04 Gerber Fmt 4.6, Leading zero omitted, Abs format (unit mm)*
G04 Created by KiCad (PCBNEW 7.0.9) date 2024-06-23 02:13:20*
%MOMM*%
%LPD*%
G01*
G04 APERTURE LIST*
G04 Aperture macros list*
%AMFreePoly0*
4,1,5,0.500000,-1.800000,-0.500000,-1.800000,-0.500000,1.800000,0.500000,1.900000,0.500000,-1.800000,0.500000,-1.800000,$1*%
%AMFreePoly1*
4,1,5,0.500000,1.800000,0.500000,-1.800000,-0.500000,-1.800000,-0.500000,1.900000,0.500000,1.800000,0.500000,1.800000,$1*%
%AMFreePoly2*
4,1,5,0.500000,1.900000,0.500000,-1.900000,-0.500000,-1.900000,-0.500000,2.000000,0.500000,1.900000,0.500000,1.900000,$1*%
%AMFreePoly3*
4,1,5,0.500000,-1.500000,-0.500000,-1.500000,-0.500000,2.300000,0.500000,2.400000,0.500000,-1.500000,0.500000,-1.500000,$1*%
%AMFreePoly4*
4,1,5,0.500000,1.700000,0.500000,-1.700000,-0.500000,-1.700000,-0.500000,1.800000,0.500000,1.700000,0.500000,1.700000,$1*%
G04 Aperture macros list end*
%ADD10C,0.010000*%
%ADD11R,1.700000X1.700000*%
%ADD12O,1.700000X1.700000*%
%ADD13FreePoly0,90.000000*%
%ADD14R,3.500000X1.000000*%
%ADD15FreePoly1,90.000000*%
%ADD16FreePoly2,90.000000*%
%ADD17FreePoly0,270.000000*%
%ADD18FreePoly3,270.000000*%
%ADD19R,4.000000X1.000000*%
%ADD20FreePoly1,270.000000*%
%ADD21FreePoly4,270.000000*%
G04 APERTURE END LIST*
%TO.C,LOGO1*%
D10*
X169362275Y-94118931D02*
X169446095Y-94563555D01*
X170064667Y-94818551D01*
X170435707Y-94566246D01*
X170509144Y-94516506D01*
X170606499Y-94451218D01*
X170690787Y-94395454D01*
X170757631Y-94352078D01*
X170802654Y-94323953D01*
X170821478Y-94313942D01*
X170833039Y-94321061D01*
X170867596Y-94350894D01*
X170919894Y-94399852D01*
X170985500Y-94463440D01*
X171059983Y-94537163D01*
X171138913Y-94616525D01*
X171217856Y-94697031D01*
X171292384Y-94774185D01*
X171358063Y-94843493D01*
X171410463Y-94900457D01*
X171445153Y-94940584D01*
X171457701Y-94959377D01*
X171454782Y-94967451D01*
X171434571Y-95003469D01*
X171397663Y-95062744D01*
X171347050Y-95140630D01*
X171285725Y-95232481D01*
X171216679Y-95333650D01*
X171178787Y-95388826D01*
X171113606Y-95484884D01*
X171057723Y-95568717D01*
X171014117Y-95635777D01*
X170985769Y-95681519D01*
X170975657Y-95701396D01*
X170975823Y-95702497D01*
X170984743Y-95727694D01*
X171005206Y-95779147D01*
X171034360Y-95850135D01*
X171069353Y-95933935D01*
X171107332Y-96023828D01*
X171145445Y-96113091D01*
X171180839Y-96195003D01*
X171210662Y-96262843D01*
X171232061Y-96309890D01*
X171242184Y-96329422D01*
X171248174Y-96331155D01*
X171284566Y-96338969D01*
X171349427Y-96351915D01*
X171437565Y-96368979D01*
X171543787Y-96389151D01*
X171662902Y-96411418D01*
X171725683Y-96423223D01*
X171840912Y-96445748D01*
X171941662Y-96466550D01*
X172022426Y-96484435D01*
X172077698Y-96498208D01*
X172101971Y-96506674D01*
X172106331Y-96515066D01*
X172113563Y-96556072D01*
X172119246Y-96624368D01*
X172123382Y-96713529D01*
X172125977Y-96817128D01*
X172127036Y-96928740D01*
X172126561Y-97041938D01*
X172124559Y-97150296D01*
X172121033Y-97247389D01*
X172115987Y-97326790D01*
X172109427Y-97382072D01*
X172101356Y-97406810D01*
X172096458Y-97409600D01*
X172059930Y-97421569D01*
X171996565Y-97437405D01*
X171913686Y-97455374D01*
X171818618Y-97473741D01*
X171786542Y-97479591D01*
X171638393Y-97506798D01*
X171521961Y-97528663D01*
X171433209Y-97546093D01*
X171368103Y-97559996D01*
X171322606Y-97571277D01*
X171292682Y-97580843D01*
X171274294Y-97589601D01*
X171263407Y-97598457D01*
X171262142Y-97599943D01*
X171244338Y-97630931D01*
X171217994Y-97687634D01*
X171185661Y-97763399D01*
X171149893Y-97851574D01*
X171113244Y-97945507D01*
X171078266Y-98038547D01*
X171047513Y-98124041D01*
X171023538Y-98195336D01*
X171008895Y-98245782D01*
X171006136Y-98268726D01*
X171007981Y-98271703D01*
X171027075Y-98300493D01*
X171062984Y-98353595D01*
X171112378Y-98426117D01*
X171171927Y-98513167D01*
X171238303Y-98609854D01*
X171256520Y-98636456D01*
X171320577Y-98731875D01*
X171375937Y-98817212D01*
X171419439Y-98887405D01*
X171447924Y-98937394D01*
X171458232Y-98962116D01*
X171456011Y-98968616D01*
X171432858Y-99000644D01*
X171387177Y-99052945D01*
X171322241Y-99121999D01*
X171241319Y-99204286D01*
X171147685Y-99296286D01*
X171094165Y-99347781D01*
X171009542Y-99427983D01*
X170935475Y-99496678D01*
X170875941Y-99550252D01*
X170834917Y-99585085D01*
X170816381Y-99597563D01*
X170803646Y-99592938D01*
X170764436Y-99571057D01*
X170707495Y-99535273D01*
X170640250Y-99490117D01*
X170592438Y-99457165D01*
X170496985Y-99391727D01*
X170395125Y-99322228D01*
X170302088Y-99259075D01*
X170119832Y-99135800D01*
X169966841Y-99218520D01*
X169930817Y-99237613D01*
X169865303Y-99270272D01*
X169814640Y-99292819D01*
X169787564Y-99301226D01*
X169778703Y-99290430D01*
X169756699Y-99249323D01*
X169724199Y-99181549D01*
X169683010Y-99091409D01*
X169634942Y-98983205D01*
X169581802Y-98861237D01*
X169525399Y-98729808D01*
X169467542Y-98593218D01*
X169410038Y-98455767D01*
X169354697Y-98321758D01*
X169303326Y-98195491D01*
X169257735Y-98081268D01*
X169219732Y-97983390D01*
X169191124Y-97906157D01*
X169173721Y-97853871D01*
X169169331Y-97830833D01*
X169169628Y-97830160D01*
X169190077Y-97808863D01*
X169232850Y-97775508D01*
X169289117Y-97737011D01*
X169306877Y-97725256D01*
X169442014Y-97613735D01*
X169553856Y-97480906D01*
X169639755Y-97332298D01*
X169697062Y-97173440D01*
X169723131Y-97009860D01*
X169715313Y-96847088D01*
X169683644Y-96702315D01*
X169626782Y-96556124D01*
X169543888Y-96425703D01*
X169430131Y-96301813D01*
X169385433Y-96262235D01*
X169240935Y-96164723D01*
X169084838Y-96099050D01*
X168921667Y-96064630D01*
X168755943Y-96060874D01*
X168592192Y-96087194D01*
X168434936Y-96143003D01*
X168288698Y-96227714D01*
X168158004Y-96340737D01*
X168047374Y-96481487D01*
X168026105Y-96516342D01*
X167953810Y-96675655D01*
X167915415Y-96841552D01*
X167909914Y-97009737D01*
X167936301Y-97175913D01*
X167993570Y-97335784D01*
X168080717Y-97485053D01*
X168196736Y-97619423D01*
X168340622Y-97734599D01*
X168345294Y-97737702D01*
X168400964Y-97776933D01*
X168442689Y-97810286D01*
X168461746Y-97830833D01*
X168459342Y-97846941D01*
X168444391Y-97893844D01*
X168417881Y-97966539D01*
X168381620Y-98060725D01*
X168337416Y-98172098D01*
X168287076Y-98296358D01*
X168232407Y-98429202D01*
X168175218Y-98566327D01*
X168117316Y-98703432D01*
X168060510Y-98836215D01*
X168006606Y-98960374D01*
X167957412Y-99071606D01*
X167914737Y-99165609D01*
X167880387Y-99238082D01*
X167856171Y-99284722D01*
X167843897Y-99301226D01*
X167833689Y-99298991D01*
X167793586Y-99282926D01*
X167734318Y-99254759D01*
X167664619Y-99218520D01*
X167511629Y-99135800D01*
X167329373Y-99259075D01*
X167275527Y-99295579D01*
X167175374Y-99363784D01*
X167075525Y-99432098D01*
X166991211Y-99490117D01*
X166944679Y-99521736D01*
X166884200Y-99561020D01*
X166839357Y-99587912D01*
X166817455Y-99597883D01*
X166808045Y-99593650D01*
X166774031Y-99567721D01*
X166721595Y-99522070D01*
X166655301Y-99461186D01*
X166579713Y-99389561D01*
X166499396Y-99311683D01*
X166418913Y-99232045D01*
X166342829Y-99155135D01*
X166275707Y-99085445D01*
X166222112Y-99027464D01*
X166186608Y-98985684D01*
X166173759Y-98964593D01*
X166174500Y-98960581D01*
X166189793Y-98927920D01*
X166222462Y-98871412D01*
X166269350Y-98796163D01*
X166327301Y-98707275D01*
X166393157Y-98609854D01*
X166411627Y-98582982D01*
X166476482Y-98488423D01*
X166533609Y-98404827D01*
X166579678Y-98337084D01*
X166611359Y-98290086D01*
X166625324Y-98268726D01*
X166625668Y-98267811D01*
X166621546Y-98241678D01*
X166605807Y-98188740D01*
X166581004Y-98115647D01*
X166549689Y-98029052D01*
X166514417Y-97935608D01*
X166477740Y-97841965D01*
X166442212Y-97754777D01*
X166410386Y-97680695D01*
X166384816Y-97626371D01*
X166368053Y-97598457D01*
X166366374Y-97596724D01*
X166354372Y-97587956D01*
X166334103Y-97579115D01*
X166301529Y-97569292D01*
X166252616Y-97557583D01*
X166183327Y-97543080D01*
X166089625Y-97524876D01*
X165967476Y-97502066D01*
X165812842Y-97473741D01*
X165780770Y-97467780D01*
X165688893Y-97449352D01*
X165611607Y-97431892D01*
X165556236Y-97417133D01*
X165530105Y-97406810D01*
X165525733Y-97398197D01*
X165518445Y-97356826D01*
X165512669Y-97288241D01*
X165508410Y-97198868D01*
X165505673Y-97095135D01*
X165504462Y-96983465D01*
X165504782Y-96870287D01*
X165506636Y-96762026D01*
X165510030Y-96665108D01*
X165514967Y-96585959D01*
X165521452Y-96531006D01*
X165529489Y-96506674D01*
X165537696Y-96503079D01*
X165578519Y-96491748D01*
X165647524Y-96475722D01*
X165739203Y-96456195D01*
X165848050Y-96434362D01*
X165968558Y-96411418D01*
X166034357Y-96399159D01*
X166147135Y-96377901D01*
X166244207Y-96359287D01*
X166320382Y-96344328D01*
X166370469Y-96334036D01*
X166389276Y-96329422D01*
X166389983Y-96328471D01*
X166401961Y-96304310D01*
X166424794Y-96253694D01*
X166455630Y-96183338D01*
X166491613Y-96099958D01*
X166529891Y-96010270D01*
X166567609Y-95920989D01*
X166601913Y-95838832D01*
X166629949Y-95770513D01*
X166648864Y-95722748D01*
X166655803Y-95702254D01*
X166652742Y-95695043D01*
X166632372Y-95660728D01*
X166595422Y-95602970D01*
X166544860Y-95526299D01*
X166483657Y-95435248D01*
X166414781Y-95334350D01*
X166376994Y-95279093D01*
X166311782Y-95182215D01*
X166255871Y-95097193D01*
X166212241Y-95028662D01*
X166183877Y-94981260D01*
X166173759Y-94959623D01*
X166180790Y-94947887D01*
X166210197Y-94912818D01*
X166258441Y-94859745D01*
X166321093Y-94793164D01*
X166393725Y-94717574D01*
X166471908Y-94637472D01*
X166551214Y-94557354D01*
X166627213Y-94481718D01*
X166695478Y-94415062D01*
X166751580Y-94361882D01*
X166791090Y-94326676D01*
X166809579Y-94313942D01*
X166819843Y-94318893D01*
X166857530Y-94341857D01*
X166918348Y-94380938D01*
X166997913Y-94433272D01*
X167091843Y-94495996D01*
X167195754Y-94566246D01*
X167566794Y-94818551D01*
X167876080Y-94691053D01*
X168185365Y-94563555D01*
X168269186Y-94118931D01*
X168353006Y-93674307D01*
X169278454Y-93674307D01*
X169362275Y-94118931D01*
G36*
X169362275Y-94118931D02*
G01*
X169446095Y-94563555D01*
X170064667Y-94818551D01*
X170435707Y-94566246D01*
X170509144Y-94516506D01*
X170606499Y-94451218D01*
X170690787Y-94395454D01*
X170757631Y-94352078D01*
X170802654Y-94323953D01*
X170821478Y-94313942D01*
X170833039Y-94321061D01*
X170867596Y-94350894D01*
X170919894Y-94399852D01*
X170985500Y-94463440D01*
X171059983Y-94537163D01*
X171138913Y-94616525D01*
X171217856Y-94697031D01*
X171292384Y-94774185D01*
X171358063Y-94843493D01*
X171410463Y-94900457D01*
X171445153Y-94940584D01*
X171457701Y-94959377D01*
X171454782Y-94967451D01*
X171434571Y-95003469D01*
X171397663Y-95062744D01*
X171347050Y-95140630D01*
X171285725Y-95232481D01*
X171216679Y-95333650D01*
X171178787Y-95388826D01*
X171113606Y-95484884D01*
X171057723Y-95568717D01*
X171014117Y-95635777D01*
X170985769Y-95681519D01*
X170975657Y-95701396D01*
X170975823Y-95702497D01*
X170984743Y-95727694D01*
X171005206Y-95779147D01*
X171034360Y-95850135D01*
X171069353Y-95933935D01*
X171107332Y-96023828D01*
X171145445Y-96113091D01*
X171180839Y-96195003D01*
X171210662Y-96262843D01*
X171232061Y-96309890D01*
X171242184Y-96329422D01*
X171248174Y-96331155D01*
X171284566Y-96338969D01*
X171349427Y-96351915D01*
X171437565Y-96368979D01*
X171543787Y-96389151D01*
X171662902Y-96411418D01*
X171725683Y-96423223D01*
X171840912Y-96445748D01*
X171941662Y-96466550D01*
X172022426Y-96484435D01*
X172077698Y-96498208D01*
X172101971Y-96506674D01*
X172106331Y-96515066D01*
X172113563Y-96556072D01*
X172119246Y-96624368D01*
X172123382Y-96713529D01*
X172125977Y-96817128D01*
X172127036Y-96928740D01*
X172126561Y-97041938D01*
X172124559Y-97150296D01*
X172121033Y-97247389D01*
X172115987Y-97326790D01*
X172109427Y-97382072D01*
X172101356Y-97406810D01*
X172096458Y-97409600D01*
X172059930Y-97421569D01*
X171996565Y-97437405D01*
X171913686Y-97455374D01*
X171818618Y-97473741D01*
X171786542Y-97479591D01*
X171638393Y-97506798D01*
X171521961Y-97528663D01*
X171433209Y-97546093D01*
X171368103Y-97559996D01*
X171322606Y-97571277D01*
X171292682Y-97580843D01*
X171274294Y-97589601D01*
X171263407Y-97598457D01*
X171262142Y-97599943D01*
X171244338Y-97630931D01*
X171217994Y-97687634D01*
X171185661Y-97763399D01*
X171149893Y-97851574D01*
X171113244Y-97945507D01*
X171078266Y-98038547D01*
X171047513Y-98124041D01*
X171023538Y-98195336D01*
X171008895Y-98245782D01*
X171006136Y-98268726D01*
X171007981Y-98271703D01*
X171027075Y-98300493D01*
X171062984Y-98353595D01*
X171112378Y-98426117D01*
X171171927Y-98513167D01*
X171238303Y-98609854D01*
X171256520Y-98636456D01*
X171320577Y-98731875D01*
X171375937Y-98817212D01*
X171419439Y-98887405D01*
X171447924Y-98937394D01*
X171458232Y-98962116D01*
X171456011Y-98968616D01*
X171432858Y-99000644D01*
X171387177Y-99052945D01*
X171322241Y-99121999D01*
X171241319Y-99204286D01*
X171147685Y-99296286D01*
X171094165Y-99347781D01*
X171009542Y-99427983D01*
X170935475Y-99496678D01*
X170875941Y-99550252D01*
X170834917Y-99585085D01*
X170816381Y-99597563D01*
X170803646Y-99592938D01*
X170764436Y-99571057D01*
X170707495Y-99535273D01*
X170640250Y-99490117D01*
X170592438Y-99457165D01*
X170496985Y-99391727D01*
X170395125Y-99322228D01*
X170302088Y-99259075D01*
X170119832Y-99135800D01*
X169966841Y-99218520D01*
X169930817Y-99237613D01*
X169865303Y-99270272D01*
X169814640Y-99292819D01*
X169787564Y-99301226D01*
X169778703Y-99290430D01*
X169756699Y-99249323D01*
X169724199Y-99181549D01*
X169683010Y-99091409D01*
X169634942Y-98983205D01*
X169581802Y-98861237D01*
X169525399Y-98729808D01*
X169467542Y-98593218D01*
X169410038Y-98455767D01*
X169354697Y-98321758D01*
X169303326Y-98195491D01*
X169257735Y-98081268D01*
X169219732Y-97983390D01*
X169191124Y-97906157D01*
X169173721Y-97853871D01*
X169169331Y-97830833D01*
X169169628Y-97830160D01*
X169190077Y-97808863D01*
X169232850Y-97775508D01*
X169289117Y-97737011D01*
X169306877Y-97725256D01*
X169442014Y-97613735D01*
X169553856Y-97480906D01*
X169639755Y-97332298D01*
X169697062Y-97173440D01*
X169723131Y-97009860D01*
X169715313Y-96847088D01*
X169683644Y-96702315D01*
X169626782Y-96556124D01*
X169543888Y-96425703D01*
X169430131Y-96301813D01*
X169385433Y-96262235D01*
X169240935Y-96164723D01*
X169084838Y-96099050D01*
X168921667Y-96064630D01*
X168755943Y-96060874D01*
X168592192Y-96087194D01*
X168434936Y-96143003D01*
X168288698Y-96227714D01*
X168158004Y-96340737D01*
X168047374Y-96481487D01*
X168026105Y-96516342D01*
X167953810Y-96675655D01*
X167915415Y-96841552D01*
X167909914Y-97009737D01*
X167936301Y-97175913D01*
X167993570Y-97335784D01*
X168080717Y-97485053D01*
X168196736Y-97619423D01*
X168340622Y-97734599D01*
X168345294Y-97737702D01*
X168400964Y-97776933D01*
X168442689Y-97810286D01*
X168461746Y-97830833D01*
X168459342Y-97846941D01*
X168444391Y-97893844D01*
X168417881Y-97966539D01*
X168381620Y-98060725D01*
X168337416Y-98172098D01*
X168287076Y-98296358D01*
X168232407Y-98429202D01*
X168175218Y-98566327D01*
X168117316Y-98703432D01*
X168060510Y-98836215D01*
X168006606Y-98960374D01*
X167957412Y-99071606D01*
X167914737Y-99165609D01*
X167880387Y-99238082D01*
X167856171Y-99284722D01*
X167843897Y-99301226D01*
X167833689Y-99298991D01*
X167793586Y-99282926D01*
X167734318Y-99254759D01*
X167664619Y-99218520D01*
X167511629Y-99135800D01*
X167329373Y-99259075D01*
X167275527Y-99295579D01*
X167175374Y-99363784D01*
X167075525Y-99432098D01*
X166991211Y-99490117D01*
X166944679Y-99521736D01*
X166884200Y-99561020D01*
X166839357Y-99587912D01*
X166817455Y-99597883D01*
X166808045Y-99593650D01*
X166774031Y-99567721D01*
X166721595Y-99522070D01*
X166655301Y-99461186D01*
X166579713Y-99389561D01*
X166499396Y-99311683D01*
X166418913Y-99232045D01*
X166342829Y-99155135D01*
X166275707Y-99085445D01*
X166222112Y-99027464D01*
X166186608Y-98985684D01*
X166173759Y-98964593D01*
X166174500Y-98960581D01*
X166189793Y-98927920D01*
X166222462Y-98871412D01*
X166269350Y-98796163D01*
X166327301Y-98707275D01*
X166393157Y-98609854D01*
X166411627Y-98582982D01*
X166476482Y-98488423D01*
X166533609Y-98404827D01*
X166579678Y-98337084D01*
X166611359Y-98290086D01*
X166625324Y-98268726D01*
X166625668Y-98267811D01*
X166621546Y-98241678D01*
X166605807Y-98188740D01*
X166581004Y-98115647D01*
X166549689Y-98029052D01*
X166514417Y-97935608D01*
X166477740Y-97841965D01*
X166442212Y-97754777D01*
X166410386Y-97680695D01*
X166384816Y-97626371D01*
X166368053Y-97598457D01*
X166366374Y-97596724D01*
X166354372Y-97587956D01*
X166334103Y-97579115D01*
X166301529Y-97569292D01*
X166252616Y-97557583D01*
X166183327Y-97543080D01*
X166089625Y-97524876D01*
X165967476Y-97502066D01*
X165812842Y-97473741D01*
X165780770Y-97467780D01*
X165688893Y-97449352D01*
X165611607Y-97431892D01*
X165556236Y-97417133D01*
X165530105Y-97406810D01*
X165525733Y-97398197D01*
X165518445Y-97356826D01*
X165512669Y-97288241D01*
X165508410Y-97198868D01*
X165505673Y-97095135D01*
X165504462Y-96983465D01*
X165504782Y-96870287D01*
X165506636Y-96762026D01*
X165510030Y-96665108D01*
X165514967Y-96585959D01*
X165521452Y-96531006D01*
X165529489Y-96506674D01*
X165537696Y-96503079D01*
X165578519Y-96491748D01*
X165647524Y-96475722D01*
X165739203Y-96456195D01*
X165848050Y-96434362D01*
X165968558Y-96411418D01*
X166034357Y-96399159D01*
X166147135Y-96377901D01*
X166244207Y-96359287D01*
X166320382Y-96344328D01*
X166370469Y-96334036D01*
X166389276Y-96329422D01*
X166389983Y-96328471D01*
X166401961Y-96304310D01*
X166424794Y-96253694D01*
X166455630Y-96183338D01*
X166491613Y-96099958D01*
X166529891Y-96010270D01*
X166567609Y-95920989D01*
X166601913Y-95838832D01*
X166629949Y-95770513D01*
X166648864Y-95722748D01*
X166655803Y-95702254D01*
X166652742Y-95695043D01*
X166632372Y-95660728D01*
X166595422Y-95602970D01*
X166544860Y-95526299D01*
X166483657Y-95435248D01*
X166414781Y-95334350D01*
X166376994Y-95279093D01*
X166311782Y-95182215D01*
X166255871Y-95097193D01*
X166212241Y-95028662D01*
X166183877Y-94981260D01*
X166173759Y-94959623D01*
X166180790Y-94947887D01*
X166210197Y-94912818D01*
X166258441Y-94859745D01*
X166321093Y-94793164D01*
X166393725Y-94717574D01*
X166471908Y-94637472D01*
X166551214Y-94557354D01*
X166627213Y-94481718D01*
X166695478Y-94415062D01*
X166751580Y-94361882D01*
X166791090Y-94326676D01*
X166809579Y-94313942D01*
X166819843Y-94318893D01*
X166857530Y-94341857D01*
X166918348Y-94380938D01*
X166997913Y-94433272D01*
X167091843Y-94495996D01*
X167195754Y-94566246D01*
X167566794Y-94818551D01*
X167876080Y-94691053D01*
X168185365Y-94563555D01*
X168269186Y-94118931D01*
X168353006Y-93674307D01*
X169278454Y-93674307D01*
X169362275Y-94118931D01*
G37*
%TD*%
%LPC*%
D11*
%TO.C,J3*%
X148770000Y-97600000D03*
D12*
X151310000Y-97600000D03*
X153850000Y-97600000D03*
X156390000Y-97600000D03*
%TD*%
D13*
%TO.C,J1*%
X182600000Y-92500000D03*
D14*
X182650000Y-94500000D03*
X182650000Y-96500000D03*
D15*
X182600000Y-98500000D03*
D16*
X182500000Y-100500000D03*
%TD*%
D17*
%TO.C,J2*%
X142400000Y-92500000D03*
D18*
X142100000Y-94500000D03*
D19*
X142600000Y-96500000D03*
D20*
X142400000Y-98500000D03*
D21*
X142300000Y-100500000D03*
%TD*%
%LPD*%
M02*
