%TF.GenerationSoftware,KiCad,Pcbnew,7.0.9*%
%TF.CreationDate,2024-06-23T02:13:20+02:00*%
%TF.ProjectId,board,626f6172-642e-46b6-9963-61645f706362,rev?*%
%TF.SameCoordinates,Original*%
%TF.FileFunction,Legend,Top*%
%TF.FilePolarity,Positive*%
%FSLAX46Y46*%
G04 Gerber Fmt 4.6, Leading zero omitted, Abs format (unit mm)*
G04 Created by KiCad (PCBNEW 7.0.9) date 2024-06-23 02:13:20*
%MOMM*%
%LPD*%
G01*
G04 APERTURE LIST*
G04 Aperture macros list*
%AMRoundRect*
0 Rectangle with rounded corners*
0 $1 Rounding radius*
0 $2 $3 $4 $5 $6 $7 $8 $9 X,Y pos of 4 corners*
0 Add a 4 corners polygon primitive as box body*
4,1,4,$2,$3,$4,$5,$6,$7,$8,$9,$2,$3,0*
0 Add four circle primitives for the rounded corners*
1,1,$1+$1,$2,$3*
1,1,$1+$1,$4,$5*
1,1,$1+$1,$6,$7*
1,1,$1+$1,$8,$9*
0 Add four rect primitives between the rounded corners*
20,1,$1+$1,$2,$3,$4,$5,0*
20,1,$1+$1,$4,$5,$6,$7,0*
20,1,$1+$1,$6,$7,$8,$9,0*
20,1,$1+$1,$8,$9,$2,$3,0*%
G04 Aperture macros list end*
%ADD10C,0.150000*%
%ADD11C,0.120000*%
%ADD12C,0.153000*%
%ADD13RoundRect,0.125000X0.125000X-0.825000X0.125000X0.825000X-0.125000X0.825000X-0.125000X-0.825000X0*%
%ADD14RoundRect,0.140000X-0.170000X0.140000X-0.170000X-0.140000X0.170000X-0.140000X0.170000X0.140000X0*%
%ADD15RoundRect,0.140000X0.170000X-0.140000X0.170000X0.140000X-0.170000X0.140000X-0.170000X-0.140000X0*%
%ADD16R,1.700000X1.700000*%
%ADD17O,1.700000X1.700000*%
%ADD18R,3.500000X1.000000*%
%ADD19RoundRect,0.140000X-0.140000X-0.170000X0.140000X-0.170000X0.140000X0.170000X-0.140000X0.170000X0*%
%ADD20R,1.400000X1.200000*%
G04 APERTURE END LIST*
D10*
X141479636Y-102719819D02*
X141384398Y-102672200D01*
X141384398Y-102672200D02*
X141336779Y-102624580D01*
X141336779Y-102624580D02*
X141289160Y-102529342D01*
X141289160Y-102529342D02*
X141289160Y-102243628D01*
X141289160Y-102243628D02*
X141336779Y-102148390D01*
X141336779Y-102148390D02*
X141384398Y-102100771D01*
X141384398Y-102100771D02*
X141479636Y-102053152D01*
X141479636Y-102053152D02*
X141622493Y-102053152D01*
X141622493Y-102053152D02*
X141717731Y-102100771D01*
X141717731Y-102100771D02*
X141765350Y-102148390D01*
X141765350Y-102148390D02*
X141812969Y-102243628D01*
X141812969Y-102243628D02*
X141812969Y-102529342D01*
X141812969Y-102529342D02*
X141765350Y-102624580D01*
X141765350Y-102624580D02*
X141717731Y-102672200D01*
X141717731Y-102672200D02*
X141622493Y-102719819D01*
X141622493Y-102719819D02*
X141479636Y-102719819D01*
X142193922Y-102672200D02*
X142289160Y-102719819D01*
X142289160Y-102719819D02*
X142479636Y-102719819D01*
X142479636Y-102719819D02*
X142574874Y-102672200D01*
X142574874Y-102672200D02*
X142622493Y-102576961D01*
X142622493Y-102576961D02*
X142622493Y-102529342D01*
X142622493Y-102529342D02*
X142574874Y-102434104D01*
X142574874Y-102434104D02*
X142479636Y-102386485D01*
X142479636Y-102386485D02*
X142336779Y-102386485D01*
X142336779Y-102386485D02*
X142241541Y-102338866D01*
X142241541Y-102338866D02*
X142193922Y-102243628D01*
X142193922Y-102243628D02*
X142193922Y-102196009D01*
X142193922Y-102196009D02*
X142241541Y-102100771D01*
X142241541Y-102100771D02*
X142336779Y-102053152D01*
X142336779Y-102053152D02*
X142479636Y-102053152D01*
X142479636Y-102053152D02*
X142574874Y-102100771D01*
X142908208Y-102053152D02*
X143289160Y-102053152D01*
X143051065Y-102719819D02*
X143051065Y-101862676D01*
X143051065Y-101862676D02*
X143098684Y-101767438D01*
X143098684Y-101767438D02*
X143193922Y-101719819D01*
X143193922Y-101719819D02*
X143289160Y-101719819D01*
X143622494Y-102624580D02*
X143670113Y-102672200D01*
X143670113Y-102672200D02*
X143622494Y-102719819D01*
X143622494Y-102719819D02*
X143574875Y-102672200D01*
X143574875Y-102672200D02*
X143622494Y-102624580D01*
X143622494Y-102624580D02*
X143622494Y-102719819D01*
X144289160Y-101719819D02*
X144384398Y-101719819D01*
X144384398Y-101719819D02*
X144479636Y-101767438D01*
X144479636Y-101767438D02*
X144527255Y-101815057D01*
X144527255Y-101815057D02*
X144574874Y-101910295D01*
X144574874Y-101910295D02*
X144622493Y-102100771D01*
X144622493Y-102100771D02*
X144622493Y-102338866D01*
X144622493Y-102338866D02*
X144574874Y-102529342D01*
X144574874Y-102529342D02*
X144527255Y-102624580D01*
X144527255Y-102624580D02*
X144479636Y-102672200D01*
X144479636Y-102672200D02*
X144384398Y-102719819D01*
X144384398Y-102719819D02*
X144289160Y-102719819D01*
X144289160Y-102719819D02*
X144193922Y-102672200D01*
X144193922Y-102672200D02*
X144146303Y-102624580D01*
X144146303Y-102624580D02*
X144098684Y-102529342D01*
X144098684Y-102529342D02*
X144051065Y-102338866D01*
X144051065Y-102338866D02*
X144051065Y-102100771D01*
X144051065Y-102100771D02*
X144098684Y-101910295D01*
X144098684Y-101910295D02*
X144146303Y-101815057D01*
X144146303Y-101815057D02*
X144193922Y-101767438D01*
X144193922Y-101767438D02*
X144289160Y-101719819D01*
X145241541Y-101719819D02*
X145336779Y-101719819D01*
X145336779Y-101719819D02*
X145432017Y-101767438D01*
X145432017Y-101767438D02*
X145479636Y-101815057D01*
X145479636Y-101815057D02*
X145527255Y-101910295D01*
X145527255Y-101910295D02*
X145574874Y-102100771D01*
X145574874Y-102100771D02*
X145574874Y-102338866D01*
X145574874Y-102338866D02*
X145527255Y-102529342D01*
X145527255Y-102529342D02*
X145479636Y-102624580D01*
X145479636Y-102624580D02*
X145432017Y-102672200D01*
X145432017Y-102672200D02*
X145336779Y-102719819D01*
X145336779Y-102719819D02*
X145241541Y-102719819D01*
X145241541Y-102719819D02*
X145146303Y-102672200D01*
X145146303Y-102672200D02*
X145098684Y-102624580D01*
X145098684Y-102624580D02*
X145051065Y-102529342D01*
X145051065Y-102529342D02*
X145003446Y-102338866D01*
X145003446Y-102338866D02*
X145003446Y-102100771D01*
X145003446Y-102100771D02*
X145051065Y-101910295D01*
X145051065Y-101910295D02*
X145098684Y-101815057D01*
X145098684Y-101815057D02*
X145146303Y-101767438D01*
X145146303Y-101767438D02*
X145241541Y-101719819D01*
X146146303Y-102148390D02*
X146051065Y-102100771D01*
X146051065Y-102100771D02*
X146003446Y-102053152D01*
X146003446Y-102053152D02*
X145955827Y-101957914D01*
X145955827Y-101957914D02*
X145955827Y-101910295D01*
X145955827Y-101910295D02*
X146003446Y-101815057D01*
X146003446Y-101815057D02*
X146051065Y-101767438D01*
X146051065Y-101767438D02*
X146146303Y-101719819D01*
X146146303Y-101719819D02*
X146336779Y-101719819D01*
X146336779Y-101719819D02*
X146432017Y-101767438D01*
X146432017Y-101767438D02*
X146479636Y-101815057D01*
X146479636Y-101815057D02*
X146527255Y-101910295D01*
X146527255Y-101910295D02*
X146527255Y-101957914D01*
X146527255Y-101957914D02*
X146479636Y-102053152D01*
X146479636Y-102053152D02*
X146432017Y-102100771D01*
X146432017Y-102100771D02*
X146336779Y-102148390D01*
X146336779Y-102148390D02*
X146146303Y-102148390D01*
X146146303Y-102148390D02*
X146051065Y-102196009D01*
X146051065Y-102196009D02*
X146003446Y-102243628D01*
X146003446Y-102243628D02*
X145955827Y-102338866D01*
X145955827Y-102338866D02*
X145955827Y-102529342D01*
X145955827Y-102529342D02*
X146003446Y-102624580D01*
X146003446Y-102624580D02*
X146051065Y-102672200D01*
X146051065Y-102672200D02*
X146146303Y-102719819D01*
X146146303Y-102719819D02*
X146336779Y-102719819D01*
X146336779Y-102719819D02*
X146432017Y-102672200D01*
X146432017Y-102672200D02*
X146479636Y-102624580D01*
X146479636Y-102624580D02*
X146527255Y-102529342D01*
X146527255Y-102529342D02*
X146527255Y-102338866D01*
X146527255Y-102338866D02*
X146479636Y-102243628D01*
X146479636Y-102243628D02*
X146432017Y-102196009D01*
X146432017Y-102196009D02*
X146336779Y-102148390D01*
X178629636Y-91219819D02*
X178534398Y-91172200D01*
X178534398Y-91172200D02*
X178486779Y-91124580D01*
X178486779Y-91124580D02*
X178439160Y-91029342D01*
X178439160Y-91029342D02*
X178439160Y-90743628D01*
X178439160Y-90743628D02*
X178486779Y-90648390D01*
X178486779Y-90648390D02*
X178534398Y-90600771D01*
X178534398Y-90600771D02*
X178629636Y-90553152D01*
X178629636Y-90553152D02*
X178772493Y-90553152D01*
X178772493Y-90553152D02*
X178867731Y-90600771D01*
X178867731Y-90600771D02*
X178915350Y-90648390D01*
X178915350Y-90648390D02*
X178962969Y-90743628D01*
X178962969Y-90743628D02*
X178962969Y-91029342D01*
X178962969Y-91029342D02*
X178915350Y-91124580D01*
X178915350Y-91124580D02*
X178867731Y-91172200D01*
X178867731Y-91172200D02*
X178772493Y-91219819D01*
X178772493Y-91219819D02*
X178629636Y-91219819D01*
X179343922Y-91172200D02*
X179439160Y-91219819D01*
X179439160Y-91219819D02*
X179629636Y-91219819D01*
X179629636Y-91219819D02*
X179724874Y-91172200D01*
X179724874Y-91172200D02*
X179772493Y-91076961D01*
X179772493Y-91076961D02*
X179772493Y-91029342D01*
X179772493Y-91029342D02*
X179724874Y-90934104D01*
X179724874Y-90934104D02*
X179629636Y-90886485D01*
X179629636Y-90886485D02*
X179486779Y-90886485D01*
X179486779Y-90886485D02*
X179391541Y-90838866D01*
X179391541Y-90838866D02*
X179343922Y-90743628D01*
X179343922Y-90743628D02*
X179343922Y-90696009D01*
X179343922Y-90696009D02*
X179391541Y-90600771D01*
X179391541Y-90600771D02*
X179486779Y-90553152D01*
X179486779Y-90553152D02*
X179629636Y-90553152D01*
X179629636Y-90553152D02*
X179724874Y-90600771D01*
X180058208Y-90553152D02*
X180439160Y-90553152D01*
X180201065Y-91219819D02*
X180201065Y-90362676D01*
X180201065Y-90362676D02*
X180248684Y-90267438D01*
X180248684Y-90267438D02*
X180343922Y-90219819D01*
X180343922Y-90219819D02*
X180439160Y-90219819D01*
X180772494Y-91124580D02*
X180820113Y-91172200D01*
X180820113Y-91172200D02*
X180772494Y-91219819D01*
X180772494Y-91219819D02*
X180724875Y-91172200D01*
X180724875Y-91172200D02*
X180772494Y-91124580D01*
X180772494Y-91124580D02*
X180772494Y-91219819D01*
X181439160Y-90219819D02*
X181534398Y-90219819D01*
X181534398Y-90219819D02*
X181629636Y-90267438D01*
X181629636Y-90267438D02*
X181677255Y-90315057D01*
X181677255Y-90315057D02*
X181724874Y-90410295D01*
X181724874Y-90410295D02*
X181772493Y-90600771D01*
X181772493Y-90600771D02*
X181772493Y-90838866D01*
X181772493Y-90838866D02*
X181724874Y-91029342D01*
X181724874Y-91029342D02*
X181677255Y-91124580D01*
X181677255Y-91124580D02*
X181629636Y-91172200D01*
X181629636Y-91172200D02*
X181534398Y-91219819D01*
X181534398Y-91219819D02*
X181439160Y-91219819D01*
X181439160Y-91219819D02*
X181343922Y-91172200D01*
X181343922Y-91172200D02*
X181296303Y-91124580D01*
X181296303Y-91124580D02*
X181248684Y-91029342D01*
X181248684Y-91029342D02*
X181201065Y-90838866D01*
X181201065Y-90838866D02*
X181201065Y-90600771D01*
X181201065Y-90600771D02*
X181248684Y-90410295D01*
X181248684Y-90410295D02*
X181296303Y-90315057D01*
X181296303Y-90315057D02*
X181343922Y-90267438D01*
X181343922Y-90267438D02*
X181439160Y-90219819D01*
X182391541Y-90219819D02*
X182486779Y-90219819D01*
X182486779Y-90219819D02*
X182582017Y-90267438D01*
X182582017Y-90267438D02*
X182629636Y-90315057D01*
X182629636Y-90315057D02*
X182677255Y-90410295D01*
X182677255Y-90410295D02*
X182724874Y-90600771D01*
X182724874Y-90600771D02*
X182724874Y-90838866D01*
X182724874Y-90838866D02*
X182677255Y-91029342D01*
X182677255Y-91029342D02*
X182629636Y-91124580D01*
X182629636Y-91124580D02*
X182582017Y-91172200D01*
X182582017Y-91172200D02*
X182486779Y-91219819D01*
X182486779Y-91219819D02*
X182391541Y-91219819D01*
X182391541Y-91219819D02*
X182296303Y-91172200D01*
X182296303Y-91172200D02*
X182248684Y-91124580D01*
X182248684Y-91124580D02*
X182201065Y-91029342D01*
X182201065Y-91029342D02*
X182153446Y-90838866D01*
X182153446Y-90838866D02*
X182153446Y-90600771D01*
X182153446Y-90600771D02*
X182201065Y-90410295D01*
X182201065Y-90410295D02*
X182248684Y-90315057D01*
X182248684Y-90315057D02*
X182296303Y-90267438D01*
X182296303Y-90267438D02*
X182391541Y-90219819D01*
X183296303Y-90648390D02*
X183201065Y-90600771D01*
X183201065Y-90600771D02*
X183153446Y-90553152D01*
X183153446Y-90553152D02*
X183105827Y-90457914D01*
X183105827Y-90457914D02*
X183105827Y-90410295D01*
X183105827Y-90410295D02*
X183153446Y-90315057D01*
X183153446Y-90315057D02*
X183201065Y-90267438D01*
X183201065Y-90267438D02*
X183296303Y-90219819D01*
X183296303Y-90219819D02*
X183486779Y-90219819D01*
X183486779Y-90219819D02*
X183582017Y-90267438D01*
X183582017Y-90267438D02*
X183629636Y-90315057D01*
X183629636Y-90315057D02*
X183677255Y-90410295D01*
X183677255Y-90410295D02*
X183677255Y-90457914D01*
X183677255Y-90457914D02*
X183629636Y-90553152D01*
X183629636Y-90553152D02*
X183582017Y-90600771D01*
X183582017Y-90600771D02*
X183486779Y-90648390D01*
X183486779Y-90648390D02*
X183296303Y-90648390D01*
X183296303Y-90648390D02*
X183201065Y-90696009D01*
X183201065Y-90696009D02*
X183153446Y-90743628D01*
X183153446Y-90743628D02*
X183105827Y-90838866D01*
X183105827Y-90838866D02*
X183105827Y-91029342D01*
X183105827Y-91029342D02*
X183153446Y-91124580D01*
X183153446Y-91124580D02*
X183201065Y-91172200D01*
X183201065Y-91172200D02*
X183296303Y-91219819D01*
X183296303Y-91219819D02*
X183486779Y-91219819D01*
X183486779Y-91219819D02*
X183582017Y-91172200D01*
X183582017Y-91172200D02*
X183629636Y-91124580D01*
X183629636Y-91124580D02*
X183677255Y-91029342D01*
X183677255Y-91029342D02*
X183677255Y-90838866D01*
X183677255Y-90838866D02*
X183629636Y-90743628D01*
X183629636Y-90743628D02*
X183582017Y-90696009D01*
X183582017Y-90696009D02*
X183486779Y-90648390D01*
X148029636Y-91269819D02*
X147934398Y-91222200D01*
X147934398Y-91222200D02*
X147886779Y-91174580D01*
X147886779Y-91174580D02*
X147839160Y-91079342D01*
X147839160Y-91079342D02*
X147839160Y-90793628D01*
X147839160Y-90793628D02*
X147886779Y-90698390D01*
X147886779Y-90698390D02*
X147934398Y-90650771D01*
X147934398Y-90650771D02*
X148029636Y-90603152D01*
X148029636Y-90603152D02*
X148172493Y-90603152D01*
X148172493Y-90603152D02*
X148267731Y-90650771D01*
X148267731Y-90650771D02*
X148315350Y-90698390D01*
X148315350Y-90698390D02*
X148362969Y-90793628D01*
X148362969Y-90793628D02*
X148362969Y-91079342D01*
X148362969Y-91079342D02*
X148315350Y-91174580D01*
X148315350Y-91174580D02*
X148267731Y-91222200D01*
X148267731Y-91222200D02*
X148172493Y-91269819D01*
X148172493Y-91269819D02*
X148029636Y-91269819D01*
X148743922Y-91222200D02*
X148839160Y-91269819D01*
X148839160Y-91269819D02*
X149029636Y-91269819D01*
X149029636Y-91269819D02*
X149124874Y-91222200D01*
X149124874Y-91222200D02*
X149172493Y-91126961D01*
X149172493Y-91126961D02*
X149172493Y-91079342D01*
X149172493Y-91079342D02*
X149124874Y-90984104D01*
X149124874Y-90984104D02*
X149029636Y-90936485D01*
X149029636Y-90936485D02*
X148886779Y-90936485D01*
X148886779Y-90936485D02*
X148791541Y-90888866D01*
X148791541Y-90888866D02*
X148743922Y-90793628D01*
X148743922Y-90793628D02*
X148743922Y-90746009D01*
X148743922Y-90746009D02*
X148791541Y-90650771D01*
X148791541Y-90650771D02*
X148886779Y-90603152D01*
X148886779Y-90603152D02*
X149029636Y-90603152D01*
X149029636Y-90603152D02*
X149124874Y-90650771D01*
X149458208Y-90603152D02*
X149839160Y-90603152D01*
X149601065Y-91269819D02*
X149601065Y-90412676D01*
X149601065Y-90412676D02*
X149648684Y-90317438D01*
X149648684Y-90317438D02*
X149743922Y-90269819D01*
X149743922Y-90269819D02*
X149839160Y-90269819D01*
X150172494Y-91174580D02*
X150220113Y-91222200D01*
X150220113Y-91222200D02*
X150172494Y-91269819D01*
X150172494Y-91269819D02*
X150124875Y-91222200D01*
X150124875Y-91222200D02*
X150172494Y-91174580D01*
X150172494Y-91174580D02*
X150172494Y-91269819D01*
X150648684Y-91269819D02*
X150648684Y-90269819D01*
X150648684Y-90650771D02*
X150743922Y-90603152D01*
X150743922Y-90603152D02*
X150934398Y-90603152D01*
X150934398Y-90603152D02*
X151029636Y-90650771D01*
X151029636Y-90650771D02*
X151077255Y-90698390D01*
X151077255Y-90698390D02*
X151124874Y-90793628D01*
X151124874Y-90793628D02*
X151124874Y-91079342D01*
X151124874Y-91079342D02*
X151077255Y-91174580D01*
X151077255Y-91174580D02*
X151029636Y-91222200D01*
X151029636Y-91222200D02*
X150934398Y-91269819D01*
X150934398Y-91269819D02*
X150743922Y-91269819D01*
X150743922Y-91269819D02*
X150648684Y-91222200D01*
X152077255Y-91269819D02*
X151505827Y-91269819D01*
X151791541Y-91269819D02*
X151791541Y-90269819D01*
X151791541Y-90269819D02*
X151696303Y-90412676D01*
X151696303Y-90412676D02*
X151601065Y-90507914D01*
X151601065Y-90507914D02*
X151505827Y-90555533D01*
X152982017Y-90269819D02*
X152505827Y-90269819D01*
X152505827Y-90269819D02*
X152458208Y-90746009D01*
X152458208Y-90746009D02*
X152505827Y-90698390D01*
X152505827Y-90698390D02*
X152601065Y-90650771D01*
X152601065Y-90650771D02*
X152839160Y-90650771D01*
X152839160Y-90650771D02*
X152934398Y-90698390D01*
X152934398Y-90698390D02*
X152982017Y-90746009D01*
X152982017Y-90746009D02*
X153029636Y-90841247D01*
X153029636Y-90841247D02*
X153029636Y-91079342D01*
X153029636Y-91079342D02*
X152982017Y-91174580D01*
X152982017Y-91174580D02*
X152934398Y-91222200D01*
X152934398Y-91222200D02*
X152839160Y-91269819D01*
X152839160Y-91269819D02*
X152601065Y-91269819D01*
X152601065Y-91269819D02*
X152505827Y-91222200D01*
X152505827Y-91222200D02*
X152458208Y-91174580D01*
X153886779Y-90269819D02*
X153696303Y-90269819D01*
X153696303Y-90269819D02*
X153601065Y-90317438D01*
X153601065Y-90317438D02*
X153553446Y-90365057D01*
X153553446Y-90365057D02*
X153458208Y-90507914D01*
X153458208Y-90507914D02*
X153410589Y-90698390D01*
X153410589Y-90698390D02*
X153410589Y-91079342D01*
X153410589Y-91079342D02*
X153458208Y-91174580D01*
X153458208Y-91174580D02*
X153505827Y-91222200D01*
X153505827Y-91222200D02*
X153601065Y-91269819D01*
X153601065Y-91269819D02*
X153791541Y-91269819D01*
X153791541Y-91269819D02*
X153886779Y-91222200D01*
X153886779Y-91222200D02*
X153934398Y-91174580D01*
X153934398Y-91174580D02*
X153982017Y-91079342D01*
X153982017Y-91079342D02*
X153982017Y-90841247D01*
X153982017Y-90841247D02*
X153934398Y-90746009D01*
X153934398Y-90746009D02*
X153886779Y-90698390D01*
X153886779Y-90698390D02*
X153791541Y-90650771D01*
X153791541Y-90650771D02*
X153601065Y-90650771D01*
X153601065Y-90650771D02*
X153505827Y-90698390D01*
X153505827Y-90698390D02*
X153458208Y-90746009D01*
X153458208Y-90746009D02*
X153410589Y-90841247D01*
X154410589Y-91174580D02*
X154458208Y-91222200D01*
X154458208Y-91222200D02*
X154410589Y-91269819D01*
X154410589Y-91269819D02*
X154362970Y-91222200D01*
X154362970Y-91222200D02*
X154410589Y-91174580D01*
X154410589Y-91174580D02*
X154410589Y-91269819D01*
X154791541Y-90603152D02*
X155029636Y-91269819D01*
X155029636Y-91269819D02*
X155267731Y-90603152D01*
X156172493Y-91269819D02*
X155601065Y-91269819D01*
X155886779Y-91269819D02*
X155886779Y-90269819D01*
X155886779Y-90269819D02*
X155791541Y-90412676D01*
X155791541Y-90412676D02*
X155696303Y-90507914D01*
X155696303Y-90507914D02*
X155601065Y-90555533D01*
X156601065Y-91174580D02*
X156648684Y-91222200D01*
X156648684Y-91222200D02*
X156601065Y-91269819D01*
X156601065Y-91269819D02*
X156553446Y-91222200D01*
X156553446Y-91222200D02*
X156601065Y-91174580D01*
X156601065Y-91174580D02*
X156601065Y-91269819D01*
X157601064Y-91269819D02*
X157029636Y-91269819D01*
X157315350Y-91269819D02*
X157315350Y-90269819D01*
X157315350Y-90269819D02*
X157220112Y-90412676D01*
X157220112Y-90412676D02*
X157124874Y-90507914D01*
X157124874Y-90507914D02*
X157029636Y-90555533D01*
X163729819Y-97411904D02*
X164539342Y-97411904D01*
X164539342Y-97411904D02*
X164634580Y-97364285D01*
X164634580Y-97364285D02*
X164682200Y-97316666D01*
X164682200Y-97316666D02*
X164729819Y-97221428D01*
X164729819Y-97221428D02*
X164729819Y-97030952D01*
X164729819Y-97030952D02*
X164682200Y-96935714D01*
X164682200Y-96935714D02*
X164634580Y-96888095D01*
X164634580Y-96888095D02*
X164539342Y-96840476D01*
X164539342Y-96840476D02*
X163729819Y-96840476D01*
X164729819Y-95840476D02*
X164729819Y-96411904D01*
X164729819Y-96126190D02*
X163729819Y-96126190D01*
X163729819Y-96126190D02*
X163872676Y-96221428D01*
X163872676Y-96221428D02*
X163967914Y-96316666D01*
X163967914Y-96316666D02*
X164015533Y-96411904D01*
X177009580Y-101366666D02*
X177057200Y-101414285D01*
X177057200Y-101414285D02*
X177104819Y-101557142D01*
X177104819Y-101557142D02*
X177104819Y-101652380D01*
X177104819Y-101652380D02*
X177057200Y-101795237D01*
X177057200Y-101795237D02*
X176961961Y-101890475D01*
X176961961Y-101890475D02*
X176866723Y-101938094D01*
X176866723Y-101938094D02*
X176676247Y-101985713D01*
X176676247Y-101985713D02*
X176533390Y-101985713D01*
X176533390Y-101985713D02*
X176342914Y-101938094D01*
X176342914Y-101938094D02*
X176247676Y-101890475D01*
X176247676Y-101890475D02*
X176152438Y-101795237D01*
X176152438Y-101795237D02*
X176104819Y-101652380D01*
X176104819Y-101652380D02*
X176104819Y-101557142D01*
X176104819Y-101557142D02*
X176152438Y-101414285D01*
X176152438Y-101414285D02*
X176200057Y-101366666D01*
X176104819Y-101033332D02*
X176104819Y-100366666D01*
X176104819Y-100366666D02*
X177104819Y-100795237D01*
X161133333Y-91259580D02*
X161085714Y-91307200D01*
X161085714Y-91307200D02*
X160942857Y-91354819D01*
X160942857Y-91354819D02*
X160847619Y-91354819D01*
X160847619Y-91354819D02*
X160704762Y-91307200D01*
X160704762Y-91307200D02*
X160609524Y-91211961D01*
X160609524Y-91211961D02*
X160561905Y-91116723D01*
X160561905Y-91116723D02*
X160514286Y-90926247D01*
X160514286Y-90926247D02*
X160514286Y-90783390D01*
X160514286Y-90783390D02*
X160561905Y-90592914D01*
X160561905Y-90592914D02*
X160609524Y-90497676D01*
X160609524Y-90497676D02*
X160704762Y-90402438D01*
X160704762Y-90402438D02*
X160847619Y-90354819D01*
X160847619Y-90354819D02*
X160942857Y-90354819D01*
X160942857Y-90354819D02*
X161085714Y-90402438D01*
X161085714Y-90402438D02*
X161133333Y-90450057D01*
X162038095Y-90354819D02*
X161561905Y-90354819D01*
X161561905Y-90354819D02*
X161514286Y-90831009D01*
X161514286Y-90831009D02*
X161561905Y-90783390D01*
X161561905Y-90783390D02*
X161657143Y-90735771D01*
X161657143Y-90735771D02*
X161895238Y-90735771D01*
X161895238Y-90735771D02*
X161990476Y-90783390D01*
X161990476Y-90783390D02*
X162038095Y-90831009D01*
X162038095Y-90831009D02*
X162085714Y-90926247D01*
X162085714Y-90926247D02*
X162085714Y-91164342D01*
X162085714Y-91164342D02*
X162038095Y-91259580D01*
X162038095Y-91259580D02*
X161990476Y-91307200D01*
X161990476Y-91307200D02*
X161895238Y-91354819D01*
X161895238Y-91354819D02*
X161657143Y-91354819D01*
X161657143Y-91354819D02*
X161561905Y-91307200D01*
X161561905Y-91307200D02*
X161514286Y-91259580D01*
X161959580Y-95916666D02*
X162007200Y-95964285D01*
X162007200Y-95964285D02*
X162054819Y-96107142D01*
X162054819Y-96107142D02*
X162054819Y-96202380D01*
X162054819Y-96202380D02*
X162007200Y-96345237D01*
X162007200Y-96345237D02*
X161911961Y-96440475D01*
X161911961Y-96440475D02*
X161816723Y-96488094D01*
X161816723Y-96488094D02*
X161626247Y-96535713D01*
X161626247Y-96535713D02*
X161483390Y-96535713D01*
X161483390Y-96535713D02*
X161292914Y-96488094D01*
X161292914Y-96488094D02*
X161197676Y-96440475D01*
X161197676Y-96440475D02*
X161102438Y-96345237D01*
X161102438Y-96345237D02*
X161054819Y-96202380D01*
X161054819Y-96202380D02*
X161054819Y-96107142D01*
X161054819Y-96107142D02*
X161102438Y-95964285D01*
X161102438Y-95964285D02*
X161150057Y-95916666D01*
X161388152Y-95059523D02*
X162054819Y-95059523D01*
X161007200Y-95297618D02*
X161721485Y-95535713D01*
X161721485Y-95535713D02*
X161721485Y-94916666D01*
X145894819Y-97933333D02*
X146609104Y-97933333D01*
X146609104Y-97933333D02*
X146751961Y-97980952D01*
X146751961Y-97980952D02*
X146847200Y-98076190D01*
X146847200Y-98076190D02*
X146894819Y-98219047D01*
X146894819Y-98219047D02*
X146894819Y-98314285D01*
X145894819Y-97552380D02*
X145894819Y-96933333D01*
X145894819Y-96933333D02*
X146275771Y-97266666D01*
X146275771Y-97266666D02*
X146275771Y-97123809D01*
X146275771Y-97123809D02*
X146323390Y-97028571D01*
X146323390Y-97028571D02*
X146371009Y-96980952D01*
X146371009Y-96980952D02*
X146466247Y-96933333D01*
X146466247Y-96933333D02*
X146704342Y-96933333D01*
X146704342Y-96933333D02*
X146799580Y-96980952D01*
X146799580Y-96980952D02*
X146847200Y-97028571D01*
X146847200Y-97028571D02*
X146894819Y-97123809D01*
X146894819Y-97123809D02*
X146894819Y-97409523D01*
X146894819Y-97409523D02*
X146847200Y-97504761D01*
X146847200Y-97504761D02*
X146799580Y-97552380D01*
X160009580Y-92766666D02*
X160057200Y-92814285D01*
X160057200Y-92814285D02*
X160104819Y-92957142D01*
X160104819Y-92957142D02*
X160104819Y-93052380D01*
X160104819Y-93052380D02*
X160057200Y-93195237D01*
X160057200Y-93195237D02*
X159961961Y-93290475D01*
X159961961Y-93290475D02*
X159866723Y-93338094D01*
X159866723Y-93338094D02*
X159676247Y-93385713D01*
X159676247Y-93385713D02*
X159533390Y-93385713D01*
X159533390Y-93385713D02*
X159342914Y-93338094D01*
X159342914Y-93338094D02*
X159247676Y-93290475D01*
X159247676Y-93290475D02*
X159152438Y-93195237D01*
X159152438Y-93195237D02*
X159104819Y-93052380D01*
X159104819Y-93052380D02*
X159104819Y-92957142D01*
X159104819Y-92957142D02*
X159152438Y-92814285D01*
X159152438Y-92814285D02*
X159200057Y-92766666D01*
X159104819Y-91909523D02*
X159104819Y-92099999D01*
X159104819Y-92099999D02*
X159152438Y-92195237D01*
X159152438Y-92195237D02*
X159200057Y-92242856D01*
X159200057Y-92242856D02*
X159342914Y-92338094D01*
X159342914Y-92338094D02*
X159533390Y-92385713D01*
X159533390Y-92385713D02*
X159914342Y-92385713D01*
X159914342Y-92385713D02*
X160009580Y-92338094D01*
X160009580Y-92338094D02*
X160057200Y-92290475D01*
X160057200Y-92290475D02*
X160104819Y-92195237D01*
X160104819Y-92195237D02*
X160104819Y-92004761D01*
X160104819Y-92004761D02*
X160057200Y-91909523D01*
X160057200Y-91909523D02*
X160009580Y-91861904D01*
X160009580Y-91861904D02*
X159914342Y-91814285D01*
X159914342Y-91814285D02*
X159676247Y-91814285D01*
X159676247Y-91814285D02*
X159581009Y-91861904D01*
X159581009Y-91861904D02*
X159533390Y-91909523D01*
X159533390Y-91909523D02*
X159485771Y-92004761D01*
X159485771Y-92004761D02*
X159485771Y-92195237D01*
X159485771Y-92195237D02*
X159533390Y-92290475D01*
X159533390Y-92290475D02*
X159581009Y-92338094D01*
X159581009Y-92338094D02*
X159676247Y-92385713D01*
X159899580Y-101846666D02*
X159947200Y-101894285D01*
X159947200Y-101894285D02*
X159994819Y-102037142D01*
X159994819Y-102037142D02*
X159994819Y-102132380D01*
X159994819Y-102132380D02*
X159947200Y-102275237D01*
X159947200Y-102275237D02*
X159851961Y-102370475D01*
X159851961Y-102370475D02*
X159756723Y-102418094D01*
X159756723Y-102418094D02*
X159566247Y-102465713D01*
X159566247Y-102465713D02*
X159423390Y-102465713D01*
X159423390Y-102465713D02*
X159232914Y-102418094D01*
X159232914Y-102418094D02*
X159137676Y-102370475D01*
X159137676Y-102370475D02*
X159042438Y-102275237D01*
X159042438Y-102275237D02*
X158994819Y-102132380D01*
X158994819Y-102132380D02*
X158994819Y-102037142D01*
X158994819Y-102037142D02*
X159042438Y-101894285D01*
X159042438Y-101894285D02*
X159090057Y-101846666D01*
X159090057Y-101465713D02*
X159042438Y-101418094D01*
X159042438Y-101418094D02*
X158994819Y-101322856D01*
X158994819Y-101322856D02*
X158994819Y-101084761D01*
X158994819Y-101084761D02*
X159042438Y-100989523D01*
X159042438Y-100989523D02*
X159090057Y-100941904D01*
X159090057Y-100941904D02*
X159185295Y-100894285D01*
X159185295Y-100894285D02*
X159280533Y-100894285D01*
X159280533Y-100894285D02*
X159423390Y-100941904D01*
X159423390Y-100941904D02*
X159994819Y-101513332D01*
X159994819Y-101513332D02*
X159994819Y-100894285D01*
X162009580Y-98266666D02*
X162057200Y-98314285D01*
X162057200Y-98314285D02*
X162104819Y-98457142D01*
X162104819Y-98457142D02*
X162104819Y-98552380D01*
X162104819Y-98552380D02*
X162057200Y-98695237D01*
X162057200Y-98695237D02*
X161961961Y-98790475D01*
X161961961Y-98790475D02*
X161866723Y-98838094D01*
X161866723Y-98838094D02*
X161676247Y-98885713D01*
X161676247Y-98885713D02*
X161533390Y-98885713D01*
X161533390Y-98885713D02*
X161342914Y-98838094D01*
X161342914Y-98838094D02*
X161247676Y-98790475D01*
X161247676Y-98790475D02*
X161152438Y-98695237D01*
X161152438Y-98695237D02*
X161104819Y-98552380D01*
X161104819Y-98552380D02*
X161104819Y-98457142D01*
X161104819Y-98457142D02*
X161152438Y-98314285D01*
X161152438Y-98314285D02*
X161200057Y-98266666D01*
X161104819Y-97933332D02*
X161104819Y-97314285D01*
X161104819Y-97314285D02*
X161485771Y-97647618D01*
X161485771Y-97647618D02*
X161485771Y-97504761D01*
X161485771Y-97504761D02*
X161533390Y-97409523D01*
X161533390Y-97409523D02*
X161581009Y-97361904D01*
X161581009Y-97361904D02*
X161676247Y-97314285D01*
X161676247Y-97314285D02*
X161914342Y-97314285D01*
X161914342Y-97314285D02*
X162009580Y-97361904D01*
X162009580Y-97361904D02*
X162057200Y-97409523D01*
X162057200Y-97409523D02*
X162104819Y-97504761D01*
X162104819Y-97504761D02*
X162104819Y-97790475D01*
X162104819Y-97790475D02*
X162057200Y-97885713D01*
X162057200Y-97885713D02*
X162009580Y-97933332D01*
X148617142Y-94289580D02*
X148569523Y-94337200D01*
X148569523Y-94337200D02*
X148426666Y-94384819D01*
X148426666Y-94384819D02*
X148331428Y-94384819D01*
X148331428Y-94384819D02*
X148188571Y-94337200D01*
X148188571Y-94337200D02*
X148093333Y-94241961D01*
X148093333Y-94241961D02*
X148045714Y-94146723D01*
X148045714Y-94146723D02*
X147998095Y-93956247D01*
X147998095Y-93956247D02*
X147998095Y-93813390D01*
X147998095Y-93813390D02*
X148045714Y-93622914D01*
X148045714Y-93622914D02*
X148093333Y-93527676D01*
X148093333Y-93527676D02*
X148188571Y-93432438D01*
X148188571Y-93432438D02*
X148331428Y-93384819D01*
X148331428Y-93384819D02*
X148426666Y-93384819D01*
X148426666Y-93384819D02*
X148569523Y-93432438D01*
X148569523Y-93432438D02*
X148617142Y-93480057D01*
X149569523Y-94384819D02*
X148998095Y-94384819D01*
X149283809Y-94384819D02*
X149283809Y-93384819D01*
X149283809Y-93384819D02*
X149188571Y-93527676D01*
X149188571Y-93527676D02*
X149093333Y-93622914D01*
X149093333Y-93622914D02*
X148998095Y-93670533D01*
X150188571Y-93384819D02*
X150283809Y-93384819D01*
X150283809Y-93384819D02*
X150379047Y-93432438D01*
X150379047Y-93432438D02*
X150426666Y-93480057D01*
X150426666Y-93480057D02*
X150474285Y-93575295D01*
X150474285Y-93575295D02*
X150521904Y-93765771D01*
X150521904Y-93765771D02*
X150521904Y-94003866D01*
X150521904Y-94003866D02*
X150474285Y-94194342D01*
X150474285Y-94194342D02*
X150426666Y-94289580D01*
X150426666Y-94289580D02*
X150379047Y-94337200D01*
X150379047Y-94337200D02*
X150283809Y-94384819D01*
X150283809Y-94384819D02*
X150188571Y-94384819D01*
X150188571Y-94384819D02*
X150093333Y-94337200D01*
X150093333Y-94337200D02*
X150045714Y-94289580D01*
X150045714Y-94289580D02*
X149998095Y-94194342D01*
X149998095Y-94194342D02*
X149950476Y-94003866D01*
X149950476Y-94003866D02*
X149950476Y-93765771D01*
X149950476Y-93765771D02*
X149998095Y-93575295D01*
X149998095Y-93575295D02*
X150045714Y-93480057D01*
X150045714Y-93480057D02*
X150093333Y-93432438D01*
X150093333Y-93432438D02*
X150188571Y-93384819D01*
X180409580Y-101336666D02*
X180457200Y-101384285D01*
X180457200Y-101384285D02*
X180504819Y-101527142D01*
X180504819Y-101527142D02*
X180504819Y-101622380D01*
X180504819Y-101622380D02*
X180457200Y-101765237D01*
X180457200Y-101765237D02*
X180361961Y-101860475D01*
X180361961Y-101860475D02*
X180266723Y-101908094D01*
X180266723Y-101908094D02*
X180076247Y-101955713D01*
X180076247Y-101955713D02*
X179933390Y-101955713D01*
X179933390Y-101955713D02*
X179742914Y-101908094D01*
X179742914Y-101908094D02*
X179647676Y-101860475D01*
X179647676Y-101860475D02*
X179552438Y-101765237D01*
X179552438Y-101765237D02*
X179504819Y-101622380D01*
X179504819Y-101622380D02*
X179504819Y-101527142D01*
X179504819Y-101527142D02*
X179552438Y-101384285D01*
X179552438Y-101384285D02*
X179600057Y-101336666D01*
X179933390Y-100765237D02*
X179885771Y-100860475D01*
X179885771Y-100860475D02*
X179838152Y-100908094D01*
X179838152Y-100908094D02*
X179742914Y-100955713D01*
X179742914Y-100955713D02*
X179695295Y-100955713D01*
X179695295Y-100955713D02*
X179600057Y-100908094D01*
X179600057Y-100908094D02*
X179552438Y-100860475D01*
X179552438Y-100860475D02*
X179504819Y-100765237D01*
X179504819Y-100765237D02*
X179504819Y-100574761D01*
X179504819Y-100574761D02*
X179552438Y-100479523D01*
X179552438Y-100479523D02*
X179600057Y-100431904D01*
X179600057Y-100431904D02*
X179695295Y-100384285D01*
X179695295Y-100384285D02*
X179742914Y-100384285D01*
X179742914Y-100384285D02*
X179838152Y-100431904D01*
X179838152Y-100431904D02*
X179885771Y-100479523D01*
X179885771Y-100479523D02*
X179933390Y-100574761D01*
X179933390Y-100574761D02*
X179933390Y-100765237D01*
X179933390Y-100765237D02*
X179981009Y-100860475D01*
X179981009Y-100860475D02*
X180028628Y-100908094D01*
X180028628Y-100908094D02*
X180123866Y-100955713D01*
X180123866Y-100955713D02*
X180314342Y-100955713D01*
X180314342Y-100955713D02*
X180409580Y-100908094D01*
X180409580Y-100908094D02*
X180457200Y-100860475D01*
X180457200Y-100860475D02*
X180504819Y-100765237D01*
X180504819Y-100765237D02*
X180504819Y-100574761D01*
X180504819Y-100574761D02*
X180457200Y-100479523D01*
X180457200Y-100479523D02*
X180409580Y-100431904D01*
X180409580Y-100431904D02*
X180314342Y-100384285D01*
X180314342Y-100384285D02*
X180123866Y-100384285D01*
X180123866Y-100384285D02*
X180028628Y-100431904D01*
X180028628Y-100431904D02*
X179981009Y-100479523D01*
X179981009Y-100479523D02*
X179933390Y-100574761D01*
X155103333Y-94069580D02*
X155055714Y-94117200D01*
X155055714Y-94117200D02*
X154912857Y-94164819D01*
X154912857Y-94164819D02*
X154817619Y-94164819D01*
X154817619Y-94164819D02*
X154674762Y-94117200D01*
X154674762Y-94117200D02*
X154579524Y-94021961D01*
X154579524Y-94021961D02*
X154531905Y-93926723D01*
X154531905Y-93926723D02*
X154484286Y-93736247D01*
X154484286Y-93736247D02*
X154484286Y-93593390D01*
X154484286Y-93593390D02*
X154531905Y-93402914D01*
X154531905Y-93402914D02*
X154579524Y-93307676D01*
X154579524Y-93307676D02*
X154674762Y-93212438D01*
X154674762Y-93212438D02*
X154817619Y-93164819D01*
X154817619Y-93164819D02*
X154912857Y-93164819D01*
X154912857Y-93164819D02*
X155055714Y-93212438D01*
X155055714Y-93212438D02*
X155103333Y-93260057D01*
X155579524Y-94164819D02*
X155770000Y-94164819D01*
X155770000Y-94164819D02*
X155865238Y-94117200D01*
X155865238Y-94117200D02*
X155912857Y-94069580D01*
X155912857Y-94069580D02*
X156008095Y-93926723D01*
X156008095Y-93926723D02*
X156055714Y-93736247D01*
X156055714Y-93736247D02*
X156055714Y-93355295D01*
X156055714Y-93355295D02*
X156008095Y-93260057D01*
X156008095Y-93260057D02*
X155960476Y-93212438D01*
X155960476Y-93212438D02*
X155865238Y-93164819D01*
X155865238Y-93164819D02*
X155674762Y-93164819D01*
X155674762Y-93164819D02*
X155579524Y-93212438D01*
X155579524Y-93212438D02*
X155531905Y-93260057D01*
X155531905Y-93260057D02*
X155484286Y-93355295D01*
X155484286Y-93355295D02*
X155484286Y-93593390D01*
X155484286Y-93593390D02*
X155531905Y-93688628D01*
X155531905Y-93688628D02*
X155579524Y-93736247D01*
X155579524Y-93736247D02*
X155674762Y-93783866D01*
X155674762Y-93783866D02*
X155865238Y-93783866D01*
X155865238Y-93783866D02*
X155960476Y-93736247D01*
X155960476Y-93736247D02*
X156008095Y-93688628D01*
X156008095Y-93688628D02*
X156055714Y-93593390D01*
X178373809Y-96028628D02*
X178373809Y-96504819D01*
X178040476Y-95504819D02*
X178373809Y-96028628D01*
X178373809Y-96028628D02*
X178707142Y-95504819D01*
X179564285Y-96504819D02*
X178992857Y-96504819D01*
X179278571Y-96504819D02*
X179278571Y-95504819D01*
X179278571Y-95504819D02*
X179183333Y-95647676D01*
X179183333Y-95647676D02*
X179088095Y-95742914D01*
X179088095Y-95742914D02*
X178992857Y-95790533D01*
X161009580Y-100116666D02*
X161057200Y-100164285D01*
X161057200Y-100164285D02*
X161104819Y-100307142D01*
X161104819Y-100307142D02*
X161104819Y-100402380D01*
X161104819Y-100402380D02*
X161057200Y-100545237D01*
X161057200Y-100545237D02*
X160961961Y-100640475D01*
X160961961Y-100640475D02*
X160866723Y-100688094D01*
X160866723Y-100688094D02*
X160676247Y-100735713D01*
X160676247Y-100735713D02*
X160533390Y-100735713D01*
X160533390Y-100735713D02*
X160342914Y-100688094D01*
X160342914Y-100688094D02*
X160247676Y-100640475D01*
X160247676Y-100640475D02*
X160152438Y-100545237D01*
X160152438Y-100545237D02*
X160104819Y-100402380D01*
X160104819Y-100402380D02*
X160104819Y-100307142D01*
X160104819Y-100307142D02*
X160152438Y-100164285D01*
X160152438Y-100164285D02*
X160200057Y-100116666D01*
X161104819Y-99164285D02*
X161104819Y-99735713D01*
X161104819Y-99449999D02*
X160104819Y-99449999D01*
X160104819Y-99449999D02*
X160247676Y-99545237D01*
X160247676Y-99545237D02*
X160342914Y-99640475D01*
X160342914Y-99640475D02*
X160390533Y-99735713D01*
D11*
%TO.C,U1*%
X165390000Y-99410000D02*
X165390000Y-101100000D01*
X172535000Y-93890000D02*
X172260000Y-93890000D01*
X165115000Y-96650000D02*
X165115000Y-93890000D01*
X165115000Y-99410000D02*
X165390000Y-99410000D01*
X165115000Y-93890000D02*
X165390000Y-93890000D01*
X172535000Y-96650000D02*
X172535000Y-93890000D01*
X172535000Y-96650000D02*
X172535000Y-99410000D01*
X165115000Y-96650000D02*
X165115000Y-99410000D01*
X172535000Y-99410000D02*
X172260000Y-99410000D01*
%TO.C,C7*%
X177960000Y-101062164D02*
X177960000Y-101277836D01*
X177240000Y-101062164D02*
X177240000Y-101277836D01*
%TO.C,C5*%
X161290000Y-92327836D02*
X161290000Y-92112164D01*
X162010000Y-92327836D02*
X162010000Y-92112164D01*
%TO.C,C4*%
X161290000Y-94157836D02*
X161290000Y-93942164D01*
X162010000Y-94157836D02*
X162010000Y-93942164D01*
%TO.C,J3*%
X147440000Y-98930000D02*
X147440000Y-97600000D01*
X148770000Y-98930000D02*
X147440000Y-98930000D01*
X150040000Y-98930000D02*
X157720000Y-98930000D01*
X150040000Y-98930000D02*
X150040000Y-96270000D01*
X157720000Y-98930000D02*
X157720000Y-96270000D01*
X150040000Y-96270000D02*
X157720000Y-96270000D01*
%TO.C,C6*%
X160340000Y-92327836D02*
X160340000Y-92112164D01*
X161060000Y-92327836D02*
X161060000Y-92112164D01*
%TO.C,C2*%
X160340000Y-101787836D02*
X160340000Y-101572164D01*
X161060000Y-101787836D02*
X161060000Y-101572164D01*
D12*
%TO.C,J1*%
X181627000Y-95500000D02*
X181427000Y-95300000D01*
X180900000Y-95500000D02*
X181627000Y-95500000D01*
X181427000Y-95700000D02*
X181627000Y-95500000D01*
%TO.C,J2*%
X143850000Y-95300000D02*
X144050000Y-95500000D01*
X144050000Y-95500000D02*
X143323000Y-95500000D01*
X144050000Y-95500000D02*
X143850000Y-95700000D01*
D11*
%TO.C,C3*%
X162010000Y-99712164D02*
X162010000Y-99927836D01*
X161290000Y-99712164D02*
X161290000Y-99927836D01*
%TO.C,C10*%
X149152164Y-94730000D02*
X149367836Y-94730000D01*
X149152164Y-95450000D02*
X149367836Y-95450000D01*
%TO.C,C8*%
X179360000Y-101062164D02*
X179360000Y-101277836D01*
X178640000Y-101062164D02*
X178640000Y-101277836D01*
%TO.C,C9*%
X155162164Y-94510000D02*
X155377836Y-94510000D01*
X155162164Y-95230000D02*
X155377836Y-95230000D01*
%TO.C,Y1*%
X179600000Y-100150000D02*
X179600000Y-96850000D01*
X179600000Y-96850000D02*
X175600000Y-96850000D01*
%TO.C,C1*%
X161290000Y-101787836D02*
X161290000Y-101572164D01*
X162010000Y-101787836D02*
X162010000Y-101572164D01*
%TD*%
%LPC*%
D13*
%TO.C,U1*%
X165900000Y-100150000D03*
X166550000Y-100150000D03*
X167200000Y-100150000D03*
X167850000Y-100150000D03*
X168500000Y-100150000D03*
X169150000Y-100150000D03*
X169800000Y-100150000D03*
X170450000Y-100150000D03*
X171100000Y-100150000D03*
X171750000Y-100150000D03*
X171750000Y-93150000D03*
X171100000Y-93150000D03*
X170450000Y-93150000D03*
X169800000Y-93150000D03*
X169150000Y-93150000D03*
X168500000Y-93150000D03*
X167850000Y-93150000D03*
X167200000Y-93150000D03*
X166550000Y-93150000D03*
X165900000Y-93150000D03*
%TD*%
D14*
%TO.C,C7*%
X177600000Y-100690000D03*
X177600000Y-101650000D03*
%TD*%
D15*
%TO.C,C5*%
X161650000Y-92700000D03*
X161650000Y-91740000D03*
%TD*%
%TO.C,C4*%
X161650000Y-94530000D03*
X161650000Y-93570000D03*
%TD*%
D16*
%TO.C,J3*%
X148770000Y-97600000D03*
D17*
X151310000Y-97600000D03*
X153850000Y-97600000D03*
X156390000Y-97600000D03*
%TD*%
D15*
%TO.C,C6*%
X160700000Y-92700000D03*
X160700000Y-91740000D03*
%TD*%
%TO.C,C2*%
X160700000Y-102160000D03*
X160700000Y-101200000D03*
%TD*%
D18*
%TO.C,J1*%
X182650000Y-92500000D03*
X182650000Y-94500000D03*
X182650000Y-96500000D03*
X182650000Y-98500000D03*
X182650000Y-100500000D03*
%TD*%
%TO.C,J2*%
X142350000Y-92500000D03*
X142350000Y-94500000D03*
X142350000Y-96500000D03*
X142350000Y-98500000D03*
X142350000Y-100500000D03*
%TD*%
D14*
%TO.C,C3*%
X161650000Y-99340000D03*
X161650000Y-100300000D03*
%TD*%
D19*
%TO.C,C10*%
X148780000Y-95090000D03*
X149740000Y-95090000D03*
%TD*%
D14*
%TO.C,C8*%
X179000000Y-100690000D03*
X179000000Y-101650000D03*
%TD*%
D19*
%TO.C,C9*%
X154790000Y-94870000D03*
X155750000Y-94870000D03*
%TD*%
D20*
%TO.C,Y1*%
X178700000Y-97650000D03*
X176500000Y-97650000D03*
X176500000Y-99350000D03*
X178700000Y-99350000D03*
%TD*%
D15*
%TO.C,C1*%
X161650000Y-102160000D03*
X161650000Y-101200000D03*
%TD*%
%LPD*%
M02*
