%TF.GenerationSoftware,KiCad,Pcbnew,7.0.9*%
%TF.CreationDate,2024-06-23T02:13:20+02:00*%
%TF.ProjectId,board,626f6172-642e-46b6-9963-61645f706362,rev?*%
%TF.SameCoordinates,Original*%
%TF.FileFunction,Copper,L1,Top*%
%TF.FilePolarity,Positive*%
%FSLAX46Y46*%
G04 Gerber Fmt 4.6, Leading zero omitted, Abs format (unit mm)*
G04 Created by KiCad (PCBNEW 7.0.9) date 2024-06-23 02:13:20*
%MOMM*%
%LPD*%
G01*
G04 APERTURE LIST*
G04 Aperture macros list*
%AMRoundRect*
0 Rectangle with rounded corners*
0 $1 Rounding radius*
0 $2 $3 $4 $5 $6 $7 $8 $9 X,Y pos of 4 corners*
0 Add a 4 corners polygon primitive as box body*
4,1,4,$2,$3,$4,$5,$6,$7,$8,$9,$2,$3,0*
0 Add four circle primitives for the rounded corners*
1,1,$1+$1,$2,$3*
1,1,$1+$1,$4,$5*
1,1,$1+$1,$6,$7*
1,1,$1+$1,$8,$9*
0 Add four rect primitives between the rounded corners*
20,1,$1+$1,$2,$3,$4,$5,0*
20,1,$1+$1,$4,$5,$6,$7,0*
20,1,$1+$1,$6,$7,$8,$9,0*
20,1,$1+$1,$8,$9,$2,$3,0*%
G04 Aperture macros list end*
%TA.AperFunction,SMDPad,CuDef*%
%ADD10RoundRect,0.125000X0.125000X-0.825000X0.125000X0.825000X-0.125000X0.825000X-0.125000X-0.825000X0*%
%TD*%
%TA.AperFunction,SMDPad,CuDef*%
%ADD11RoundRect,0.140000X-0.170000X0.140000X-0.170000X-0.140000X0.170000X-0.140000X0.170000X0.140000X0*%
%TD*%
%TA.AperFunction,SMDPad,CuDef*%
%ADD12RoundRect,0.140000X0.170000X-0.140000X0.170000X0.140000X-0.170000X0.140000X-0.170000X-0.140000X0*%
%TD*%
%TA.AperFunction,ComponentPad*%
%ADD13R,1.700000X1.700000*%
%TD*%
%TA.AperFunction,ComponentPad*%
%ADD14O,1.700000X1.700000*%
%TD*%
%TA.AperFunction,SMDPad,CuDef*%
%ADD15R,3.500000X1.000000*%
%TD*%
%TA.AperFunction,SMDPad,CuDef*%
%ADD16RoundRect,0.140000X-0.140000X-0.170000X0.140000X-0.170000X0.140000X0.170000X-0.140000X0.170000X0*%
%TD*%
%TA.AperFunction,SMDPad,CuDef*%
%ADD17R,1.400000X1.200000*%
%TD*%
%TA.AperFunction,ViaPad*%
%ADD18C,0.500000*%
%TD*%
%TA.AperFunction,Conductor*%
%ADD19C,0.200000*%
%TD*%
%TA.AperFunction,Conductor*%
%ADD20C,0.500000*%
%TD*%
G04 APERTURE END LIST*
D10*
%TO.P,U1,1,VBUS1*%
%TO.N,/dcdc/5Vin*%
X165900000Y-100150000D03*
%TO.P,U1,2,GND1*%
%TO.N,/dcdc/GND1*%
X166550000Y-100150000D03*
%TO.P,U1,3,VDD1*%
%TO.N,/iso/VDD1*%
X167200000Y-100150000D03*
%TO.P,U1,4,GND1*%
%TO.N,/dcdc/GND1*%
X167850000Y-100150000D03*
%TO.P,U1,5,GND1*%
X168500000Y-100150000D03*
%TO.P,U1,6,GND1*%
X169150000Y-100150000D03*
%TO.P,U1,7,GND1*%
X169800000Y-100150000D03*
%TO.P,U1,8,UD+*%
%TO.N,/iso/D+*%
X170450000Y-100150000D03*
%TO.P,U1,9,UD-*%
%TO.N,/iso/D-*%
X171100000Y-100150000D03*
%TO.P,U1,10,GND1*%
%TO.N,/dcdc/GND1*%
X171750000Y-100150000D03*
%TO.P,U1,11,GND2*%
%TO.N,/dcdc/GND2*%
X171750000Y-93150000D03*
%TO.P,U1,12,DD+*%
%TO.N,/iso/DD+*%
X171100000Y-93150000D03*
%TO.P,U1,13,DD-*%
%TO.N,/iso/DD-*%
X170450000Y-93150000D03*
%TO.P,U1,14,PGOOD*%
%TO.N,/iso/PGOOD*%
X169800000Y-93150000D03*
%TO.P,U1,15,XO2*%
%TO.N,Net-(U1-XO2)*%
X169150000Y-93150000D03*
%TO.P,U1,16,XI2*%
%TO.N,Net-(U1-XI2)*%
X168500000Y-93150000D03*
%TO.P,U1,17,GND2*%
%TO.N,/dcdc/GND2*%
X167850000Y-93150000D03*
%TO.P,U1,18,VDD2*%
%TO.N,/iso/VDD2*%
X167200000Y-93150000D03*
%TO.P,U1,19,GND2*%
%TO.N,/dcdc/GND2*%
X166550000Y-93150000D03*
%TO.P,U1,20,VBUS2*%
%TO.N,/dcdc/5Vout*%
X165900000Y-93150000D03*
%TD*%
D11*
%TO.P,C7,1*%
%TO.N,Net-(U1-XI2)*%
X177600000Y-100690000D03*
%TO.P,C7,2*%
%TO.N,/dcdc/GND2*%
X177600000Y-101650000D03*
%TD*%
D12*
%TO.P,C5,1*%
%TO.N,/dcdc/5Vout*%
X161650000Y-92700000D03*
%TO.P,C5,2*%
%TO.N,/dcdc/GND2*%
X161650000Y-91740000D03*
%TD*%
%TO.P,C4,1*%
%TO.N,/iso/VDD2*%
X161650000Y-94530000D03*
%TO.P,C4,2*%
%TO.N,/dcdc/GND2*%
X161650000Y-93570000D03*
%TD*%
D13*
%TO.P,J3,1,Pin_1*%
%TO.N,/dcdc/GND1*%
X148770000Y-97600000D03*
D14*
%TO.P,J3,2,Pin_2*%
%TO.N,/dcdc/5Vin*%
X151310000Y-97600000D03*
%TO.P,J3,3,Pin_3*%
%TO.N,/dcdc/GND2*%
X153850000Y-97600000D03*
%TO.P,J3,4,Pin_4*%
%TO.N,/dcdc/5Vout*%
X156390000Y-97600000D03*
%TD*%
D12*
%TO.P,C6,1*%
%TO.N,/dcdc/5Vout*%
X160700000Y-92700000D03*
%TO.P,C6,2*%
%TO.N,/dcdc/GND2*%
X160700000Y-91740000D03*
%TD*%
%TO.P,C2,1*%
%TO.N,/dcdc/5Vin*%
X160700000Y-102160000D03*
%TO.P,C2,2*%
%TO.N,/dcdc/GND1*%
X160700000Y-101200000D03*
%TD*%
D15*
%TO.P,J1,1,GND*%
%TO.N,/dcdc/GND2*%
X182650000Y-92500000D03*
%TO.P,J1,2,VBUS*%
%TO.N,unconnected-(J1-VBUS-Pad2)*%
X182650000Y-94500000D03*
%TO.P,J1,3,DP*%
%TO.N,/iso/DD+*%
X182650000Y-96500000D03*
%TO.P,J1,4,DM*%
%TO.N,/iso/DD-*%
X182650000Y-98500000D03*
%TO.P,J1,5*%
%TO.N,N/C*%
X182650000Y-100500000D03*
%TD*%
%TO.P,J2,1,GND*%
%TO.N,/dcdc/GND1*%
X142350000Y-92500000D03*
%TO.P,J2,2,VBUS*%
%TO.N,unconnected-(J2-VBUS-Pad2)*%
X142350000Y-94500000D03*
%TO.P,J2,3,DP*%
%TO.N,/iso/D+*%
X142350000Y-96500000D03*
%TO.P,J2,4,DM*%
%TO.N,/iso/D-*%
X142350000Y-98500000D03*
%TO.P,J2,5*%
%TO.N,N/C*%
X142350000Y-100500000D03*
%TD*%
D11*
%TO.P,C3,1*%
%TO.N,/iso/VDD1*%
X161650000Y-99340000D03*
%TO.P,C3,2*%
%TO.N,/dcdc/GND1*%
X161650000Y-100300000D03*
%TD*%
D16*
%TO.P,C10,1*%
%TO.N,/dcdc/GND1*%
X148780000Y-95090000D03*
%TO.P,C10,2*%
%TO.N,/dcdc/5Vin*%
X149740000Y-95090000D03*
%TD*%
D11*
%TO.P,C8,1*%
%TO.N,Net-(U1-XO2)*%
X179000000Y-100690000D03*
%TO.P,C8,2*%
%TO.N,/dcdc/GND2*%
X179000000Y-101650000D03*
%TD*%
D16*
%TO.P,C9,1*%
%TO.N,/dcdc/GND2*%
X154790000Y-94870000D03*
%TO.P,C9,2*%
%TO.N,/dcdc/5Vout*%
X155750000Y-94870000D03*
%TD*%
D17*
%TO.P,Y1,1,1*%
%TO.N,Net-(U1-XO2)*%
X178700000Y-97650000D03*
%TO.P,Y1,2,2*%
%TO.N,/dcdc/GND2*%
X176500000Y-97650000D03*
%TO.P,Y1,3,3*%
%TO.N,Net-(U1-XI2)*%
X176500000Y-99350000D03*
%TO.P,Y1,4,4*%
%TO.N,/dcdc/GND2*%
X178700000Y-99350000D03*
%TD*%
D12*
%TO.P,C1,1*%
%TO.N,/dcdc/5Vin*%
X161650000Y-102160000D03*
%TO.P,C1,2*%
%TO.N,/dcdc/GND1*%
X161650000Y-101200000D03*
%TD*%
D18*
%TO.N,/dcdc/GND2*%
X174470000Y-95320000D03*
%TO.N,/iso/D+*%
X149350000Y-99000000D03*
X145650000Y-97800000D03*
%TO.N,/iso/D-*%
X149936937Y-99413063D03*
X145700000Y-98500000D03*
%TO.N,/dcdc/GND1*%
X171100000Y-97850000D03*
X141300000Y-102000000D03*
X167840000Y-101710000D03*
X164710000Y-102140000D03*
X162300000Y-100200000D03*
X164002999Y-99898000D03*
X161000000Y-97850000D03*
X170100000Y-101500000D03*
X151450000Y-101200000D03*
X157050000Y-101750000D03*
X174380000Y-101460000D03*
X154280000Y-101200000D03*
X147400000Y-102400000D03*
X146900000Y-97600000D03*
X148700000Y-95800000D03*
X168570000Y-101710000D03*
X166530000Y-101480000D03*
X141450000Y-91000000D03*
X145100000Y-92500000D03*
X150800000Y-90600000D03*
X159300000Y-101200000D03*
X145100000Y-95450000D03*
X159650000Y-99050000D03*
X160750000Y-100350000D03*
X169350000Y-101790000D03*
X150800000Y-95800000D03*
X171750000Y-101560000D03*
%TO.N,/dcdc/5Vin*%
X147150000Y-100900000D03*
%TO.N,/dcdc/GND2*%
X178950000Y-102450000D03*
X179000000Y-90850000D03*
X175070000Y-99170000D03*
X177550000Y-102450000D03*
X183150000Y-90850000D03*
X154150000Y-90650000D03*
X176550000Y-92500000D03*
X173010000Y-97070000D03*
X157550000Y-95450000D03*
X169040000Y-95860000D03*
X158250000Y-97350000D03*
X180250000Y-101650000D03*
X154850000Y-95850000D03*
X169830000Y-91450000D03*
X175440000Y-93840000D03*
X176500000Y-100600000D03*
X160400000Y-95900000D03*
X160550000Y-90550000D03*
X179650000Y-94550000D03*
X178600000Y-96400000D03*
X177500000Y-98500000D03*
X166500000Y-95850000D03*
X183350000Y-102050000D03*
X160250000Y-93900000D03*
X180200000Y-97850000D03*
X175520000Y-96140000D03*
%TO.N,/dcdc/5Vout*%
X163030000Y-92700000D03*
X165350000Y-92420000D03*
%TD*%
D19*
%TO.N,/iso/DD-*%
X175664552Y-95457000D02*
X178903000Y-95457000D01*
X181946000Y-98500000D02*
X182650000Y-98500000D01*
X175014552Y-94807000D02*
X175664552Y-95457000D01*
X171284552Y-94807000D02*
X175014552Y-94807000D01*
X170450000Y-93972448D02*
X171284552Y-94807000D01*
X178903000Y-95457000D02*
X181946000Y-98500000D01*
X170450000Y-93750000D02*
X170450000Y-93972448D01*
%TO.N,/iso/DD+*%
X180408448Y-96500000D02*
X182650000Y-96500000D01*
X179038448Y-95130000D02*
X180408448Y-96500000D01*
X175150000Y-94480000D02*
X175800000Y-95130000D01*
X171420000Y-94480000D02*
X175150000Y-94480000D01*
X175800000Y-95130000D02*
X179038448Y-95130000D01*
X171100000Y-94160000D02*
X171420000Y-94480000D01*
X171100000Y-93750000D02*
X171100000Y-94160000D01*
D20*
%TO.N,/dcdc/5Vout*%
X165900000Y-92970000D02*
X165900000Y-93750000D01*
X165350000Y-92420000D02*
X165900000Y-92970000D01*
%TO.N,/dcdc/GND2*%
X172240000Y-92500000D02*
X176550000Y-92500000D01*
X171190000Y-91450000D02*
X172240000Y-92500000D01*
X171750000Y-92010000D02*
X171750000Y-93750000D01*
X171190000Y-91450000D02*
X171750000Y-92010000D01*
X169830000Y-91450000D02*
X171190000Y-91450000D01*
X164920000Y-91460000D02*
X164380000Y-92000000D01*
X166115552Y-91460000D02*
X164920000Y-91460000D01*
X166535552Y-91880000D02*
X166115552Y-91460000D01*
X167850000Y-93750000D02*
X167850000Y-91410000D01*
X167005552Y-91410000D02*
X166535552Y-91880000D01*
X169790000Y-91410000D02*
X167005552Y-91410000D01*
X169830000Y-91450000D02*
X169790000Y-91410000D01*
%TO.N,/dcdc/GND1*%
X171750000Y-99550000D02*
X171750000Y-101560000D01*
X168570000Y-100220000D02*
X168500000Y-100150000D01*
X168570000Y-101710000D02*
X168570000Y-100220000D01*
X167840000Y-100160000D02*
X167850000Y-100150000D01*
X167840000Y-101710000D02*
X167840000Y-100160000D01*
X169150000Y-101590000D02*
X169150000Y-99550000D01*
X169350000Y-101790000D02*
X169150000Y-101590000D01*
X169800000Y-101200000D02*
X169800000Y-99550000D01*
X170100000Y-101500000D02*
X169800000Y-101200000D01*
X166550000Y-101460000D02*
X166550000Y-99550000D01*
X166530000Y-101480000D02*
X166550000Y-101460000D01*
%TO.N,/iso/VDD1*%
X167200000Y-99550000D02*
X167200000Y-98746000D01*
X167127000Y-98673000D02*
X162317000Y-98673000D01*
X162317000Y-98673000D02*
X161650000Y-99340000D01*
X167200000Y-98746000D02*
X167127000Y-98673000D01*
%TO.N,/iso/VDD2*%
X167200000Y-93750000D02*
X167200000Y-94650000D01*
X167200000Y-94650000D02*
X164442000Y-94650000D01*
X164196000Y-94404000D02*
X161776000Y-94404000D01*
X161776000Y-94404000D02*
X161650000Y-94530000D01*
X164442000Y-94650000D02*
X164196000Y-94404000D01*
D19*
%TO.N,Net-(U1-XI2)*%
X172610000Y-95640000D02*
X175390000Y-98420000D01*
X175390000Y-98420000D02*
X175570000Y-98420000D01*
X168500000Y-93750000D02*
X168500000Y-94160580D01*
X169979420Y-95640000D02*
X172610000Y-95640000D01*
X176500000Y-99590000D02*
X177600000Y-100690000D01*
X175570000Y-98420000D02*
X176500000Y-99350000D01*
X168500000Y-94160580D02*
X169979420Y-95640000D01*
X176500000Y-99350000D02*
X176500000Y-99590000D01*
%TO.N,Net-(U1-XO2)*%
X178700000Y-97650000D02*
X179627000Y-98577000D01*
X169150000Y-94348132D02*
X170114868Y-95313000D01*
X172745448Y-95313000D02*
X174222448Y-96790000D01*
X170114868Y-95313000D02*
X172745448Y-95313000D01*
X179627000Y-98577000D02*
X179627000Y-100177000D01*
X179627000Y-100177000D02*
X179114000Y-100690000D01*
X179114000Y-100690000D02*
X179000000Y-100690000D01*
X177840000Y-96790000D02*
X178700000Y-97650000D01*
X169150000Y-93750000D02*
X169150000Y-94348132D01*
X174222448Y-96790000D02*
X177840000Y-96790000D01*
%TO.N,/iso/D+*%
X143950000Y-96500000D02*
X142350000Y-96500000D01*
X169621580Y-98097000D02*
X170450000Y-98925420D01*
X162060102Y-98097000D02*
X169621580Y-98097000D01*
X145250000Y-97800000D02*
X143950000Y-96500000D01*
X170450000Y-98925420D02*
X170450000Y-99550000D01*
X149350000Y-99500000D02*
X150130000Y-100280000D01*
X149350000Y-99000000D02*
X149350000Y-99500000D01*
X159877102Y-100280000D02*
X162060102Y-98097000D01*
X145650000Y-97800000D02*
X145250000Y-97800000D01*
X150130000Y-100280000D02*
X159877102Y-100280000D01*
%TO.N,/iso/D-*%
X161924654Y-97770000D02*
X169757028Y-97770000D01*
X171100000Y-99112972D02*
X171100000Y-99550000D01*
X150476874Y-99953000D02*
X159741654Y-99953000D01*
X169757028Y-97770000D02*
X171100000Y-99112972D01*
X159741654Y-99953000D02*
X161924654Y-97770000D01*
X145700000Y-98500000D02*
X142350000Y-98500000D01*
X149936937Y-99413063D02*
X150476874Y-99953000D01*
D20*
%TO.N,/dcdc/GND1*%
X161650000Y-100300000D02*
X161650000Y-101200000D01*
X148723000Y-94903000D02*
X146320000Y-92500000D01*
X148700000Y-95800000D02*
X148723000Y-95777000D01*
X167850000Y-100360000D02*
X167850000Y-99550000D01*
X160700000Y-101200000D02*
X151450000Y-101200000D01*
X151450000Y-101200000D02*
X150000000Y-101200000D01*
X148723000Y-95777000D02*
X148723000Y-94903000D01*
X160700000Y-101200000D02*
X161650000Y-101200000D01*
X150000000Y-101200000D02*
X148723000Y-99923000D01*
X146320000Y-92500000D02*
X145100000Y-92500000D01*
X168500000Y-99550000D02*
X168500000Y-100480000D01*
X164002999Y-99898000D02*
X162602000Y-99898000D01*
X168500000Y-100480000D02*
X168490000Y-100490000D01*
X162300000Y-100200000D02*
X162200000Y-100300000D01*
X162200000Y-100300000D02*
X161650000Y-100300000D01*
X145100000Y-92500000D02*
X142350000Y-92500000D01*
X162602000Y-99898000D02*
X162300000Y-100200000D01*
X148723000Y-95823000D02*
X148700000Y-95800000D01*
X148723000Y-99923000D02*
X148723000Y-95823000D01*
%TO.N,/dcdc/5Vin*%
X160310000Y-102550000D02*
X160700000Y-102160000D01*
X147150000Y-100900000D02*
X148800000Y-102550000D01*
X160700000Y-102160000D02*
X161650000Y-102160000D01*
X148800000Y-102550000D02*
X160310000Y-102550000D01*
X149740000Y-95090000D02*
X150173000Y-95523000D01*
X163290000Y-102160000D02*
X165900000Y-99550000D01*
X150173000Y-96463000D02*
X151310000Y-97600000D01*
X161650000Y-102160000D02*
X163290000Y-102160000D01*
X150173000Y-95523000D02*
X150173000Y-96463000D01*
%TO.N,/dcdc/GND2*%
X164380000Y-92920000D02*
X164380000Y-92000000D01*
X164120000Y-91740000D02*
X164380000Y-92000000D01*
X176550000Y-92500000D02*
X182650000Y-92500000D01*
X178350000Y-101650000D02*
X179000000Y-101650000D01*
X163523000Y-93777000D02*
X164380000Y-92920000D01*
X157060000Y-91740000D02*
X164120000Y-91740000D01*
X153850000Y-97600000D02*
X153850000Y-94950000D01*
X166550000Y-93750000D02*
X166550000Y-91865552D01*
X166550000Y-91865552D02*
X166535552Y-91880000D01*
X178346000Y-99350000D02*
X177500000Y-98504000D01*
X178313000Y-99737000D02*
X178700000Y-99350000D01*
X178350000Y-101650000D02*
X178313000Y-101613000D01*
X154790000Y-94870000D02*
X153930000Y-94870000D01*
X176646000Y-97650000D02*
X176500000Y-97650000D01*
X177500000Y-98500000D02*
X177496000Y-98500000D01*
X161650000Y-93570000D02*
X161857000Y-93777000D01*
X178300000Y-101650000D02*
X178350000Y-101650000D01*
X177496000Y-98500000D02*
X176646000Y-97650000D01*
X153930000Y-94870000D02*
X153850000Y-94950000D01*
X178700000Y-99350000D02*
X178346000Y-99350000D01*
X153850000Y-94950000D02*
X157060000Y-91740000D01*
X177500000Y-98504000D02*
X177500000Y-98500000D01*
X178313000Y-101613000D02*
X178313000Y-99737000D01*
X161857000Y-93777000D02*
X163523000Y-93777000D01*
X177600000Y-101650000D02*
X178300000Y-101650000D01*
%TO.N,/dcdc/5Vout*%
X156310000Y-94870000D02*
X156390000Y-94950000D01*
X160700000Y-92700000D02*
X158640000Y-92700000D01*
X161650000Y-92700000D02*
X160700000Y-92700000D01*
X155750000Y-94870000D02*
X156310000Y-94870000D01*
X163030000Y-92700000D02*
X161650000Y-92700000D01*
X156390000Y-94950000D02*
X156390000Y-97600000D01*
X158640000Y-92700000D02*
X156390000Y-94950000D01*
%TD*%
%TA.AperFunction,Conductor*%
%TO.N,/dcdc/GND1*%
G36*
X151193039Y-90220185D02*
G01*
X151238794Y-90272989D01*
X151250000Y-90324500D01*
X151250000Y-96437939D01*
X151230315Y-96504978D01*
X151177511Y-96550733D01*
X151138156Y-96561342D01*
X151104069Y-96564699D01*
X151104064Y-96564700D01*
X151027672Y-96587873D01*
X150957805Y-96588496D01*
X150903997Y-96556893D01*
X150659819Y-96312715D01*
X150626334Y-96251392D01*
X150623500Y-96225034D01*
X150623500Y-95551782D01*
X150623889Y-95544843D01*
X150628270Y-95505965D01*
X150617211Y-95447520D01*
X150608348Y-95388713D01*
X150608347Y-95388711D01*
X150605836Y-95380571D01*
X150603024Y-95372533D01*
X150603023Y-95372528D01*
X150575226Y-95319936D01*
X150549425Y-95266358D01*
X150549422Y-95266355D01*
X150549421Y-95266352D01*
X150544642Y-95259342D01*
X150539568Y-95252469D01*
X150539565Y-95252462D01*
X150497516Y-95210413D01*
X150457055Y-95166806D01*
X150449792Y-95161014D01*
X150450312Y-95160361D01*
X150438067Y-95150964D01*
X150256818Y-94969715D01*
X150223333Y-94908392D01*
X150220499Y-94882034D01*
X150220499Y-94880105D01*
X150220499Y-94880100D01*
X150213972Y-94830513D01*
X150163224Y-94721684D01*
X150078316Y-94636776D01*
X149969487Y-94586028D01*
X149969485Y-94586027D01*
X149969486Y-94586027D01*
X149919902Y-94579500D01*
X149560102Y-94579500D01*
X149551746Y-94580600D01*
X149550459Y-94580769D01*
X149481425Y-94570001D01*
X149435964Y-94529648D01*
X149434499Y-94530785D01*
X149429714Y-94524616D01*
X149315383Y-94410285D01*
X149315374Y-94410278D01*
X149176193Y-94327967D01*
X149176190Y-94327965D01*
X149030001Y-94285493D01*
X149030000Y-94285494D01*
X149030000Y-95894503D01*
X149176195Y-95852031D01*
X149315374Y-95769721D01*
X149315383Y-95769714D01*
X149429714Y-95655383D01*
X149434499Y-95649215D01*
X149436459Y-95650735D01*
X149478583Y-95611382D01*
X149547321Y-95598858D01*
X149550443Y-95599228D01*
X149560099Y-95600500D01*
X149562015Y-95600499D01*
X149562564Y-95600661D01*
X149564150Y-95600765D01*
X149564126Y-95601119D01*
X149629055Y-95620172D01*
X149649714Y-95636818D01*
X149686181Y-95673285D01*
X149719666Y-95734608D01*
X149722500Y-95760966D01*
X149722500Y-96126000D01*
X149702815Y-96193039D01*
X149650011Y-96238794D01*
X149598500Y-96250000D01*
X149020000Y-96250000D01*
X149020000Y-97164498D01*
X148912315Y-97115320D01*
X148805763Y-97100000D01*
X148734237Y-97100000D01*
X148627685Y-97115320D01*
X148520000Y-97164498D01*
X148520000Y-96250000D01*
X147872155Y-96250000D01*
X147812627Y-96256401D01*
X147812620Y-96256403D01*
X147677913Y-96306645D01*
X147677906Y-96306649D01*
X147562812Y-96392809D01*
X147562809Y-96392812D01*
X147476649Y-96507906D01*
X147476645Y-96507913D01*
X147426403Y-96642620D01*
X147426401Y-96642627D01*
X147420000Y-96702155D01*
X147420000Y-97350000D01*
X148336314Y-97350000D01*
X148310507Y-97390156D01*
X148270000Y-97528111D01*
X148270000Y-97671889D01*
X148310507Y-97809844D01*
X148336314Y-97850000D01*
X147420000Y-97850000D01*
X147420000Y-98497844D01*
X147426401Y-98557372D01*
X147426403Y-98557379D01*
X147476645Y-98692086D01*
X147476649Y-98692093D01*
X147562809Y-98807187D01*
X147562812Y-98807190D01*
X147677906Y-98893350D01*
X147677913Y-98893354D01*
X147812620Y-98943596D01*
X147812627Y-98943598D01*
X147872155Y-98949999D01*
X147872172Y-98950000D01*
X148520000Y-98950000D01*
X148520000Y-98035501D01*
X148627685Y-98084680D01*
X148734237Y-98100000D01*
X148805763Y-98100000D01*
X148912315Y-98084680D01*
X149020000Y-98035501D01*
X149020000Y-98646658D01*
X149000315Y-98713697D01*
X148989714Y-98727859D01*
X148967119Y-98753935D01*
X148967116Y-98753939D01*
X148913302Y-98871774D01*
X148894867Y-99000000D01*
X148913302Y-99128225D01*
X148946309Y-99200499D01*
X148967118Y-99246063D01*
X149019214Y-99306186D01*
X149048238Y-99369738D01*
X149049500Y-99387386D01*
X149049500Y-99437158D01*
X149048905Y-99445732D01*
X149047227Y-99457763D01*
X149049434Y-99505509D01*
X149049500Y-99508372D01*
X149049500Y-99527845D01*
X149049993Y-99530482D01*
X149050982Y-99539015D01*
X149052415Y-99569991D01*
X149052416Y-99569997D01*
X149055214Y-99576334D01*
X149063664Y-99603620D01*
X149064937Y-99610429D01*
X149064937Y-99610430D01*
X149064939Y-99610433D01*
X149076841Y-99629657D01*
X149081260Y-99636793D01*
X149085263Y-99644386D01*
X149097794Y-99672765D01*
X149097795Y-99672766D01*
X149097796Y-99672768D01*
X149102689Y-99677661D01*
X149120435Y-99700065D01*
X149124077Y-99705948D01*
X149124080Y-99705951D01*
X149148826Y-99724639D01*
X149155311Y-99730282D01*
X149873081Y-100448053D01*
X149878723Y-100454537D01*
X149886039Y-100464224D01*
X149886040Y-100464225D01*
X149886042Y-100464228D01*
X149900502Y-100477410D01*
X149921364Y-100496429D01*
X149923412Y-100498384D01*
X149937203Y-100512175D01*
X149938663Y-100513175D01*
X149939419Y-100513693D01*
X149946155Y-100519029D01*
X149953415Y-100525647D01*
X149969063Y-100539913D01*
X149969064Y-100539914D01*
X149969067Y-100539916D01*
X149969070Y-100539917D01*
X149975521Y-100542416D01*
X150000806Y-100555743D01*
X150001231Y-100556034D01*
X150006520Y-100559657D01*
X150036703Y-100566756D01*
X150044911Y-100569298D01*
X150073825Y-100580500D01*
X150073827Y-100580500D01*
X150080752Y-100580500D01*
X150109140Y-100583793D01*
X150115881Y-100585379D01*
X150146594Y-100581094D01*
X150155167Y-100580500D01*
X159814261Y-100580500D01*
X159822835Y-100581095D01*
X159834861Y-100582772D01*
X159834863Y-100582771D01*
X159834867Y-100582773D01*
X159845947Y-100582260D01*
X159913821Y-100598827D01*
X159961967Y-100649461D01*
X159975094Y-100718087D01*
X159958405Y-100769248D01*
X159937968Y-100803805D01*
X159895496Y-100950000D01*
X160450000Y-100950000D01*
X160450000Y-100550000D01*
X160950000Y-100550000D01*
X160950000Y-100950000D01*
X161400000Y-100950000D01*
X161400000Y-100550000D01*
X161900000Y-100550000D01*
X161900000Y-100950000D01*
X162454504Y-100950000D01*
X162412031Y-100803803D01*
X162410060Y-100799248D01*
X162401500Y-100729904D01*
X162410060Y-100700752D01*
X162412031Y-100696196D01*
X162454504Y-100550000D01*
X161900000Y-100550000D01*
X161400000Y-100550000D01*
X160950000Y-100550000D01*
X160450000Y-100550000D01*
X160450000Y-100421210D01*
X160441410Y-100413270D01*
X160402864Y-100405172D01*
X160353108Y-100356119D01*
X160337770Y-100287954D01*
X160361720Y-100222317D01*
X160373826Y-100208245D01*
X160632347Y-99949724D01*
X160693668Y-99916241D01*
X160763360Y-99921225D01*
X160819293Y-99963097D01*
X160843710Y-100028561D01*
X160841938Y-100045263D01*
X160845495Y-100050000D01*
X162454504Y-100050000D01*
X162412031Y-99903804D01*
X162329721Y-99764625D01*
X162329714Y-99764616D01*
X162215381Y-99650283D01*
X162209217Y-99645502D01*
X162210733Y-99643547D01*
X162171363Y-99601378D01*
X162158862Y-99532635D01*
X162159226Y-99529576D01*
X162160500Y-99519901D01*
X162160499Y-99517982D01*
X162160661Y-99517433D01*
X162160765Y-99515850D01*
X162161118Y-99515873D01*
X162180172Y-99450943D01*
X162196809Y-99430293D01*
X162467286Y-99159816D01*
X162528608Y-99126334D01*
X162554966Y-99123500D01*
X165329612Y-99123500D01*
X165396651Y-99143185D01*
X165442406Y-99195989D01*
X165452551Y-99263685D01*
X165449500Y-99286860D01*
X165449500Y-99312034D01*
X165429815Y-99379073D01*
X165413181Y-99399715D01*
X163139716Y-101673181D01*
X163078393Y-101706666D01*
X163052035Y-101709500D01*
X162544266Y-101709500D01*
X162477227Y-101689815D01*
X162431472Y-101637011D01*
X162421528Y-101567853D01*
X162425189Y-101550906D01*
X162454504Y-101450000D01*
X159895496Y-101450000D01*
X159937968Y-101596195D01*
X160020278Y-101735374D01*
X160020285Y-101735383D01*
X160134616Y-101849714D01*
X160140785Y-101854499D01*
X160139265Y-101856457D01*
X160178625Y-101898599D01*
X160191139Y-101967339D01*
X160190769Y-101970461D01*
X160189499Y-101980108D01*
X160189269Y-101983617D01*
X160165238Y-102049224D01*
X160109553Y-102091424D01*
X160065535Y-102099500D01*
X149037965Y-102099500D01*
X148970926Y-102079815D01*
X148950284Y-102063181D01*
X148242051Y-101354948D01*
X147481493Y-100594390D01*
X147478490Y-100591164D01*
X147448050Y-100556034D01*
X147448049Y-100556033D01*
X147426861Y-100542416D01*
X147407483Y-100529962D01*
X147404187Y-100527690D01*
X147362882Y-100497206D01*
X147362692Y-100497140D01*
X147347187Y-100489575D01*
X147347139Y-100489682D01*
X147339071Y-100485997D01*
X147339069Y-100485996D01*
X147326858Y-100482410D01*
X147289458Y-100471428D01*
X147286449Y-100470461D01*
X147234699Y-100452353D01*
X147225570Y-100450626D01*
X147225612Y-100450401D01*
X147223645Y-100450081D01*
X147223548Y-100450762D01*
X147214773Y-100449500D01*
X147214772Y-100449500D01*
X147214770Y-100449500D01*
X147158426Y-100449500D01*
X147098990Y-100447275D01*
X147097905Y-100447397D01*
X147093351Y-100448332D01*
X147085229Y-100449499D01*
X147028231Y-100466235D01*
X146967812Y-100482424D01*
X146966956Y-100482797D01*
X146961572Y-100485702D01*
X146960936Y-100485992D01*
X146908345Y-100519790D01*
X146852826Y-100554675D01*
X146852824Y-100554677D01*
X146841581Y-100567742D01*
X146809070Y-100605519D01*
X146767118Y-100653937D01*
X146765394Y-100655927D01*
X146764798Y-100656725D01*
X146764241Y-100657612D01*
X146738616Y-100716346D01*
X146713301Y-100771777D01*
X146712076Y-100775948D01*
X146710178Y-100781171D01*
X146709935Y-100782080D01*
X146703105Y-100842702D01*
X146694867Y-100900000D01*
X146694867Y-100912331D01*
X146694678Y-100915681D01*
X146694729Y-100917030D01*
X146705501Y-100973965D01*
X146713303Y-101028229D01*
X146715800Y-101036731D01*
X146715422Y-101036841D01*
X146717551Y-101043541D01*
X146719976Y-101050472D01*
X146744787Y-101097415D01*
X146746369Y-101100630D01*
X146767116Y-101146061D01*
X146769115Y-101149171D01*
X146782408Y-101168597D01*
X146783432Y-101170535D01*
X146783436Y-101170540D01*
X146818498Y-101205602D01*
X146821515Y-101208842D01*
X146851951Y-101243967D01*
X146854480Y-101245592D01*
X146875125Y-101262229D01*
X148200715Y-102587819D01*
X148234200Y-102649142D01*
X148229216Y-102718834D01*
X148187344Y-102774767D01*
X148121880Y-102799184D01*
X148113034Y-102799500D01*
X142002038Y-102799500D01*
X141997982Y-102799367D01*
X141769170Y-102784370D01*
X141761121Y-102783310D01*
X141538246Y-102738977D01*
X141530404Y-102736876D01*
X141391329Y-102689666D01*
X141315207Y-102663826D01*
X141307718Y-102660724D01*
X141103897Y-102560211D01*
X141096867Y-102556152D01*
X140907916Y-102429899D01*
X140901480Y-102424961D01*
X140730617Y-102275119D01*
X140724878Y-102269380D01*
X140575036Y-102098516D01*
X140570104Y-102092088D01*
X140443847Y-101903132D01*
X140439790Y-101896107D01*
X140339271Y-101692274D01*
X140336174Y-101684794D01*
X140329065Y-101663855D01*
X140326158Y-101594048D01*
X140361453Y-101533748D01*
X140423745Y-101502103D01*
X140446486Y-101500000D01*
X144000000Y-101500000D01*
X144000000Y-101324500D01*
X144019685Y-101257461D01*
X144072489Y-101211706D01*
X144113846Y-101202708D01*
X144113688Y-101201097D01*
X144119742Y-101200500D01*
X144119748Y-101200500D01*
X144134568Y-101197552D01*
X144178229Y-101188868D01*
X144178229Y-101188867D01*
X144178231Y-101188867D01*
X144244552Y-101144552D01*
X144288867Y-101078231D01*
X144288867Y-101078229D01*
X144288868Y-101078229D01*
X144300499Y-101019752D01*
X144300500Y-101019750D01*
X144300500Y-99980249D01*
X144300499Y-99980247D01*
X144288868Y-99921770D01*
X144288867Y-99921769D01*
X144244552Y-99855447D01*
X144178230Y-99811132D01*
X144178229Y-99811131D01*
X144119752Y-99799500D01*
X144113688Y-99798903D01*
X144113920Y-99796540D01*
X144056961Y-99779815D01*
X144011206Y-99727011D01*
X144000000Y-99675500D01*
X144000000Y-99324500D01*
X144019685Y-99257461D01*
X144072489Y-99211706D01*
X144113846Y-99202708D01*
X144113688Y-99201097D01*
X144119742Y-99200500D01*
X144119748Y-99200500D01*
X144134568Y-99197552D01*
X144178229Y-99188868D01*
X144178229Y-99188867D01*
X144178231Y-99188867D01*
X144244552Y-99144552D01*
X144288867Y-99078231D01*
X144288867Y-99078229D01*
X144288868Y-99078229D01*
X144300499Y-99019752D01*
X144300500Y-99019750D01*
X144300500Y-98924500D01*
X144320185Y-98857461D01*
X144372989Y-98811706D01*
X144424500Y-98800500D01*
X145307657Y-98800500D01*
X145374696Y-98820185D01*
X145401369Y-98843296D01*
X145401949Y-98843965D01*
X145401951Y-98843967D01*
X145510931Y-98914004D01*
X145635225Y-98950499D01*
X145635227Y-98950500D01*
X145635228Y-98950500D01*
X145764773Y-98950500D01*
X145764773Y-98950499D01*
X145889069Y-98914004D01*
X145998049Y-98843967D01*
X146082882Y-98746063D01*
X146136697Y-98628226D01*
X146155133Y-98500000D01*
X146136697Y-98371774D01*
X146082882Y-98253937D01*
X146082880Y-98253935D01*
X146082879Y-98253932D01*
X146038182Y-98202348D01*
X146009158Y-98138792D01*
X146019102Y-98069634D01*
X146029062Y-98054150D01*
X146028087Y-98053524D01*
X146032877Y-98046068D01*
X146032882Y-98046063D01*
X146086697Y-97928226D01*
X146105133Y-97800000D01*
X146086697Y-97671774D01*
X146032882Y-97553937D01*
X145948049Y-97456033D01*
X145839069Y-97385996D01*
X145839065Y-97385994D01*
X145839064Y-97385994D01*
X145714774Y-97349500D01*
X145714772Y-97349500D01*
X145585228Y-97349500D01*
X145585226Y-97349500D01*
X145460933Y-97385994D01*
X145460932Y-97385995D01*
X145423260Y-97410205D01*
X145356220Y-97429889D01*
X145289181Y-97410203D01*
X145268541Y-97393570D01*
X144336819Y-96461848D01*
X144303334Y-96400525D01*
X144300500Y-96374167D01*
X144300500Y-95980249D01*
X144300499Y-95980247D01*
X144288868Y-95921770D01*
X144288867Y-95921769D01*
X144244552Y-95855447D01*
X144178230Y-95811132D01*
X144178229Y-95811131D01*
X144119752Y-95799500D01*
X144113688Y-95798903D01*
X144113920Y-95796540D01*
X144056961Y-95779815D01*
X144011206Y-95727011D01*
X144000000Y-95675500D01*
X144000000Y-95340000D01*
X148001210Y-95340000D01*
X148002854Y-95360910D01*
X148047968Y-95516195D01*
X148130278Y-95655374D01*
X148130285Y-95655383D01*
X148244616Y-95769714D01*
X148244625Y-95769721D01*
X148383804Y-95852031D01*
X148530000Y-95894504D01*
X148530000Y-95340000D01*
X148001210Y-95340000D01*
X144000000Y-95340000D01*
X144000000Y-95324500D01*
X144019685Y-95257461D01*
X144072489Y-95211706D01*
X144113846Y-95202708D01*
X144113688Y-95201097D01*
X144119742Y-95200500D01*
X144119748Y-95200500D01*
X144134568Y-95197552D01*
X144178229Y-95188868D01*
X144178229Y-95188867D01*
X144178231Y-95188867D01*
X144244552Y-95144552D01*
X144288867Y-95078231D01*
X144288867Y-95078229D01*
X144288868Y-95078229D01*
X144297693Y-95033862D01*
X144300500Y-95019748D01*
X144300500Y-94839999D01*
X148001209Y-94839999D01*
X148001210Y-94840000D01*
X148530000Y-94840000D01*
X148530000Y-94285494D01*
X148529998Y-94285493D01*
X148383809Y-94327965D01*
X148383806Y-94327967D01*
X148244625Y-94410278D01*
X148244616Y-94410285D01*
X148130285Y-94524616D01*
X148130278Y-94524625D01*
X148047968Y-94663804D01*
X148047966Y-94663809D01*
X148002855Y-94819081D01*
X148002854Y-94819087D01*
X148001209Y-94839999D01*
X144300500Y-94839999D01*
X144300500Y-93980252D01*
X144300500Y-93980249D01*
X144300499Y-93980247D01*
X144288868Y-93921770D01*
X144288867Y-93921769D01*
X144244552Y-93855447D01*
X144178230Y-93811132D01*
X144178229Y-93811131D01*
X144119752Y-93799500D01*
X144113688Y-93798903D01*
X144113920Y-93796540D01*
X144056961Y-93779815D01*
X144011206Y-93727011D01*
X144000000Y-93675500D01*
X144000000Y-93324000D01*
X144019685Y-93256961D01*
X144072489Y-93211206D01*
X144113796Y-93202219D01*
X144113637Y-93200597D01*
X144119702Y-93199999D01*
X144178033Y-93188397D01*
X144178034Y-93188396D01*
X144244191Y-93144191D01*
X144288396Y-93078034D01*
X144288397Y-93078033D01*
X144299999Y-93019702D01*
X144300000Y-93019699D01*
X144300000Y-91980301D01*
X144299999Y-91980297D01*
X144288397Y-91921966D01*
X144288396Y-91921965D01*
X144244191Y-91855808D01*
X144178034Y-91811603D01*
X144178033Y-91811602D01*
X144119702Y-91800000D01*
X144113637Y-91799403D01*
X144113871Y-91797025D01*
X144056961Y-91780315D01*
X144011206Y-91727511D01*
X144000000Y-91676000D01*
X144000000Y-91500000D01*
X140446486Y-91500000D01*
X140379447Y-91480315D01*
X140333692Y-91427511D01*
X140323748Y-91358353D01*
X140329062Y-91336153D01*
X140336178Y-91315191D01*
X140339271Y-91307725D01*
X140439793Y-91103885D01*
X140443847Y-91096867D01*
X140444937Y-91095236D01*
X140570109Y-90907903D01*
X140575030Y-90901490D01*
X140724887Y-90730609D01*
X140730609Y-90724887D01*
X140901490Y-90575030D01*
X140907903Y-90570109D01*
X141096872Y-90443844D01*
X141103885Y-90439793D01*
X141307730Y-90339269D01*
X141315194Y-90336177D01*
X141530407Y-90263122D01*
X141538243Y-90261022D01*
X141761136Y-90216686D01*
X141769165Y-90215629D01*
X141843393Y-90210764D01*
X141997982Y-90200633D01*
X142002038Y-90200500D01*
X142039882Y-90200500D01*
X151126000Y-90200500D01*
X151193039Y-90220185D01*
G37*
%TD.AperFunction*%
%TA.AperFunction,Conductor*%
G36*
X171315677Y-97469685D02*
G01*
X171336319Y-97486319D01*
X174963681Y-101113681D01*
X174997166Y-101175004D01*
X175000000Y-101201362D01*
X175000000Y-102675500D01*
X174980315Y-102742539D01*
X174927511Y-102788294D01*
X174876000Y-102799500D01*
X163544112Y-102799500D01*
X163477073Y-102779815D01*
X163431318Y-102727011D01*
X163421374Y-102657853D01*
X163450399Y-102594297D01*
X163486168Y-102565871D01*
X163493072Y-102562222D01*
X163546642Y-102536425D01*
X163546644Y-102536422D01*
X163553695Y-102531616D01*
X163560538Y-102526566D01*
X163602600Y-102484503D01*
X163646194Y-102444055D01*
X163646196Y-102444050D01*
X163651987Y-102436790D01*
X163652643Y-102437313D01*
X163662032Y-102425070D01*
X165237821Y-100849281D01*
X165299142Y-100815798D01*
X165368834Y-100820782D01*
X165424767Y-100862654D01*
X165449184Y-100928118D01*
X165449500Y-100936962D01*
X165449500Y-101013132D01*
X165449501Y-101013138D01*
X165455741Y-101060545D01*
X165455742Y-101060547D01*
X165455742Y-101060548D01*
X165463988Y-101078231D01*
X165504253Y-101164579D01*
X165585421Y-101245747D01*
X165689455Y-101294259D01*
X165736861Y-101300500D01*
X165820654Y-101300499D01*
X165887691Y-101320183D01*
X165921728Y-101355505D01*
X165922448Y-101354948D01*
X165927232Y-101361116D01*
X166038883Y-101472767D01*
X166038891Y-101472773D01*
X166174808Y-101553154D01*
X166174814Y-101553156D01*
X166299999Y-101589525D01*
X166300000Y-101589525D01*
X166300000Y-101182948D01*
X166311618Y-101130543D01*
X166319481Y-101113681D01*
X166344259Y-101060545D01*
X166350500Y-101013139D01*
X166350499Y-100023998D01*
X166370183Y-99956961D01*
X166422987Y-99911206D01*
X166474499Y-99900000D01*
X166625500Y-99900000D01*
X166692539Y-99919685D01*
X166738294Y-99972489D01*
X166749500Y-100024000D01*
X166749500Y-101013132D01*
X166749501Y-101013138D01*
X166755741Y-101060545D01*
X166755742Y-101060547D01*
X166755742Y-101060548D01*
X166788382Y-101130543D01*
X166800000Y-101182948D01*
X166800000Y-101589525D01*
X166925185Y-101553156D01*
X166925191Y-101553154D01*
X167061108Y-101472773D01*
X167061116Y-101472767D01*
X167112319Y-101421565D01*
X167173642Y-101388080D01*
X167243334Y-101393064D01*
X167287681Y-101421565D01*
X167338883Y-101472767D01*
X167338891Y-101472773D01*
X167474808Y-101553154D01*
X167474814Y-101553156D01*
X167599999Y-101589525D01*
X167600000Y-101589525D01*
X167600000Y-101182948D01*
X167611618Y-101130543D01*
X167619481Y-101113681D01*
X167644259Y-101060545D01*
X167650500Y-101013139D01*
X167650499Y-100400000D01*
X168100000Y-100400000D01*
X168100000Y-101589525D01*
X168140404Y-101577787D01*
X168209596Y-101577787D01*
X168250000Y-101589525D01*
X168250000Y-100400000D01*
X168750000Y-100400000D01*
X168750000Y-101589525D01*
X168790404Y-101577787D01*
X168859596Y-101577787D01*
X168900000Y-101589525D01*
X168900000Y-100400000D01*
X169400000Y-100400000D01*
X169400000Y-101589525D01*
X169440404Y-101577787D01*
X169509596Y-101577787D01*
X169550000Y-101589525D01*
X169550000Y-100400000D01*
X169400000Y-100400000D01*
X168900000Y-100400000D01*
X168750000Y-100400000D01*
X168250000Y-100400000D01*
X168100000Y-100400000D01*
X167650499Y-100400000D01*
X167650499Y-99900000D01*
X168100000Y-99900000D01*
X168250000Y-99900000D01*
X168750000Y-99900000D01*
X168900000Y-99900000D01*
X168900000Y-98710472D01*
X168899999Y-98710472D01*
X168859595Y-98722211D01*
X168790405Y-98722211D01*
X168750000Y-98710472D01*
X168750000Y-99900000D01*
X168250000Y-99900000D01*
X168250000Y-98710472D01*
X168249999Y-98710472D01*
X168209595Y-98722211D01*
X168140405Y-98722211D01*
X168100000Y-98710472D01*
X168100000Y-99900000D01*
X167650499Y-99900000D01*
X167650499Y-99632343D01*
X167650500Y-99632335D01*
X167650500Y-98774781D01*
X167650889Y-98767844D01*
X167655270Y-98728965D01*
X167644210Y-98670511D01*
X167635348Y-98611713D01*
X167635347Y-98611711D01*
X167635347Y-98611709D01*
X167632831Y-98603552D01*
X167630023Y-98595527D01*
X167621522Y-98579441D01*
X167607600Y-98510973D01*
X167632905Y-98445846D01*
X167689403Y-98404740D01*
X167731152Y-98397500D01*
X169445747Y-98397500D01*
X169512786Y-98417185D01*
X169533428Y-98433819D01*
X169603271Y-98503662D01*
X169636756Y-98564985D01*
X169631772Y-98634677D01*
X169589900Y-98690610D01*
X169550184Y-98710420D01*
X169509595Y-98722212D01*
X169440406Y-98722211D01*
X169400000Y-98710472D01*
X169400000Y-99900000D01*
X169875500Y-99900000D01*
X169942539Y-99919685D01*
X169988294Y-99972489D01*
X169999500Y-100024000D01*
X169999500Y-101013132D01*
X169999501Y-101013138D01*
X170005741Y-101060545D01*
X170005742Y-101060547D01*
X170005742Y-101060548D01*
X170038382Y-101130543D01*
X170050000Y-101182948D01*
X170050000Y-101589525D01*
X170175185Y-101553156D01*
X170175191Y-101553154D01*
X170311108Y-101472773D01*
X170311116Y-101472767D01*
X170422765Y-101361118D01*
X170427549Y-101354951D01*
X170428612Y-101355776D01*
X170473686Y-101313693D01*
X170529344Y-101300499D01*
X170613138Y-101300499D01*
X170660545Y-101294259D01*
X170722597Y-101265323D01*
X170791672Y-101254832D01*
X170827401Y-101265323D01*
X170889455Y-101294259D01*
X170936861Y-101300500D01*
X171020654Y-101300499D01*
X171087691Y-101320183D01*
X171121728Y-101355505D01*
X171122448Y-101354948D01*
X171127232Y-101361116D01*
X171238883Y-101472767D01*
X171238891Y-101472773D01*
X171374808Y-101553154D01*
X171374814Y-101553156D01*
X171499999Y-101589525D01*
X171500000Y-101589525D01*
X171500000Y-101182948D01*
X171511618Y-101130543D01*
X171519481Y-101113681D01*
X171544259Y-101060545D01*
X171550500Y-101013139D01*
X171550500Y-100400000D01*
X172000000Y-100400000D01*
X172000000Y-101589525D01*
X172125185Y-101553156D01*
X172125191Y-101553154D01*
X172261108Y-101472773D01*
X172261116Y-101472767D01*
X172372767Y-101361116D01*
X172372773Y-101361108D01*
X172453155Y-101225188D01*
X172453156Y-101225185D01*
X172497210Y-101073553D01*
X172497211Y-101073547D01*
X172500000Y-101038116D01*
X172500000Y-100400000D01*
X172000000Y-100400000D01*
X171550500Y-100400000D01*
X171550499Y-99286862D01*
X171544259Y-99239455D01*
X171538193Y-99226446D01*
X171511618Y-99169454D01*
X171500000Y-99117050D01*
X171500000Y-98710472D01*
X172000000Y-98710472D01*
X172000000Y-99900000D01*
X172500000Y-99900000D01*
X172500000Y-99261884D01*
X172497211Y-99226452D01*
X172497210Y-99226446D01*
X172453156Y-99074814D01*
X172453155Y-99074811D01*
X172372773Y-98938891D01*
X172372767Y-98938883D01*
X172261116Y-98827232D01*
X172261108Y-98827226D01*
X172125188Y-98746844D01*
X172125187Y-98746843D01*
X172000000Y-98710472D01*
X171500000Y-98710472D01*
X171374812Y-98746843D01*
X171374811Y-98746844D01*
X171321887Y-98778142D01*
X171254163Y-98795322D01*
X171187901Y-98773161D01*
X171171088Y-98759089D01*
X170073680Y-97661681D01*
X170040195Y-97600358D01*
X170045179Y-97530666D01*
X170087051Y-97474733D01*
X170152515Y-97450316D01*
X170161361Y-97450000D01*
X171248638Y-97450000D01*
X171315677Y-97469685D01*
G37*
%TD.AperFunction*%
%TA.AperFunction,Conductor*%
G36*
X161587359Y-97469685D02*
G01*
X161633114Y-97522489D01*
X161643058Y-97591647D01*
X161614033Y-97655203D01*
X161608001Y-97661681D01*
X159653502Y-99616181D01*
X159592179Y-99649666D01*
X159565821Y-99652500D01*
X158896862Y-99652500D01*
X158829823Y-99632815D01*
X158784068Y-99580011D01*
X158774124Y-99510853D01*
X158803149Y-99447297D01*
X158809181Y-99440819D01*
X160763681Y-97486319D01*
X160825004Y-97452834D01*
X160851362Y-97450000D01*
X161520320Y-97450000D01*
X161587359Y-97469685D01*
G37*
%TD.AperFunction*%
%TD*%
%TA.AperFunction,Conductor*%
%TO.N,/dcdc/GND2*%
G36*
X174905758Y-95127185D02*
G01*
X174926400Y-95143819D01*
X175407630Y-95625049D01*
X175413273Y-95631533D01*
X175420593Y-95641226D01*
X175420594Y-95641228D01*
X175445211Y-95663669D01*
X175455927Y-95673439D01*
X175457975Y-95675394D01*
X175471755Y-95689174D01*
X175473965Y-95690688D01*
X175480695Y-95696018D01*
X175490922Y-95705341D01*
X175503617Y-95716915D01*
X175503618Y-95716915D01*
X175503619Y-95716916D01*
X175510073Y-95719416D01*
X175535358Y-95732744D01*
X175539171Y-95735355D01*
X175541071Y-95736657D01*
X175571262Y-95743757D01*
X175579457Y-95746295D01*
X175608379Y-95757500D01*
X175615304Y-95757500D01*
X175643692Y-95760793D01*
X175650433Y-95762379D01*
X175681143Y-95758094D01*
X175689718Y-95757500D01*
X178727167Y-95757500D01*
X178794206Y-95777185D01*
X178814848Y-95793819D01*
X180731966Y-97710937D01*
X180765451Y-97772260D01*
X180760467Y-97841952D01*
X180747388Y-97867508D01*
X180711132Y-97921769D01*
X180711131Y-97921770D01*
X180699500Y-97980247D01*
X180699500Y-99019752D01*
X180711131Y-99078229D01*
X180711132Y-99078230D01*
X180755447Y-99144552D01*
X180821769Y-99188867D01*
X180821770Y-99188868D01*
X180879852Y-99200420D01*
X180880252Y-99200500D01*
X180880257Y-99200500D01*
X180886312Y-99201097D01*
X180886079Y-99203459D01*
X180943039Y-99220185D01*
X180988794Y-99272989D01*
X181000000Y-99324500D01*
X181000000Y-99675500D01*
X180980315Y-99742539D01*
X180927511Y-99788294D01*
X180886153Y-99797291D01*
X180886312Y-99798903D01*
X180880247Y-99799500D01*
X180821770Y-99811131D01*
X180821769Y-99811132D01*
X180755447Y-99855447D01*
X180711132Y-99921769D01*
X180711131Y-99921770D01*
X180699500Y-99980247D01*
X180699500Y-101019752D01*
X180711131Y-101078229D01*
X180711132Y-101078230D01*
X180755447Y-101144552D01*
X180821769Y-101188867D01*
X180821770Y-101188868D01*
X180879852Y-101200420D01*
X180880252Y-101200500D01*
X180880257Y-101200500D01*
X180886312Y-101201097D01*
X180886079Y-101203459D01*
X180943039Y-101220185D01*
X180988794Y-101272989D01*
X181000000Y-101324500D01*
X181000000Y-101500000D01*
X184553514Y-101500000D01*
X184620553Y-101519685D01*
X184666308Y-101572489D01*
X184676252Y-101641647D01*
X184670933Y-101663857D01*
X184670622Y-101664775D01*
X184663827Y-101684790D01*
X184660721Y-101692288D01*
X184560212Y-101896101D01*
X184556152Y-101903132D01*
X184429899Y-102092083D01*
X184424957Y-102098524D01*
X184275121Y-102269380D01*
X184269380Y-102275121D01*
X184098524Y-102424957D01*
X184092083Y-102429899D01*
X183903132Y-102556152D01*
X183896101Y-102560212D01*
X183692287Y-102660722D01*
X183684786Y-102663829D01*
X183469595Y-102736876D01*
X183461753Y-102738977D01*
X183238878Y-102783310D01*
X183230829Y-102784370D01*
X183002018Y-102799367D01*
X182997962Y-102799500D01*
X176024000Y-102799500D01*
X175956961Y-102779815D01*
X175911206Y-102727011D01*
X175900000Y-102675500D01*
X175900000Y-101900000D01*
X176795496Y-101900000D01*
X176837968Y-102046195D01*
X176920278Y-102185374D01*
X176920285Y-102185383D01*
X177034616Y-102299714D01*
X177034625Y-102299721D01*
X177173804Y-102382031D01*
X177329089Y-102427145D01*
X177350000Y-102428789D01*
X177350000Y-101900000D01*
X177850000Y-101900000D01*
X177850000Y-102428789D01*
X177870910Y-102427145D01*
X178026195Y-102382031D01*
X178165374Y-102299721D01*
X178165383Y-102299714D01*
X178212319Y-102252779D01*
X178273642Y-102219294D01*
X178343334Y-102224278D01*
X178387681Y-102252779D01*
X178434616Y-102299714D01*
X178434625Y-102299721D01*
X178573804Y-102382031D01*
X178729089Y-102427145D01*
X178750000Y-102428789D01*
X178750000Y-101900000D01*
X179250000Y-101900000D01*
X179250000Y-102428789D01*
X179270910Y-102427145D01*
X179426195Y-102382031D01*
X179565374Y-102299721D01*
X179565383Y-102299714D01*
X179679714Y-102185383D01*
X179679721Y-102185374D01*
X179762031Y-102046195D01*
X179804504Y-101900000D01*
X179250000Y-101900000D01*
X178750000Y-101900000D01*
X177850000Y-101900000D01*
X177350000Y-101900000D01*
X176795496Y-101900000D01*
X175900000Y-101900000D01*
X175900000Y-100550000D01*
X175712181Y-100362181D01*
X175678696Y-100300858D01*
X175683680Y-100231166D01*
X175725552Y-100175233D01*
X175791016Y-100150816D01*
X175799862Y-100150500D01*
X176584167Y-100150500D01*
X176651206Y-100170185D01*
X176671848Y-100186819D01*
X177053181Y-100568152D01*
X177086666Y-100629475D01*
X177089500Y-100655832D01*
X177089500Y-100869896D01*
X177089501Y-100869900D01*
X177090768Y-100879528D01*
X177090770Y-100879538D01*
X177080001Y-100948573D01*
X177039650Y-100994032D01*
X177040788Y-100995499D01*
X177034621Y-101000282D01*
X176920282Y-101114620D01*
X176920278Y-101114625D01*
X176837968Y-101253804D01*
X176795496Y-101400000D01*
X179804504Y-101400000D01*
X179762031Y-101253804D01*
X179679721Y-101114625D01*
X179679714Y-101114616D01*
X179565381Y-101000283D01*
X179559217Y-100995502D01*
X179560733Y-100993547D01*
X179521363Y-100951378D01*
X179508862Y-100882635D01*
X179509231Y-100879538D01*
X179510500Y-100869901D01*
X179510499Y-100769831D01*
X179530183Y-100702794D01*
X179546813Y-100682156D01*
X179795063Y-100433907D01*
X179801536Y-100428276D01*
X179811224Y-100420959D01*
X179811228Y-100420958D01*
X179843449Y-100385611D01*
X179845357Y-100383613D01*
X179859175Y-100369797D01*
X179860692Y-100367581D01*
X179866017Y-100360856D01*
X179886916Y-100337933D01*
X179889415Y-100331480D01*
X179902750Y-100306183D01*
X179902766Y-100306158D01*
X179906657Y-100300480D01*
X179913757Y-100270285D01*
X179916294Y-100262094D01*
X179927500Y-100233173D01*
X179927500Y-100226247D01*
X179930794Y-100197855D01*
X179932379Y-100191118D01*
X179928094Y-100160405D01*
X179927500Y-100151831D01*
X179927500Y-98639839D01*
X179928095Y-98631263D01*
X179929771Y-98619240D01*
X179929773Y-98619236D01*
X179927566Y-98571489D01*
X179927500Y-98568627D01*
X179927500Y-98549159D01*
X179927499Y-98549153D01*
X179927009Y-98546533D01*
X179926016Y-98537980D01*
X179925467Y-98526100D01*
X179924585Y-98507008D01*
X179921788Y-98500675D01*
X179913332Y-98473368D01*
X179912061Y-98466567D01*
X179895736Y-98440202D01*
X179891735Y-98432612D01*
X179879206Y-98404235D01*
X179874309Y-98399338D01*
X179856563Y-98376934D01*
X179852918Y-98371047D01*
X179828172Y-98352360D01*
X179821694Y-98346723D01*
X179636819Y-98161848D01*
X179603334Y-98100525D01*
X179600500Y-98074167D01*
X179600500Y-97030249D01*
X179600499Y-97030247D01*
X179588868Y-96971770D01*
X179588867Y-96971769D01*
X179544552Y-96905447D01*
X179478230Y-96861132D01*
X179478229Y-96861131D01*
X179419752Y-96849500D01*
X179419748Y-96849500D01*
X178375833Y-96849500D01*
X178308794Y-96829815D01*
X178288152Y-96813181D01*
X178096922Y-96621951D01*
X178091278Y-96615465D01*
X178083956Y-96605770D01*
X178048624Y-96573560D01*
X178046573Y-96571602D01*
X178032797Y-96557826D01*
X178030586Y-96556311D01*
X178023853Y-96550978D01*
X178000933Y-96530084D01*
X177994470Y-96527580D01*
X177969192Y-96514256D01*
X177963481Y-96510344D01*
X177963478Y-96510343D01*
X177963479Y-96510343D01*
X177933302Y-96503244D01*
X177925094Y-96500703D01*
X177896173Y-96489500D01*
X177889249Y-96489500D01*
X177860858Y-96486206D01*
X177854119Y-96484621D01*
X177823409Y-96488905D01*
X177814834Y-96489500D01*
X174398282Y-96489500D01*
X174331243Y-96469815D01*
X174310601Y-96453181D01*
X173757335Y-95899915D01*
X173176599Y-95319180D01*
X173143115Y-95257858D01*
X173148099Y-95188166D01*
X173189971Y-95132233D01*
X173255435Y-95107816D01*
X173264281Y-95107500D01*
X174838719Y-95107500D01*
X174905758Y-95127185D01*
G37*
%TD.AperFunction*%
%TA.AperFunction,Conductor*%
G36*
X178432539Y-100469685D02*
G01*
X178478294Y-100522489D01*
X178489500Y-100574000D01*
X178489500Y-100869896D01*
X178489501Y-100869900D01*
X178490768Y-100879528D01*
X178490770Y-100879538D01*
X178480001Y-100948573D01*
X178439650Y-100994032D01*
X178440788Y-100995499D01*
X178434616Y-101000286D01*
X178387680Y-101047222D01*
X178326357Y-101080706D01*
X178256665Y-101075721D01*
X178212319Y-101047221D01*
X178165381Y-101000283D01*
X178159217Y-100995502D01*
X178160733Y-100993547D01*
X178121363Y-100951378D01*
X178108862Y-100882635D01*
X178109231Y-100879538D01*
X178110500Y-100869901D01*
X178110499Y-100573999D01*
X178130183Y-100506961D01*
X178182987Y-100461206D01*
X178234499Y-100450000D01*
X178365500Y-100450000D01*
X178432539Y-100469685D01*
G37*
%TD.AperFunction*%
%TA.AperFunction,Conductor*%
G36*
X183002018Y-90200633D02*
G01*
X183166543Y-90211415D01*
X183230832Y-90215629D01*
X183238865Y-90216687D01*
X183449438Y-90258572D01*
X183461753Y-90261022D01*
X183469596Y-90263123D01*
X183684800Y-90336175D01*
X183692274Y-90339271D01*
X183896107Y-90439790D01*
X183903132Y-90443847D01*
X184092088Y-90570104D01*
X184098516Y-90575036D01*
X184269380Y-90724878D01*
X184275119Y-90730617D01*
X184424961Y-90901480D01*
X184429899Y-90907916D01*
X184556152Y-91096867D01*
X184560212Y-91103898D01*
X184660721Y-91307711D01*
X184663828Y-91315211D01*
X184670932Y-91336139D01*
X184673843Y-91405948D01*
X184638550Y-91466249D01*
X184576259Y-91497896D01*
X184553514Y-91500000D01*
X181000000Y-91500000D01*
X181000000Y-91676000D01*
X180980315Y-91743039D01*
X180927511Y-91788794D01*
X180886203Y-91797780D01*
X180886363Y-91799403D01*
X180880297Y-91800000D01*
X180821966Y-91811602D01*
X180821965Y-91811603D01*
X180755808Y-91855808D01*
X180711603Y-91921965D01*
X180711602Y-91921966D01*
X180700000Y-91980297D01*
X180700000Y-93019702D01*
X180711602Y-93078033D01*
X180711603Y-93078034D01*
X180755808Y-93144191D01*
X180821965Y-93188396D01*
X180821966Y-93188397D01*
X180880297Y-93199999D01*
X180886363Y-93200597D01*
X180886128Y-93202974D01*
X180943039Y-93219685D01*
X180988794Y-93272489D01*
X181000000Y-93324000D01*
X181000000Y-93675500D01*
X180980315Y-93742539D01*
X180927511Y-93788294D01*
X180886153Y-93797291D01*
X180886312Y-93798903D01*
X180880247Y-93799500D01*
X180821770Y-93811131D01*
X180821769Y-93811132D01*
X180755447Y-93855447D01*
X180711132Y-93921769D01*
X180711131Y-93921770D01*
X180699500Y-93980247D01*
X180699500Y-95019752D01*
X180711131Y-95078229D01*
X180711132Y-95078230D01*
X180755447Y-95144552D01*
X180821769Y-95188867D01*
X180821770Y-95188868D01*
X180879852Y-95200420D01*
X180880252Y-95200500D01*
X180880257Y-95200500D01*
X180886312Y-95201097D01*
X180886079Y-95203459D01*
X180943039Y-95220185D01*
X180988794Y-95272989D01*
X181000000Y-95324500D01*
X181000000Y-95675500D01*
X180980315Y-95742539D01*
X180927511Y-95788294D01*
X180886153Y-95797291D01*
X180886312Y-95798903D01*
X180880247Y-95799500D01*
X180821770Y-95811131D01*
X180821769Y-95811132D01*
X180755447Y-95855447D01*
X180711132Y-95921769D01*
X180711131Y-95921770D01*
X180699500Y-95980247D01*
X180699500Y-96066719D01*
X180679815Y-96133758D01*
X180627011Y-96179513D01*
X180557853Y-96189457D01*
X180494297Y-96160432D01*
X180487819Y-96154400D01*
X179295370Y-94961951D01*
X179289726Y-94955465D01*
X179282404Y-94945770D01*
X179247072Y-94913560D01*
X179245021Y-94911602D01*
X179231245Y-94897826D01*
X179229034Y-94896311D01*
X179222301Y-94890978D01*
X179199381Y-94870084D01*
X179192918Y-94867580D01*
X179167640Y-94854256D01*
X179161929Y-94850344D01*
X179161926Y-94850343D01*
X179161927Y-94850343D01*
X179131750Y-94843244D01*
X179123542Y-94840703D01*
X179094621Y-94829500D01*
X179087697Y-94829500D01*
X179059306Y-94826206D01*
X179052567Y-94824621D01*
X179021857Y-94828905D01*
X179013282Y-94829500D01*
X175975833Y-94829500D01*
X175908794Y-94809815D01*
X175888152Y-94793181D01*
X175406922Y-94311951D01*
X175401278Y-94305465D01*
X175393956Y-94295770D01*
X175358624Y-94263560D01*
X175356573Y-94261602D01*
X175342797Y-94247826D01*
X175340586Y-94246311D01*
X175333853Y-94240978D01*
X175310933Y-94220084D01*
X175304470Y-94217580D01*
X175279192Y-94204256D01*
X175273481Y-94200344D01*
X175273478Y-94200343D01*
X175273479Y-94200343D01*
X175243302Y-94193244D01*
X175235094Y-94190703D01*
X175206173Y-94179500D01*
X175199249Y-94179500D01*
X175170858Y-94176206D01*
X175164119Y-94174621D01*
X175133409Y-94178905D01*
X175124834Y-94179500D01*
X172623015Y-94179500D01*
X172555976Y-94159815D01*
X172510221Y-94107011D01*
X172499397Y-94045768D01*
X172500000Y-94038114D01*
X172500000Y-93400000D01*
X171674500Y-93400000D01*
X171607461Y-93380315D01*
X171561706Y-93327511D01*
X171550500Y-93276000D01*
X171550499Y-92286867D01*
X171550499Y-92286862D01*
X171544259Y-92239455D01*
X171544256Y-92239448D01*
X171511618Y-92169454D01*
X171500000Y-92117050D01*
X171500000Y-91710472D01*
X172000000Y-91710472D01*
X172000000Y-92900000D01*
X172500000Y-92900000D01*
X172500000Y-92261884D01*
X172497211Y-92226452D01*
X172497210Y-92226446D01*
X172453156Y-92074814D01*
X172453155Y-92074811D01*
X172372773Y-91938891D01*
X172372767Y-91938883D01*
X172261116Y-91827232D01*
X172261108Y-91827226D01*
X172125188Y-91746844D01*
X172125187Y-91746843D01*
X172000000Y-91710472D01*
X171500000Y-91710472D01*
X171374812Y-91746843D01*
X171374811Y-91746844D01*
X171238891Y-91827226D01*
X171238887Y-91827229D01*
X171127229Y-91938888D01*
X171122446Y-91945055D01*
X171121381Y-91944229D01*
X171076308Y-91986309D01*
X171020655Y-91999500D01*
X170936867Y-91999500D01*
X170889453Y-92005741D01*
X170827403Y-92034676D01*
X170758325Y-92045167D01*
X170722595Y-92034675D01*
X170660544Y-92005740D01*
X170613140Y-91999500D01*
X170286867Y-91999500D01*
X170239453Y-92005741D01*
X170177403Y-92034676D01*
X170108325Y-92045167D01*
X170072595Y-92034675D01*
X170010544Y-92005740D01*
X169963140Y-91999500D01*
X169636867Y-91999500D01*
X169589453Y-92005741D01*
X169527403Y-92034676D01*
X169458325Y-92045167D01*
X169422595Y-92034675D01*
X169360544Y-92005740D01*
X169313140Y-91999500D01*
X168986867Y-91999500D01*
X168939453Y-92005741D01*
X168877403Y-92034676D01*
X168808325Y-92045167D01*
X168772595Y-92034675D01*
X168710544Y-92005740D01*
X168663140Y-91999500D01*
X168579346Y-91999500D01*
X168512307Y-91979815D01*
X168478271Y-91944493D01*
X168477552Y-91945052D01*
X168472767Y-91938883D01*
X168361116Y-91827232D01*
X168361108Y-91827226D01*
X168225188Y-91746844D01*
X168225187Y-91746843D01*
X168100000Y-91710472D01*
X168100000Y-92117050D01*
X168088382Y-92169454D01*
X168055743Y-92239448D01*
X168055740Y-92239458D01*
X168049500Y-92286860D01*
X168049500Y-94013132D01*
X168049501Y-94013138D01*
X168055741Y-94060545D01*
X168055742Y-94060547D01*
X168055742Y-94060548D01*
X168060163Y-94070029D01*
X168087360Y-94128353D01*
X168088382Y-94130543D01*
X168100000Y-94182948D01*
X168100000Y-94589525D01*
X168225185Y-94553156D01*
X168225190Y-94553154D01*
X168294728Y-94512030D01*
X168362452Y-94494847D01*
X168428714Y-94517007D01*
X168445530Y-94531081D01*
X169722498Y-95808049D01*
X169728141Y-95814533D01*
X169735461Y-95824226D01*
X169735462Y-95824228D01*
X169760079Y-95846669D01*
X169770795Y-95856439D01*
X169772843Y-95858394D01*
X169786623Y-95872174D01*
X169788833Y-95873688D01*
X169795563Y-95879018D01*
X169805790Y-95888341D01*
X169818485Y-95899915D01*
X169818486Y-95899915D01*
X169818487Y-95899916D01*
X169824941Y-95902416D01*
X169850226Y-95915744D01*
X169854039Y-95918355D01*
X169855939Y-95919657D01*
X169886130Y-95926757D01*
X169894325Y-95929295D01*
X169923247Y-95940500D01*
X169930172Y-95940500D01*
X169958560Y-95943793D01*
X169965301Y-95945379D01*
X169996011Y-95941094D01*
X170004586Y-95940500D01*
X172434167Y-95940500D01*
X172501206Y-95960185D01*
X172521848Y-95976819D01*
X175133078Y-98588049D01*
X175138721Y-98594533D01*
X175146041Y-98604226D01*
X175146042Y-98604228D01*
X175154253Y-98611713D01*
X175181375Y-98636439D01*
X175183423Y-98638394D01*
X175197203Y-98652174D01*
X175199413Y-98653688D01*
X175206143Y-98659018D01*
X175229067Y-98679916D01*
X175234868Y-98682163D01*
X175235528Y-98682419D01*
X175260809Y-98695745D01*
X175266520Y-98699657D01*
X175296703Y-98706756D01*
X175304911Y-98709298D01*
X175333825Y-98720500D01*
X175333827Y-98720500D01*
X175340752Y-98720500D01*
X175369140Y-98723793D01*
X175375881Y-98725379D01*
X175380128Y-98724786D01*
X175449243Y-98735017D01*
X175484944Y-98759915D01*
X175563181Y-98838152D01*
X175596666Y-98899475D01*
X175599500Y-98925833D01*
X175599500Y-99950137D01*
X175579815Y-100017176D01*
X175527011Y-100062931D01*
X175457853Y-100072875D01*
X175394297Y-100043850D01*
X175387819Y-100037818D01*
X171700001Y-96350000D01*
X171700000Y-96350000D01*
X160150001Y-96399999D01*
X160150000Y-96400000D01*
X157884778Y-98566733D01*
X157822726Y-98598847D01*
X157801883Y-98601093D01*
X157157569Y-98615736D01*
X157090100Y-98597580D01*
X157043157Y-98545829D01*
X157031645Y-98476914D01*
X157059218Y-98412715D01*
X157076084Y-98395917D01*
X157136410Y-98346410D01*
X157267685Y-98186450D01*
X157365232Y-98003954D01*
X157425300Y-97805934D01*
X157445583Y-97600000D01*
X157425300Y-97394066D01*
X157365232Y-97196046D01*
X157267685Y-97013550D01*
X157178968Y-96905447D01*
X157136410Y-96853589D01*
X156976450Y-96722315D01*
X156906045Y-96684681D01*
X156856201Y-96635718D01*
X156840500Y-96575324D01*
X156840500Y-95187965D01*
X156860185Y-95120926D01*
X156876819Y-95100284D01*
X158157103Y-93820000D01*
X160845496Y-93820000D01*
X160887968Y-93966195D01*
X160970278Y-94105374D01*
X160970285Y-94105383D01*
X161084616Y-94219714D01*
X161090785Y-94224499D01*
X161089265Y-94226457D01*
X161128625Y-94268599D01*
X161141139Y-94337339D01*
X161140769Y-94340461D01*
X161139500Y-94350101D01*
X161139500Y-94709894D01*
X161139501Y-94709900D01*
X161146028Y-94759487D01*
X161146029Y-94759489D01*
X161146029Y-94759490D01*
X161177140Y-94826206D01*
X161196776Y-94868316D01*
X161281684Y-94953224D01*
X161390513Y-95003972D01*
X161440099Y-95010500D01*
X161859900Y-95010499D01*
X161909487Y-95003972D01*
X162018316Y-94953224D01*
X162080722Y-94890818D01*
X162142046Y-94857334D01*
X162168403Y-94854500D01*
X163958035Y-94854500D01*
X164025074Y-94874185D01*
X164045716Y-94890819D01*
X164103090Y-94948193D01*
X164107726Y-94953380D01*
X164132121Y-94983970D01*
X164132121Y-94983971D01*
X164181271Y-95017480D01*
X164229118Y-95052793D01*
X164236654Y-95056776D01*
X164244319Y-95060467D01*
X164244327Y-95060472D01*
X164301177Y-95078007D01*
X164357297Y-95097645D01*
X164357299Y-95097645D01*
X164357301Y-95097646D01*
X164357302Y-95097646D01*
X164365698Y-95099234D01*
X164374095Y-95100500D01*
X164374098Y-95100500D01*
X164433559Y-95100500D01*
X164493009Y-95102725D01*
X164493009Y-95102724D01*
X164493010Y-95102725D01*
X164493010Y-95102724D01*
X164502242Y-95101685D01*
X164502335Y-95102513D01*
X164517639Y-95100500D01*
X167135268Y-95100500D01*
X167162859Y-95103608D01*
X167165954Y-95104315D01*
X167214561Y-95100672D01*
X167219178Y-95100500D01*
X167233759Y-95100500D01*
X167233762Y-95100500D01*
X167248219Y-95098320D01*
X167252759Y-95097808D01*
X167301378Y-95094166D01*
X167304329Y-95093007D01*
X167331158Y-95085819D01*
X167334287Y-95085348D01*
X167378197Y-95064200D01*
X167382415Y-95062360D01*
X167427794Y-95044552D01*
X167430272Y-95042575D01*
X167453786Y-95027799D01*
X167456642Y-95026425D01*
X167492368Y-94993274D01*
X167495856Y-94990272D01*
X167533970Y-94959879D01*
X167535754Y-94957261D01*
X167553872Y-94936209D01*
X167556194Y-94934055D01*
X167580563Y-94891843D01*
X167582999Y-94887966D01*
X167610472Y-94847673D01*
X167611406Y-94844641D01*
X167622513Y-94819186D01*
X167624096Y-94816445D01*
X167634940Y-94768927D01*
X167636139Y-94764459D01*
X167650500Y-94717901D01*
X167650500Y-94714733D01*
X167653609Y-94687139D01*
X167654315Y-94684045D01*
X167652520Y-94660099D01*
X167650672Y-94635439D01*
X167650500Y-94630821D01*
X167650500Y-93701805D01*
X167650499Y-93701795D01*
X167650499Y-92286867D01*
X167650499Y-92286862D01*
X167644259Y-92239455D01*
X167644256Y-92239448D01*
X167611618Y-92169454D01*
X167600000Y-92117050D01*
X167600000Y-91710472D01*
X167474812Y-91746843D01*
X167474811Y-91746844D01*
X167338891Y-91827226D01*
X167338883Y-91827232D01*
X167287681Y-91878435D01*
X167226358Y-91911920D01*
X167156666Y-91906936D01*
X167112319Y-91878435D01*
X167061116Y-91827232D01*
X167061108Y-91827226D01*
X166925188Y-91746844D01*
X166925187Y-91746843D01*
X166800000Y-91710472D01*
X166800000Y-92117050D01*
X166788382Y-92169454D01*
X166755743Y-92239448D01*
X166755740Y-92239458D01*
X166749500Y-92286860D01*
X166749500Y-93276000D01*
X166729815Y-93343039D01*
X166677011Y-93388794D01*
X166625500Y-93400000D01*
X166474500Y-93400000D01*
X166407461Y-93380315D01*
X166361706Y-93327511D01*
X166350500Y-93276000D01*
X166350500Y-92998782D01*
X166350889Y-92991843D01*
X166355270Y-92952965D01*
X166352660Y-92939175D01*
X166350499Y-92916122D01*
X166350499Y-92286867D01*
X166350499Y-92286862D01*
X166344259Y-92239455D01*
X166344256Y-92239448D01*
X166311618Y-92169454D01*
X166300000Y-92117050D01*
X166300000Y-91710472D01*
X166174812Y-91746843D01*
X166174811Y-91746844D01*
X166038891Y-91827226D01*
X166038887Y-91827229D01*
X165927229Y-91938888D01*
X165922446Y-91945055D01*
X165921381Y-91944229D01*
X165876308Y-91986309D01*
X165820655Y-91999500D01*
X165736868Y-91999500D01*
X165726341Y-92000885D01*
X165689455Y-92005741D01*
X165689453Y-92005742D01*
X165689448Y-92005743D01*
X165666539Y-92016426D01*
X165597462Y-92026917D01*
X165572170Y-92018801D01*
X165571654Y-92020276D01*
X165562697Y-92017142D01*
X165547187Y-92009575D01*
X165547139Y-92009682D01*
X165539071Y-92005997D01*
X165539069Y-92005996D01*
X165526858Y-92002410D01*
X165489458Y-91991428D01*
X165486449Y-91990461D01*
X165434699Y-91972353D01*
X165425570Y-91970626D01*
X165425612Y-91970401D01*
X165423645Y-91970081D01*
X165423548Y-91970762D01*
X165414773Y-91969500D01*
X165414772Y-91969500D01*
X165414770Y-91969500D01*
X165358426Y-91969500D01*
X165298990Y-91967275D01*
X165297905Y-91967397D01*
X165293351Y-91968332D01*
X165285229Y-91969499D01*
X165228231Y-91986235D01*
X165167812Y-92002424D01*
X165166956Y-92002797D01*
X165161572Y-92005702D01*
X165160936Y-92005992D01*
X165108345Y-92039790D01*
X165052826Y-92074675D01*
X165052824Y-92074677D01*
X165038858Y-92090906D01*
X165009070Y-92125519D01*
X164967118Y-92173937D01*
X164965394Y-92175927D01*
X164964798Y-92176725D01*
X164964241Y-92177612D01*
X164938616Y-92236346D01*
X164913301Y-92291777D01*
X164912076Y-92295948D01*
X164910178Y-92301171D01*
X164909935Y-92302080D01*
X164903105Y-92362702D01*
X164894867Y-92420000D01*
X164894867Y-92432331D01*
X164894678Y-92435681D01*
X164894729Y-92437030D01*
X164905501Y-92493965D01*
X164913303Y-92548229D01*
X164915800Y-92556731D01*
X164915422Y-92556841D01*
X164917551Y-92563541D01*
X164919976Y-92570472D01*
X164944787Y-92617415D01*
X164946369Y-92620630D01*
X164967116Y-92666061D01*
X164969115Y-92669171D01*
X164982408Y-92688597D01*
X164983432Y-92690535D01*
X164983436Y-92690540D01*
X165018498Y-92725602D01*
X165021515Y-92728842D01*
X165051951Y-92763967D01*
X165054480Y-92765592D01*
X165075125Y-92782229D01*
X165413181Y-93120285D01*
X165446666Y-93181608D01*
X165449500Y-93207966D01*
X165449500Y-94013132D01*
X165449501Y-94013138D01*
X165455579Y-94059319D01*
X165444812Y-94128353D01*
X165398430Y-94180608D01*
X165332640Y-94199500D01*
X164679965Y-94199500D01*
X164612926Y-94179815D01*
X164592284Y-94163181D01*
X164534908Y-94105805D01*
X164530271Y-94100617D01*
X164505878Y-94070029D01*
X164456728Y-94036519D01*
X164408882Y-94001207D01*
X164401297Y-93997198D01*
X164393677Y-93993529D01*
X164369161Y-93985967D01*
X164336822Y-93975992D01*
X164315845Y-93968652D01*
X164280695Y-93956352D01*
X164272326Y-93954768D01*
X164263904Y-93953500D01*
X164263902Y-93953500D01*
X164204426Y-93953500D01*
X164144990Y-93951275D01*
X164135756Y-93952316D01*
X164135662Y-93951486D01*
X164120364Y-93953500D01*
X162580872Y-93953500D01*
X162513833Y-93933815D01*
X162468078Y-93881011D01*
X162460442Y-93827908D01*
X162454504Y-93820000D01*
X160845496Y-93820000D01*
X158157103Y-93820000D01*
X158790284Y-93186819D01*
X158851607Y-93153334D01*
X158877965Y-93150500D01*
X160362687Y-93150500D01*
X160415091Y-93162117D01*
X160440513Y-93173972D01*
X160490099Y-93180500D01*
X160720871Y-93180499D01*
X160787910Y-93200183D01*
X160833665Y-93252987D01*
X160842780Y-93316384D01*
X160845495Y-93320000D01*
X162454504Y-93320000D01*
X162451336Y-93309094D01*
X162451536Y-93239225D01*
X162489479Y-93180555D01*
X162553117Y-93151712D01*
X162570413Y-93150500D01*
X163094774Y-93150500D01*
X163123427Y-93142086D01*
X163131655Y-93140266D01*
X163164287Y-93135348D01*
X163183133Y-93126271D01*
X163201998Y-93119015D01*
X163219069Y-93114004D01*
X163247150Y-93095956D01*
X163253765Y-93092257D01*
X163286642Y-93076425D01*
X163299094Y-93064870D01*
X163316375Y-93051468D01*
X163328049Y-93043967D01*
X163352190Y-93016105D01*
X163356882Y-93011251D01*
X163370321Y-92998782D01*
X163386194Y-92984055D01*
X163392717Y-92972754D01*
X163406390Y-92953554D01*
X163412882Y-92946063D01*
X163429656Y-92909330D01*
X163432336Y-92904132D01*
X163454096Y-92866445D01*
X163456118Y-92857580D01*
X163464223Y-92833642D01*
X163466695Y-92828230D01*
X163466697Y-92828226D01*
X163472935Y-92784828D01*
X163473859Y-92779854D01*
X163484315Y-92734046D01*
X163483930Y-92728911D01*
X163484845Y-92701997D01*
X163485133Y-92700000D01*
X163478392Y-92653121D01*
X163477938Y-92648964D01*
X163474166Y-92598622D01*
X163473733Y-92597521D01*
X163469020Y-92579687D01*
X163466698Y-92571777D01*
X163455944Y-92548229D01*
X163445578Y-92525531D01*
X163444269Y-92522443D01*
X163435634Y-92500443D01*
X163424552Y-92472206D01*
X163424550Y-92472203D01*
X163419906Y-92464158D01*
X163419980Y-92464114D01*
X163418130Y-92461101D01*
X163417674Y-92461395D01*
X163412883Y-92453940D01*
X163412882Y-92453937D01*
X163376482Y-92411929D01*
X163339879Y-92366030D01*
X163339877Y-92366029D01*
X163339876Y-92366027D01*
X163338991Y-92365206D01*
X163335789Y-92362740D01*
X163328046Y-92356030D01*
X163278705Y-92324322D01*
X163227672Y-92289527D01*
X163226845Y-92289129D01*
X163221343Y-92287035D01*
X163219067Y-92285995D01*
X163159865Y-92268612D01*
X163138052Y-92261884D01*
X163097902Y-92249500D01*
X163097901Y-92249500D01*
X162544266Y-92249500D01*
X162477227Y-92229815D01*
X162431472Y-92177011D01*
X162421528Y-92107853D01*
X162425189Y-92090906D01*
X162454504Y-91990000D01*
X159895496Y-91990000D01*
X159924811Y-92090906D01*
X159924611Y-92160775D01*
X159886668Y-92219445D01*
X159823030Y-92248288D01*
X159805734Y-92249500D01*
X158668783Y-92249500D01*
X158661844Y-92249110D01*
X158647569Y-92247502D01*
X158622964Y-92244729D01*
X158564511Y-92255789D01*
X158505711Y-92264652D01*
X158497556Y-92267167D01*
X158489530Y-92269975D01*
X158489529Y-92269976D01*
X158489527Y-92269976D01*
X158489524Y-92269978D01*
X158436926Y-92297777D01*
X158383358Y-92323575D01*
X158376308Y-92328380D01*
X158369461Y-92333435D01*
X158348437Y-92354458D01*
X158327413Y-92375483D01*
X158303770Y-92397420D01*
X158283803Y-92415947D01*
X158278013Y-92423208D01*
X158277362Y-92422688D01*
X158267967Y-92434928D01*
X156319715Y-94383181D01*
X156258392Y-94416666D01*
X156232034Y-94419500D01*
X156121647Y-94419500D01*
X156069243Y-94407882D01*
X155979487Y-94366028D01*
X155979485Y-94366027D01*
X155979486Y-94366027D01*
X155929902Y-94359500D01*
X155570102Y-94359500D01*
X155561746Y-94360600D01*
X155560459Y-94360769D01*
X155491425Y-94350001D01*
X155445964Y-94309648D01*
X155444499Y-94310785D01*
X155439714Y-94304616D01*
X155325383Y-94190285D01*
X155325374Y-94190278D01*
X155186193Y-94107967D01*
X155186190Y-94107965D01*
X155040001Y-94065493D01*
X155040000Y-94065494D01*
X155040000Y-95674503D01*
X155186195Y-95632031D01*
X155325374Y-95549721D01*
X155325383Y-95549714D01*
X155439714Y-95435383D01*
X155444499Y-95429215D01*
X155446459Y-95430735D01*
X155488583Y-95391382D01*
X155557321Y-95378858D01*
X155560443Y-95379228D01*
X155570099Y-95380500D01*
X155815501Y-95380499D01*
X155882539Y-95400183D01*
X155928294Y-95452987D01*
X155939500Y-95504499D01*
X155939500Y-96575324D01*
X155919815Y-96642363D01*
X155873955Y-96684681D01*
X155803549Y-96722315D01*
X155643589Y-96853589D01*
X155512317Y-97013547D01*
X155414767Y-97196046D01*
X155394593Y-97262552D01*
X155356296Y-97320990D01*
X155292483Y-97349447D01*
X155223416Y-97338886D01*
X155171023Y-97292661D01*
X155156158Y-97258649D01*
X155123433Y-97136516D01*
X155123429Y-97136507D01*
X155023600Y-96922422D01*
X155023599Y-96922420D01*
X154888113Y-96728926D01*
X154888108Y-96728920D01*
X154721082Y-96561894D01*
X154527578Y-96426399D01*
X154313492Y-96326570D01*
X154313486Y-96326567D01*
X154100000Y-96269364D01*
X154100000Y-97164498D01*
X153992315Y-97115320D01*
X153885763Y-97100000D01*
X153814237Y-97100000D01*
X153707685Y-97115320D01*
X153600000Y-97164498D01*
X153600000Y-96269364D01*
X153592594Y-96263681D01*
X153549018Y-96262643D01*
X153491157Y-96223479D01*
X153463655Y-96159250D01*
X153462780Y-96143912D01*
X153463250Y-96050000D01*
X153467900Y-95120000D01*
X154011210Y-95120000D01*
X154012854Y-95140910D01*
X154057968Y-95296195D01*
X154140278Y-95435374D01*
X154140285Y-95435383D01*
X154254616Y-95549714D01*
X154254625Y-95549721D01*
X154393804Y-95632031D01*
X154540000Y-95674504D01*
X154540000Y-95120000D01*
X154011210Y-95120000D01*
X153467900Y-95120000D01*
X153470400Y-94619999D01*
X154011209Y-94619999D01*
X154011210Y-94620000D01*
X154540000Y-94620000D01*
X154540000Y-94065494D01*
X154539998Y-94065493D01*
X154393809Y-94107965D01*
X154393806Y-94107967D01*
X154254625Y-94190278D01*
X154254616Y-94190285D01*
X154140285Y-94304616D01*
X154140278Y-94304625D01*
X154057968Y-94443804D01*
X154057966Y-94443809D01*
X154012855Y-94599081D01*
X154012854Y-94599087D01*
X154011209Y-94619999D01*
X153470400Y-94619999D01*
X153486050Y-91490000D01*
X159895496Y-91490000D01*
X160450000Y-91490000D01*
X160950000Y-91490000D01*
X161400000Y-91490000D01*
X161400000Y-90961210D01*
X161399999Y-90961209D01*
X161900000Y-90961209D01*
X161900000Y-91490000D01*
X162454504Y-91490000D01*
X162412031Y-91343804D01*
X162329721Y-91204625D01*
X162329714Y-91204616D01*
X162215383Y-91090285D01*
X162215374Y-91090278D01*
X162076195Y-91007968D01*
X162076190Y-91007966D01*
X161920918Y-90962855D01*
X161920912Y-90962854D01*
X161900000Y-90961209D01*
X161399999Y-90961209D01*
X161379087Y-90962854D01*
X161379081Y-90962855D01*
X161216314Y-91010144D01*
X161215925Y-91008805D01*
X161154894Y-91016334D01*
X161133695Y-91010109D01*
X161133686Y-91010144D01*
X160970918Y-90962855D01*
X160970912Y-90962854D01*
X160950000Y-90961209D01*
X160950000Y-91490000D01*
X160450000Y-91490000D01*
X160450000Y-90961210D01*
X160449999Y-90961209D01*
X160429087Y-90962854D01*
X160429081Y-90962855D01*
X160273809Y-91007966D01*
X160273804Y-91007968D01*
X160134625Y-91090278D01*
X160134616Y-91090285D01*
X160020285Y-91204616D01*
X160020278Y-91204625D01*
X159937968Y-91343804D01*
X159895496Y-91490000D01*
X153486050Y-91490000D01*
X153491880Y-90323877D01*
X153511899Y-90256940D01*
X153564931Y-90211449D01*
X153615878Y-90200500D01*
X182960118Y-90200500D01*
X182997962Y-90200500D01*
X183002018Y-90200633D01*
G37*
%TD.AperFunction*%
%TA.AperFunction,Conductor*%
G36*
X179269539Y-99119685D02*
G01*
X179315294Y-99172489D01*
X179326500Y-99224000D01*
X179326500Y-99476000D01*
X179306815Y-99543039D01*
X179254011Y-99588794D01*
X179202500Y-99600000D01*
X178574000Y-99600000D01*
X178506961Y-99580315D01*
X178461206Y-99527511D01*
X178450000Y-99476000D01*
X178450000Y-99224000D01*
X178469685Y-99156961D01*
X178522489Y-99111206D01*
X178574000Y-99100000D01*
X179202500Y-99100000D01*
X179269539Y-99119685D01*
G37*
%TD.AperFunction*%
%TA.AperFunction,Conductor*%
G36*
X175243039Y-97110185D02*
G01*
X175288794Y-97162989D01*
X175300000Y-97214500D01*
X175300000Y-97400000D01*
X176626000Y-97400000D01*
X176693039Y-97419685D01*
X176738794Y-97472489D01*
X176750000Y-97524000D01*
X176750000Y-97776000D01*
X176730315Y-97843039D01*
X176677511Y-97888794D01*
X176626000Y-97900000D01*
X175346333Y-97900000D01*
X175279294Y-97880315D01*
X175258652Y-97863681D01*
X174697152Y-97302181D01*
X174663667Y-97240858D01*
X174668651Y-97171166D01*
X174710523Y-97115233D01*
X174775987Y-97090816D01*
X174784833Y-97090500D01*
X175176000Y-97090500D01*
X175243039Y-97110185D01*
G37*
%TD.AperFunction*%
%TD*%
M02*
