%TF.GenerationSoftware,KiCad,Pcbnew,7.0.9*%
%TF.CreationDate,2024-06-23T02:13:20+02:00*%
%TF.ProjectId,board,626f6172-642e-46b6-9963-61645f706362,rev?*%
%TF.SameCoordinates,Original*%
%TF.FileFunction,Copper,L2,Bot*%
%TF.FilePolarity,Positive*%
%FSLAX46Y46*%
G04 Gerber Fmt 4.6, Leading zero omitted, Abs format (unit mm)*
G04 Created by KiCad (PCBNEW 7.0.9) date 2024-06-23 02:13:20*
%MOMM*%
%LPD*%
G01*
G04 APERTURE LIST*
G04 Aperture macros list*
%AMFreePoly0*
4,1,5,0.500000,-1.800000,-0.500000,-1.800000,-0.500000,1.800000,0.500000,1.900000,0.500000,-1.800000,0.500000,-1.800000,$1*%
%AMFreePoly1*
4,1,5,0.500000,1.800000,0.500000,-1.800000,-0.500000,-1.800000,-0.500000,1.900000,0.500000,1.800000,0.500000,1.800000,$1*%
%AMFreePoly2*
4,1,5,0.500000,1.900000,0.500000,-1.900000,-0.500000,-1.900000,-0.500000,2.000000,0.500000,1.900000,0.500000,1.900000,$1*%
%AMFreePoly3*
4,1,5,0.500000,-1.500000,-0.500000,-1.500000,-0.500000,2.300000,0.500000,2.400000,0.500000,-1.500000,0.500000,-1.500000,$1*%
%AMFreePoly4*
4,1,5,0.500000,1.700000,0.500000,-1.700000,-0.500000,-1.700000,-0.500000,1.800000,0.500000,1.700000,0.500000,1.700000,$1*%
G04 Aperture macros list end*
%TA.AperFunction,ComponentPad*%
%ADD10R,1.700000X1.700000*%
%TD*%
%TA.AperFunction,ComponentPad*%
%ADD11O,1.700000X1.700000*%
%TD*%
%TA.AperFunction,SMDPad,CuDef*%
%ADD12FreePoly0,90.000000*%
%TD*%
%TA.AperFunction,SMDPad,CuDef*%
%ADD13R,3.500000X1.000000*%
%TD*%
%TA.AperFunction,SMDPad,CuDef*%
%ADD14FreePoly1,90.000000*%
%TD*%
%TA.AperFunction,SMDPad,CuDef*%
%ADD15FreePoly2,90.000000*%
%TD*%
%TA.AperFunction,SMDPad,CuDef*%
%ADD16FreePoly0,270.000000*%
%TD*%
%TA.AperFunction,SMDPad,CuDef*%
%ADD17FreePoly3,270.000000*%
%TD*%
%TA.AperFunction,SMDPad,CuDef*%
%ADD18R,4.000000X1.000000*%
%TD*%
%TA.AperFunction,SMDPad,CuDef*%
%ADD19FreePoly1,270.000000*%
%TD*%
%TA.AperFunction,SMDPad,CuDef*%
%ADD20FreePoly4,270.000000*%
%TD*%
%TA.AperFunction,ViaPad*%
%ADD21C,0.500000*%
%TD*%
%TA.AperFunction,Conductor*%
%ADD22C,0.500000*%
%TD*%
%TA.AperFunction,Conductor*%
%ADD23C,0.200000*%
%TD*%
G04 APERTURE END LIST*
D10*
%TO.P,J3,1,Pin_1*%
%TO.N,/dcdc/GND1*%
X148770000Y-97600000D03*
D11*
%TO.P,J3,2,Pin_2*%
%TO.N,/dcdc/5Vin*%
X151310000Y-97600000D03*
%TO.P,J3,3,Pin_3*%
%TO.N,/dcdc/GND2*%
X153850000Y-97600000D03*
%TO.P,J3,4,Pin_4*%
%TO.N,/dcdc/5Vout*%
X156390000Y-97600000D03*
%TD*%
D12*
%TO.P,J1,6,usb3_rx+*%
%TO.N,unconnected-(J1-usb3_rx+-Pad6)*%
X182600000Y-92500000D03*
D13*
%TO.P,J1,7,usb3_rx-*%
%TO.N,unconnected-(J1-usb3_rx--Pad7)*%
X182650000Y-94500000D03*
%TO.P,J1,8,usb3_tx+*%
%TO.N,unconnected-(J1-usb3_tx+-Pad8)*%
X182650000Y-96500000D03*
D14*
%TO.P,J1,9,usb3_tx-*%
%TO.N,unconnected-(J1-usb3_tx--Pad9)*%
X182600000Y-98500000D03*
D15*
%TO.P,J1,10,5V*%
%TO.N,/dcdc/5Vout*%
X182500000Y-100500000D03*
%TD*%
D16*
%TO.P,J2,6,usb3_rx+*%
%TO.N,unconnected-(J2-usb3_rx+-Pad6)*%
X142400000Y-92500000D03*
D17*
%TO.P,J2,7,usb3_rx-*%
%TO.N,unconnected-(J2-usb3_rx--Pad7)*%
X142100000Y-94500000D03*
D18*
%TO.P,J2,8,usb3_tx+*%
%TO.N,unconnected-(J2-usb3_tx+-Pad8)*%
X142600000Y-96500000D03*
D19*
%TO.P,J2,9,usb3_tx-*%
%TO.N,unconnected-(J2-usb3_tx--Pad9)*%
X142400000Y-98500000D03*
D20*
%TO.P,J2,10,5V*%
%TO.N,/dcdc/5Vin*%
X142300000Y-100500000D03*
%TD*%
D21*
%TO.N,/dcdc/GND2*%
X174470000Y-95320000D03*
%TO.N,/iso/D+*%
X149350000Y-99000000D03*
X145650000Y-97800000D03*
%TO.N,/iso/D-*%
X149936937Y-99413063D03*
X145700000Y-98500000D03*
%TO.N,/dcdc/GND1*%
X171100000Y-97850000D03*
X141300000Y-102000000D03*
X167840000Y-101710000D03*
X164710000Y-102140000D03*
X162300000Y-100200000D03*
X164002999Y-99898000D03*
X161000000Y-97850000D03*
X170100000Y-101500000D03*
X151450000Y-101200000D03*
X157050000Y-101750000D03*
X174380000Y-101460000D03*
X154280000Y-101200000D03*
X147400000Y-102400000D03*
X146900000Y-97600000D03*
X148700000Y-95800000D03*
X168570000Y-101710000D03*
X166530000Y-101480000D03*
X141450000Y-91000000D03*
X145100000Y-92500000D03*
X150800000Y-90600000D03*
X159300000Y-101200000D03*
X145100000Y-95450000D03*
X159650000Y-99050000D03*
X160750000Y-100350000D03*
X169350000Y-101790000D03*
X150800000Y-95800000D03*
X171750000Y-101560000D03*
%TO.N,/dcdc/5Vin*%
X147150000Y-100900000D03*
%TO.N,/dcdc/GND2*%
X178950000Y-102450000D03*
X179000000Y-90850000D03*
X175070000Y-99170000D03*
X177550000Y-102450000D03*
X183150000Y-90850000D03*
X154150000Y-90650000D03*
X176550000Y-92500000D03*
X173010000Y-97070000D03*
X157550000Y-95450000D03*
X169040000Y-95860000D03*
X158250000Y-97350000D03*
X180250000Y-101650000D03*
X154850000Y-95850000D03*
X169830000Y-91450000D03*
X175440000Y-93840000D03*
X176500000Y-100600000D03*
X160400000Y-95900000D03*
X160550000Y-90550000D03*
X179650000Y-94550000D03*
X178600000Y-96400000D03*
X177500000Y-98500000D03*
X166500000Y-95850000D03*
X183350000Y-102050000D03*
X160250000Y-93900000D03*
X180200000Y-97850000D03*
X175520000Y-96140000D03*
%TO.N,/dcdc/5Vout*%
X163030000Y-92700000D03*
X165350000Y-92420000D03*
%TD*%
D22*
%TO.N,/dcdc/5Vout*%
X178550000Y-100500000D02*
X182500000Y-100500000D01*
X170470000Y-92420000D02*
X178550000Y-100500000D01*
X163310000Y-92420000D02*
X170470000Y-92420000D01*
X163030000Y-92700000D02*
X163310000Y-92420000D01*
%TO.N,/dcdc/GND1*%
X170090000Y-99900000D02*
X170090000Y-99850000D01*
X171750000Y-101560000D02*
X170090000Y-99900000D01*
X169190000Y-101630000D02*
X169190000Y-99850000D01*
X169350000Y-101790000D02*
X169190000Y-101630000D01*
X170090000Y-101490000D02*
X170090000Y-99850000D01*
X170100000Y-101500000D02*
X170090000Y-101490000D01*
X166530000Y-99860000D02*
X166520000Y-99850000D01*
X166530000Y-101480000D02*
X166530000Y-99860000D01*
D23*
%TO.N,/iso/D+*%
X146850000Y-99000000D02*
X146177000Y-98327000D01*
X146177000Y-98302420D02*
X145897580Y-98023000D01*
X145897580Y-98023000D02*
X145873000Y-98023000D01*
X149350000Y-99000000D02*
X146850000Y-99000000D01*
X145873000Y-98023000D02*
X145650000Y-97800000D01*
X146177000Y-98327000D02*
X146177000Y-98302420D01*
%TO.N,/iso/D-*%
X149873000Y-99477000D02*
X149152420Y-99477000D01*
X145750000Y-98450000D02*
X145700000Y-98500000D01*
X149002420Y-99327000D02*
X146627000Y-99327000D01*
X146627000Y-99327000D02*
X145750000Y-98450000D01*
X149936937Y-99413063D02*
X149873000Y-99477000D01*
X149152420Y-99477000D02*
X149002420Y-99327000D01*
D22*
%TO.N,/dcdc/GND1*%
X168200000Y-99850000D02*
X168490000Y-99850000D01*
X168490000Y-99850000D02*
X169190000Y-99850000D01*
X164050999Y-99850000D02*
X164002999Y-99898000D01*
X169450000Y-99850000D02*
X170090000Y-99850000D01*
X166950000Y-99850000D02*
X166520000Y-99850000D01*
X166520000Y-99850000D02*
X164050999Y-99850000D01*
X166950000Y-99850000D02*
X168200000Y-99850000D01*
X168490000Y-100490000D02*
X168490000Y-99850000D01*
X169190000Y-99850000D02*
X169450000Y-99850000D01*
%TO.N,/dcdc/5Vin*%
X147150000Y-100900000D02*
X145250000Y-100900000D01*
X147150000Y-100900000D02*
X150450000Y-100900000D01*
X150450000Y-100900000D02*
X151310000Y-100040000D01*
X145250000Y-100900000D02*
X144850000Y-100500000D01*
X151310000Y-100040000D02*
X151310000Y-97600000D01*
X144850000Y-100500000D02*
X142300000Y-100500000D01*
%TO.N,/dcdc/GND2*%
X176550000Y-97550000D02*
X177500000Y-98500000D01*
X176550000Y-92500000D02*
X176550000Y-97550000D01*
%TD*%
%TA.AperFunction,Conductor*%
%TO.N,/dcdc/GND1*%
G36*
X171315677Y-97469685D02*
G01*
X171336319Y-97486319D01*
X174963681Y-101113681D01*
X174997166Y-101175004D01*
X175000000Y-101201362D01*
X175000000Y-102675500D01*
X174980315Y-102742539D01*
X174927511Y-102788294D01*
X174876000Y-102799500D01*
X142002038Y-102799500D01*
X141997982Y-102799367D01*
X141769170Y-102784370D01*
X141761121Y-102783310D01*
X141538246Y-102738977D01*
X141530404Y-102736876D01*
X141391329Y-102689666D01*
X141315207Y-102663826D01*
X141307718Y-102660724D01*
X141103897Y-102560211D01*
X141096867Y-102556152D01*
X140907916Y-102429899D01*
X140901480Y-102424961D01*
X140730617Y-102275119D01*
X140724878Y-102269380D01*
X140575036Y-102098516D01*
X140570104Y-102092088D01*
X140443847Y-101903132D01*
X140439790Y-101896107D01*
X140339271Y-101692274D01*
X140336174Y-101684794D01*
X140329065Y-101663855D01*
X140326158Y-101594048D01*
X140361453Y-101533748D01*
X140423745Y-101502103D01*
X140446486Y-101500000D01*
X144000000Y-101500000D01*
X144000000Y-101301612D01*
X144019685Y-101234573D01*
X144065712Y-101192166D01*
X144094582Y-101176790D01*
X144129452Y-101158219D01*
X144180145Y-101096636D01*
X144197927Y-101038326D01*
X144236311Y-100979947D01*
X144300166Y-100951585D01*
X144316534Y-100950500D01*
X144612034Y-100950500D01*
X144679073Y-100970185D01*
X144699715Y-100986819D01*
X144911094Y-101198198D01*
X144915730Y-101203386D01*
X144940121Y-101233970D01*
X144940122Y-101233971D01*
X144989264Y-101267476D01*
X145037116Y-101302792D01*
X145044672Y-101306785D01*
X145052321Y-101310468D01*
X145052327Y-101310472D01*
X145085321Y-101320649D01*
X145109179Y-101328009D01*
X145165300Y-101347646D01*
X145173688Y-101349232D01*
X145182095Y-101350500D01*
X145182098Y-101350500D01*
X145241573Y-101350500D01*
X145301009Y-101352724D01*
X145301009Y-101352723D01*
X145301010Y-101352724D01*
X145301010Y-101352723D01*
X145310243Y-101351684D01*
X145310336Y-101352513D01*
X145325636Y-101350500D01*
X147082098Y-101350500D01*
X147085228Y-101350500D01*
X147214772Y-101350500D01*
X150421217Y-101350500D01*
X150428155Y-101350889D01*
X150460050Y-101354483D01*
X150467034Y-101355270D01*
X150467034Y-101355269D01*
X150467035Y-101355270D01*
X150525479Y-101344211D01*
X150584287Y-101335348D01*
X150584290Y-101335346D01*
X150592447Y-101332830D01*
X150600469Y-101330023D01*
X150600472Y-101330023D01*
X150653072Y-101302222D01*
X150706642Y-101276425D01*
X150706642Y-101276424D01*
X150706644Y-101276424D01*
X150713695Y-101271616D01*
X150720538Y-101266566D01*
X150762599Y-101224504D01*
X150785359Y-101203386D01*
X150806194Y-101184055D01*
X150806196Y-101184050D01*
X150811987Y-101176790D01*
X150812643Y-101177313D01*
X150822032Y-101165070D01*
X151608205Y-100378896D01*
X151613373Y-100374277D01*
X151643970Y-100349879D01*
X151677480Y-100300728D01*
X151712793Y-100252882D01*
X151712794Y-100252879D01*
X151716787Y-100245324D01*
X151720470Y-100237676D01*
X151720470Y-100237675D01*
X151720472Y-100237673D01*
X151738007Y-100180822D01*
X151757646Y-100124699D01*
X151759228Y-100116336D01*
X151760500Y-100107899D01*
X151760500Y-100048441D01*
X151762725Y-99988993D01*
X151762600Y-99987882D01*
X151762812Y-99986670D01*
X151763073Y-99979703D01*
X151764026Y-99979738D01*
X151774656Y-99919060D01*
X151822006Y-99867681D01*
X151885821Y-99850000D01*
X158400000Y-99850000D01*
X160763681Y-97486319D01*
X160825004Y-97452834D01*
X160851362Y-97450000D01*
X171248638Y-97450000D01*
X171315677Y-97469685D01*
G37*
%TD.AperFunction*%
%TA.AperFunction,Conductor*%
G36*
X151193039Y-90220185D02*
G01*
X151238794Y-90272989D01*
X151250000Y-90324500D01*
X151250000Y-96437939D01*
X151230315Y-96504978D01*
X151177511Y-96550733D01*
X151138156Y-96561342D01*
X151104067Y-96564699D01*
X150928692Y-96617898D01*
X150923413Y-96619500D01*
X150906043Y-96624769D01*
X150872634Y-96642627D01*
X150723550Y-96722315D01*
X150723548Y-96722316D01*
X150723547Y-96722317D01*
X150563589Y-96853589D01*
X150432317Y-97013547D01*
X150353358Y-97161267D01*
X150304395Y-97211111D01*
X150236257Y-97226571D01*
X150170578Y-97202739D01*
X150128209Y-97147181D01*
X150120000Y-97102813D01*
X150120000Y-96702172D01*
X150119999Y-96702155D01*
X150113598Y-96642627D01*
X150113596Y-96642620D01*
X150063354Y-96507913D01*
X150063350Y-96507906D01*
X149977190Y-96392812D01*
X149977187Y-96392809D01*
X149862093Y-96306649D01*
X149862086Y-96306645D01*
X149727379Y-96256403D01*
X149727372Y-96256401D01*
X149667844Y-96250000D01*
X149020000Y-96250000D01*
X149020000Y-97164498D01*
X148912315Y-97115320D01*
X148805763Y-97100000D01*
X148734237Y-97100000D01*
X148627685Y-97115320D01*
X148520000Y-97164498D01*
X148520000Y-96250000D01*
X147872155Y-96250000D01*
X147812627Y-96256401D01*
X147812620Y-96256403D01*
X147677913Y-96306645D01*
X147677906Y-96306649D01*
X147562812Y-96392809D01*
X147562809Y-96392812D01*
X147476649Y-96507906D01*
X147476645Y-96507913D01*
X147426403Y-96642620D01*
X147426401Y-96642627D01*
X147420000Y-96702155D01*
X147420000Y-97350000D01*
X148336314Y-97350000D01*
X148310507Y-97390156D01*
X148270000Y-97528111D01*
X148270000Y-97671889D01*
X148310507Y-97809844D01*
X148336314Y-97850000D01*
X147420000Y-97850000D01*
X147420000Y-98497844D01*
X147426925Y-98562244D01*
X147414520Y-98631004D01*
X147366910Y-98682141D01*
X147303636Y-98699500D01*
X147025833Y-98699500D01*
X146958794Y-98679815D01*
X146938152Y-98663181D01*
X146465030Y-98190059D01*
X146439276Y-98152463D01*
X146429206Y-98129655D01*
X146424309Y-98124758D01*
X146406563Y-98102354D01*
X146405105Y-98100000D01*
X146402919Y-98096468D01*
X146378171Y-98077779D01*
X146371694Y-98072143D01*
X146154502Y-97854951D01*
X146148858Y-97848465D01*
X146141539Y-97838774D01*
X146141538Y-97838772D01*
X146141535Y-97838769D01*
X146138924Y-97836388D01*
X146135574Y-97830875D01*
X146134613Y-97829602D01*
X146134741Y-97829504D01*
X146102644Y-97776676D01*
X146099728Y-97762412D01*
X146086697Y-97671774D01*
X146032882Y-97553937D01*
X145948049Y-97456033D01*
X145839069Y-97385996D01*
X145839065Y-97385994D01*
X145839064Y-97385994D01*
X145714774Y-97349500D01*
X145714772Y-97349500D01*
X145585228Y-97349500D01*
X145585226Y-97349500D01*
X145460935Y-97385994D01*
X145460932Y-97385995D01*
X145460931Y-97385996D01*
X145448374Y-97394066D01*
X145351950Y-97456033D01*
X145267118Y-97553937D01*
X145267117Y-97553938D01*
X145213302Y-97671774D01*
X145194867Y-97800000D01*
X145213302Y-97928225D01*
X145247887Y-98003954D01*
X145267118Y-98046063D01*
X145310793Y-98096467D01*
X145311818Y-98097650D01*
X145340842Y-98161206D01*
X145330898Y-98230364D01*
X145320947Y-98245860D01*
X145321911Y-98246480D01*
X145317116Y-98253939D01*
X145263302Y-98371774D01*
X145244867Y-98500000D01*
X145263302Y-98628225D01*
X145295853Y-98699500D01*
X145317118Y-98746063D01*
X145401951Y-98843967D01*
X145510931Y-98914004D01*
X145544761Y-98923937D01*
X145635225Y-98950499D01*
X145635227Y-98950500D01*
X145773641Y-98950500D01*
X145773641Y-98954203D01*
X145825369Y-98961528D01*
X145861781Y-98986752D01*
X146370078Y-99495049D01*
X146375721Y-99501533D01*
X146383041Y-99511226D01*
X146383042Y-99511228D01*
X146407659Y-99533669D01*
X146418375Y-99543439D01*
X146420423Y-99545394D01*
X146434203Y-99559174D01*
X146436413Y-99560688D01*
X146443143Y-99566018D01*
X146454016Y-99575930D01*
X146466064Y-99586914D01*
X146466065Y-99586914D01*
X146466067Y-99586916D01*
X146472530Y-99589419D01*
X146497807Y-99602743D01*
X146503519Y-99606656D01*
X146533702Y-99613754D01*
X146541903Y-99616294D01*
X146570827Y-99627500D01*
X146577751Y-99627500D01*
X146606141Y-99630793D01*
X146612881Y-99632379D01*
X146643591Y-99628095D01*
X146652166Y-99627500D01*
X148823427Y-99627500D01*
X148890466Y-99647185D01*
X148906967Y-99659865D01*
X148943795Y-99693439D01*
X148945843Y-99695394D01*
X148959623Y-99709174D01*
X148961833Y-99710688D01*
X148968563Y-99716018D01*
X148979436Y-99725930D01*
X148991484Y-99736914D01*
X148991485Y-99736914D01*
X148991487Y-99736916D01*
X148997950Y-99739419D01*
X149023227Y-99752743D01*
X149028939Y-99756656D01*
X149059122Y-99763754D01*
X149067323Y-99766294D01*
X149096247Y-99777500D01*
X149103171Y-99777500D01*
X149131561Y-99780793D01*
X149138301Y-99782379D01*
X149169011Y-99778095D01*
X149177586Y-99777500D01*
X149634330Y-99777500D01*
X149701368Y-99797184D01*
X149747870Y-99827068D01*
X149872162Y-99863562D01*
X149872164Y-99863563D01*
X149872165Y-99863563D01*
X150001710Y-99863563D01*
X150001710Y-99863562D01*
X150126006Y-99827067D01*
X150234986Y-99757030D01*
X150319819Y-99659126D01*
X150373634Y-99541289D01*
X150392070Y-99413063D01*
X150373634Y-99284837D01*
X150319819Y-99167000D01*
X150234986Y-99069096D01*
X150126006Y-98999059D01*
X150126004Y-98999058D01*
X150126002Y-98999057D01*
X150057614Y-98978977D01*
X149998836Y-98941203D01*
X149969811Y-98877647D01*
X149979755Y-98808489D01*
X149993283Y-98785688D01*
X150063352Y-98692089D01*
X150063354Y-98692086D01*
X150113596Y-98557379D01*
X150113598Y-98557372D01*
X150119999Y-98497844D01*
X150120000Y-98497827D01*
X150120000Y-98097186D01*
X150139685Y-98030147D01*
X150192489Y-97984392D01*
X150261647Y-97974448D01*
X150325203Y-98003473D01*
X150353356Y-98038729D01*
X150432315Y-98186450D01*
X150432317Y-98186452D01*
X150563589Y-98346410D01*
X150723549Y-98477684D01*
X150723551Y-98477686D01*
X150750242Y-98491952D01*
X150793953Y-98515316D01*
X150843797Y-98564277D01*
X150859500Y-98624674D01*
X150859500Y-99802035D01*
X150839815Y-99869074D01*
X150823181Y-99889716D01*
X150299716Y-100413181D01*
X150238393Y-100446666D01*
X150212035Y-100449500D01*
X145487965Y-100449500D01*
X145420926Y-100429815D01*
X145400284Y-100413181D01*
X145188908Y-100201805D01*
X145184271Y-100196617D01*
X145159878Y-100166029D01*
X145110728Y-100132519D01*
X145062882Y-100097207D01*
X145055297Y-100093198D01*
X145047677Y-100089529D01*
X145023161Y-100081967D01*
X144990822Y-100071992D01*
X144970154Y-100064760D01*
X144934695Y-100052352D01*
X144926326Y-100050768D01*
X144917904Y-100049500D01*
X144917902Y-100049500D01*
X144858426Y-100049500D01*
X144798990Y-100047275D01*
X144789756Y-100048316D01*
X144789662Y-100047486D01*
X144774364Y-100049500D01*
X144416039Y-100049500D01*
X144349000Y-100029815D01*
X144303245Y-99977011D01*
X144294422Y-99949692D01*
X144288867Y-99921770D01*
X144288867Y-99921769D01*
X144244552Y-99855447D01*
X144178230Y-99811132D01*
X144178229Y-99811131D01*
X144099809Y-99795533D01*
X144037898Y-99763148D01*
X144003324Y-99702432D01*
X144000000Y-99673916D01*
X144000000Y-99328428D01*
X144019685Y-99261389D01*
X144072489Y-99215634D01*
X144124000Y-99204428D01*
X144199995Y-99204428D01*
X144200000Y-99204428D01*
X144227546Y-99200362D01*
X144259045Y-99195715D01*
X144259045Y-99195714D01*
X144259050Y-99195714D01*
X144329452Y-99158219D01*
X144380145Y-99096636D01*
X144403413Y-99020341D01*
X144503413Y-98020341D01*
X144504428Y-98000000D01*
X144488867Y-97921769D01*
X144474162Y-97899762D01*
X144444552Y-97855447D01*
X144378230Y-97811132D01*
X144378229Y-97811131D01*
X144300004Y-97795572D01*
X144300000Y-97795572D01*
X144124000Y-97795572D01*
X144056961Y-97775887D01*
X144011206Y-97723083D01*
X144000000Y-97671572D01*
X144000000Y-97324500D01*
X144019685Y-97257461D01*
X144072489Y-97211706D01*
X144124000Y-97200500D01*
X144619750Y-97200500D01*
X144619751Y-97200499D01*
X144642140Y-97196046D01*
X144678229Y-97188868D01*
X144678229Y-97188867D01*
X144678231Y-97188867D01*
X144744552Y-97144552D01*
X144788867Y-97078231D01*
X144788867Y-97078229D01*
X144788868Y-97078229D01*
X144800499Y-97019752D01*
X144800500Y-97019750D01*
X144800500Y-95980249D01*
X144800499Y-95980247D01*
X144788868Y-95921770D01*
X144788867Y-95921769D01*
X144744552Y-95855447D01*
X144678230Y-95811132D01*
X144678229Y-95811131D01*
X144619752Y-95799500D01*
X144619748Y-95799500D01*
X144124000Y-95799500D01*
X144056961Y-95779815D01*
X144011206Y-95727011D01*
X144000000Y-95675500D01*
X144000000Y-95328428D01*
X144019685Y-95261389D01*
X144072489Y-95215634D01*
X144124000Y-95204428D01*
X144500001Y-95204428D01*
X144500967Y-95204379D01*
X144520341Y-95203413D01*
X144596636Y-95180145D01*
X144658219Y-95129452D01*
X144695714Y-95059050D01*
X144703413Y-94979659D01*
X144603413Y-93979659D01*
X144588867Y-93921769D01*
X144544552Y-93855448D01*
X144544551Y-93855446D01*
X144478230Y-93811132D01*
X144478229Y-93811131D01*
X144400004Y-93795572D01*
X144400000Y-93795572D01*
X144124000Y-93795572D01*
X144056961Y-93775887D01*
X144011206Y-93723083D01*
X144000000Y-93671572D01*
X144000000Y-93328428D01*
X144019685Y-93261389D01*
X144072489Y-93215634D01*
X144124000Y-93204428D01*
X144300001Y-93204428D01*
X144300967Y-93204379D01*
X144320341Y-93203413D01*
X144396636Y-93180145D01*
X144458219Y-93129452D01*
X144495714Y-93059050D01*
X144503413Y-92979659D01*
X144403413Y-91979659D01*
X144388867Y-91921769D01*
X144344552Y-91855448D01*
X144344551Y-91855446D01*
X144278230Y-91811132D01*
X144278229Y-91811131D01*
X144200004Y-91795572D01*
X144200000Y-91795572D01*
X144124000Y-91795572D01*
X144056961Y-91775887D01*
X144011206Y-91723083D01*
X144000000Y-91671572D01*
X144000000Y-91500000D01*
X140446486Y-91500000D01*
X140379447Y-91480315D01*
X140333692Y-91427511D01*
X140323748Y-91358353D01*
X140329062Y-91336153D01*
X140336178Y-91315191D01*
X140339271Y-91307725D01*
X140439793Y-91103885D01*
X140443847Y-91096867D01*
X140444937Y-91095236D01*
X140570109Y-90907903D01*
X140575030Y-90901490D01*
X140724887Y-90730609D01*
X140730609Y-90724887D01*
X140901490Y-90575030D01*
X140907903Y-90570109D01*
X141096872Y-90443844D01*
X141103885Y-90439793D01*
X141307730Y-90339269D01*
X141315194Y-90336177D01*
X141530407Y-90263122D01*
X141538243Y-90261022D01*
X141761136Y-90216686D01*
X141769165Y-90215629D01*
X141843393Y-90210764D01*
X141997982Y-90200633D01*
X142002038Y-90200500D01*
X142039882Y-90200500D01*
X151126000Y-90200500D01*
X151193039Y-90220185D01*
G37*
%TD.AperFunction*%
%TD*%
%TA.AperFunction,Conductor*%
%TO.N,/dcdc/GND2*%
G36*
X183002018Y-90200633D02*
G01*
X183166543Y-90211415D01*
X183230832Y-90215629D01*
X183238865Y-90216687D01*
X183449438Y-90258572D01*
X183461753Y-90261022D01*
X183469596Y-90263123D01*
X183684800Y-90336175D01*
X183692274Y-90339271D01*
X183896107Y-90439790D01*
X183903132Y-90443847D01*
X184092088Y-90570104D01*
X184098516Y-90575036D01*
X184269380Y-90724878D01*
X184275119Y-90730617D01*
X184424961Y-90901480D01*
X184429899Y-90907916D01*
X184556152Y-91096867D01*
X184560212Y-91103898D01*
X184660721Y-91307711D01*
X184663828Y-91315211D01*
X184670932Y-91336139D01*
X184673843Y-91405948D01*
X184638550Y-91466249D01*
X184576259Y-91497896D01*
X184553514Y-91500000D01*
X181000000Y-91500000D01*
X181000000Y-91671572D01*
X180980315Y-91738611D01*
X180927511Y-91784366D01*
X180876000Y-91795572D01*
X180699999Y-91795572D01*
X180679658Y-91796587D01*
X180646179Y-91806797D01*
X180603364Y-91819855D01*
X180603363Y-91819855D01*
X180603362Y-91819856D01*
X180541780Y-91870547D01*
X180504286Y-91940949D01*
X180496836Y-92017777D01*
X180496587Y-92020341D01*
X180596587Y-93020341D01*
X180602931Y-93045590D01*
X180611133Y-93078231D01*
X180655448Y-93144553D01*
X180721769Y-93188867D01*
X180721770Y-93188868D01*
X180799995Y-93204427D01*
X180799999Y-93204428D01*
X180800000Y-93204428D01*
X180876000Y-93204428D01*
X180943039Y-93224113D01*
X180988794Y-93276917D01*
X181000000Y-93328428D01*
X181000000Y-93675500D01*
X180980315Y-93742539D01*
X180927511Y-93788294D01*
X180886153Y-93797291D01*
X180886312Y-93798903D01*
X180880247Y-93799500D01*
X180821770Y-93811131D01*
X180821769Y-93811132D01*
X180755447Y-93855447D01*
X180711132Y-93921769D01*
X180711131Y-93921770D01*
X180699500Y-93980247D01*
X180699500Y-95019752D01*
X180711131Y-95078229D01*
X180711132Y-95078230D01*
X180755447Y-95144552D01*
X180821769Y-95188867D01*
X180821770Y-95188868D01*
X180879852Y-95200420D01*
X180880252Y-95200500D01*
X180880257Y-95200500D01*
X180886312Y-95201097D01*
X180886079Y-95203459D01*
X180943039Y-95220185D01*
X180988794Y-95272989D01*
X181000000Y-95324500D01*
X181000000Y-95675500D01*
X180980315Y-95742539D01*
X180927511Y-95788294D01*
X180886153Y-95797291D01*
X180886312Y-95798903D01*
X180880247Y-95799500D01*
X180821770Y-95811131D01*
X180821769Y-95811132D01*
X180755447Y-95855447D01*
X180711132Y-95921769D01*
X180711131Y-95921770D01*
X180699500Y-95980247D01*
X180699500Y-97019752D01*
X180711131Y-97078229D01*
X180711132Y-97078230D01*
X180755447Y-97144552D01*
X180821769Y-97188867D01*
X180821770Y-97188868D01*
X180879852Y-97200420D01*
X180880252Y-97200500D01*
X180880257Y-97200500D01*
X180886312Y-97201097D01*
X180886079Y-97203459D01*
X180943039Y-97220185D01*
X180988794Y-97272989D01*
X181000000Y-97324500D01*
X181000000Y-97671572D01*
X180980315Y-97738611D01*
X180927511Y-97784366D01*
X180876000Y-97795572D01*
X180800000Y-97795572D01*
X180799996Y-97795572D01*
X180799987Y-97795573D01*
X180740954Y-97804284D01*
X180740947Y-97804287D01*
X180670548Y-97841780D01*
X180619855Y-97903362D01*
X180611488Y-97930798D01*
X180596587Y-97979659D01*
X180496587Y-98979659D01*
X180495572Y-99000000D01*
X180505518Y-99050000D01*
X180511133Y-99078231D01*
X180555447Y-99144552D01*
X180621769Y-99188867D01*
X180621770Y-99188868D01*
X180699995Y-99204427D01*
X180699999Y-99204428D01*
X180700000Y-99204428D01*
X180876000Y-99204428D01*
X180943039Y-99224113D01*
X180988794Y-99276917D01*
X181000000Y-99328428D01*
X181000000Y-99671572D01*
X180980315Y-99738611D01*
X180927511Y-99784366D01*
X180876000Y-99795572D01*
X180600000Y-99795572D01*
X180599996Y-99795572D01*
X180599987Y-99795573D01*
X180540954Y-99804284D01*
X180540947Y-99804287D01*
X180470548Y-99841780D01*
X180419855Y-99903362D01*
X180402073Y-99961672D01*
X180363689Y-100020053D01*
X180299834Y-100048415D01*
X180283466Y-100049500D01*
X178787965Y-100049500D01*
X178720926Y-100029815D01*
X178700284Y-100013181D01*
X170808908Y-92121805D01*
X170804271Y-92116617D01*
X170787417Y-92095483D01*
X170779879Y-92086030D01*
X170730728Y-92052519D01*
X170682882Y-92017207D01*
X170675297Y-92013198D01*
X170667677Y-92009529D01*
X170643161Y-92001967D01*
X170610822Y-91991992D01*
X170589845Y-91984652D01*
X170554695Y-91972352D01*
X170546326Y-91970768D01*
X170537904Y-91969500D01*
X170537902Y-91969500D01*
X170478426Y-91969500D01*
X170418990Y-91967275D01*
X170409756Y-91968316D01*
X170409662Y-91967486D01*
X170394364Y-91969500D01*
X163338783Y-91969500D01*
X163331844Y-91969110D01*
X163317426Y-91967486D01*
X163292964Y-91964729D01*
X163234511Y-91975789D01*
X163175711Y-91984652D01*
X163167556Y-91987167D01*
X163159530Y-91989975D01*
X163159529Y-91989976D01*
X163159527Y-91989976D01*
X163159524Y-91989978D01*
X163106926Y-92017777D01*
X163053358Y-92043575D01*
X163046308Y-92048380D01*
X163039461Y-92053435D01*
X163018437Y-92074458D01*
X162997413Y-92095483D01*
X162974636Y-92116617D01*
X162953803Y-92135947D01*
X162948013Y-92143208D01*
X162947362Y-92142688D01*
X162937967Y-92154928D01*
X162755125Y-92337770D01*
X162734491Y-92354400D01*
X162731951Y-92356032D01*
X162701521Y-92391149D01*
X162698511Y-92394383D01*
X162687572Y-92405324D01*
X162687571Y-92405326D01*
X162679433Y-92416352D01*
X162676407Y-92420133D01*
X162647118Y-92453935D01*
X162645046Y-92458473D01*
X162632029Y-92480583D01*
X162627207Y-92487117D01*
X162612557Y-92528986D01*
X162610432Y-92534267D01*
X162593302Y-92571776D01*
X162592031Y-92580617D01*
X162586338Y-92603911D01*
X162582354Y-92615298D01*
X162582353Y-92615303D01*
X162580825Y-92656134D01*
X162580237Y-92662641D01*
X162574867Y-92699996D01*
X162574867Y-92699999D01*
X162576699Y-92712745D01*
X162577873Y-92735020D01*
X162577275Y-92751006D01*
X162577275Y-92751007D01*
X162586947Y-92787103D01*
X162588430Y-92794333D01*
X162593302Y-92828225D01*
X162600281Y-92843505D01*
X162607261Y-92862923D01*
X162612421Y-92882180D01*
X162612423Y-92882186D01*
X162630444Y-92910865D01*
X162634347Y-92918101D01*
X162647116Y-92946059D01*
X162647118Y-92946063D01*
X162660697Y-92961734D01*
X162671975Y-92976961D01*
X162684677Y-92997175D01*
X162696296Y-93007174D01*
X162704251Y-93014019D01*
X162717085Y-93026810D01*
X162731951Y-93043967D01*
X162756341Y-93059641D01*
X162763264Y-93064805D01*
X162787612Y-93085758D01*
X162795825Y-93089341D01*
X162807684Y-93094515D01*
X162825144Y-93103858D01*
X162840927Y-93114002D01*
X162840928Y-93114003D01*
X162840930Y-93114003D01*
X162840931Y-93114004D01*
X162872118Y-93123161D01*
X162879432Y-93125819D01*
X162912084Y-93140065D01*
X162914871Y-93140378D01*
X162929939Y-93142077D01*
X162950992Y-93146320D01*
X162965227Y-93150500D01*
X162965228Y-93150500D01*
X163001217Y-93150500D01*
X163008155Y-93150889D01*
X163040050Y-93154483D01*
X163047034Y-93155270D01*
X163047034Y-93155269D01*
X163047035Y-93155270D01*
X163060820Y-93152661D01*
X163083872Y-93150500D01*
X163094772Y-93150500D01*
X163132661Y-93139374D01*
X163138595Y-93137945D01*
X163180472Y-93130023D01*
X163189388Y-93125310D01*
X163212396Y-93115963D01*
X163219069Y-93114004D01*
X163255225Y-93090766D01*
X163259773Y-93088110D01*
X163300538Y-93066566D01*
X163304870Y-93062233D01*
X163325523Y-93045590D01*
X163328049Y-93043967D01*
X163358492Y-93008831D01*
X163361475Y-93005627D01*
X163460286Y-92906816D01*
X163521608Y-92873334D01*
X163547965Y-92870500D01*
X165285228Y-92870500D01*
X165414772Y-92870500D01*
X170232034Y-92870500D01*
X170299073Y-92890185D01*
X170319715Y-92906819D01*
X178211090Y-100798193D01*
X178215726Y-100803380D01*
X178240121Y-100833970D01*
X178240121Y-100833971D01*
X178289271Y-100867480D01*
X178337118Y-100902793D01*
X178344654Y-100906776D01*
X178352319Y-100910467D01*
X178352327Y-100910472D01*
X178409177Y-100928007D01*
X178465297Y-100947645D01*
X178465299Y-100947645D01*
X178465301Y-100947646D01*
X178465302Y-100947646D01*
X178473698Y-100949234D01*
X178482095Y-100950500D01*
X178482098Y-100950500D01*
X178541559Y-100950500D01*
X178601009Y-100952725D01*
X178601009Y-100952724D01*
X178601010Y-100952725D01*
X178601010Y-100952724D01*
X178610242Y-100951685D01*
X178610335Y-100952513D01*
X178625639Y-100950500D01*
X180183961Y-100950500D01*
X180251000Y-100970185D01*
X180296755Y-101022989D01*
X180305578Y-101050308D01*
X180311132Y-101078229D01*
X180311132Y-101078230D01*
X180355447Y-101144552D01*
X180421769Y-101188867D01*
X180421770Y-101188868D01*
X180499995Y-101204427D01*
X180499999Y-101204428D01*
X180500000Y-101204428D01*
X180876000Y-101204428D01*
X180943039Y-101224113D01*
X180988794Y-101276917D01*
X181000000Y-101328428D01*
X181000000Y-101500000D01*
X184553514Y-101500000D01*
X184620553Y-101519685D01*
X184666308Y-101572489D01*
X184676252Y-101641647D01*
X184670933Y-101663857D01*
X184668403Y-101671311D01*
X184663827Y-101684790D01*
X184660721Y-101692288D01*
X184560212Y-101896101D01*
X184556152Y-101903132D01*
X184429899Y-102092083D01*
X184424957Y-102098524D01*
X184275121Y-102269380D01*
X184269380Y-102275121D01*
X184098524Y-102424957D01*
X184092083Y-102429899D01*
X183903132Y-102556152D01*
X183896101Y-102560212D01*
X183692287Y-102660722D01*
X183684786Y-102663829D01*
X183469595Y-102736876D01*
X183461753Y-102738977D01*
X183238878Y-102783310D01*
X183230829Y-102784370D01*
X183002018Y-102799367D01*
X182997962Y-102799500D01*
X176024000Y-102799500D01*
X175956961Y-102779815D01*
X175911206Y-102727011D01*
X175900000Y-102675500D01*
X175900000Y-100550000D01*
X175899999Y-100549999D01*
X171700001Y-96350000D01*
X171700000Y-96350000D01*
X160150001Y-96399999D01*
X160150000Y-96400000D01*
X157884778Y-98566733D01*
X157822726Y-98598847D01*
X157801883Y-98601093D01*
X157157569Y-98615736D01*
X157090100Y-98597580D01*
X157043157Y-98545829D01*
X157031645Y-98476914D01*
X157059218Y-98412715D01*
X157076084Y-98395917D01*
X157136410Y-98346410D01*
X157267685Y-98186450D01*
X157365232Y-98003954D01*
X157425300Y-97805934D01*
X157445583Y-97600000D01*
X157425300Y-97394066D01*
X157365232Y-97196046D01*
X157267685Y-97013550D01*
X157192897Y-96922420D01*
X157136410Y-96853589D01*
X157018677Y-96756969D01*
X156976450Y-96722315D01*
X156793954Y-96624768D01*
X156595934Y-96564700D01*
X156595932Y-96564699D01*
X156595934Y-96564699D01*
X156390000Y-96544417D01*
X156184067Y-96564699D01*
X155986043Y-96624769D01*
X155875898Y-96683643D01*
X155803550Y-96722315D01*
X155803548Y-96722316D01*
X155803547Y-96722317D01*
X155643589Y-96853589D01*
X155512317Y-97013547D01*
X155414767Y-97196046D01*
X155394593Y-97262552D01*
X155356296Y-97320990D01*
X155292483Y-97349447D01*
X155223416Y-97338886D01*
X155171023Y-97292661D01*
X155156158Y-97258649D01*
X155123433Y-97136516D01*
X155123429Y-97136507D01*
X155023600Y-96922422D01*
X155023599Y-96922420D01*
X154888113Y-96728926D01*
X154888108Y-96728920D01*
X154721082Y-96561894D01*
X154527578Y-96426399D01*
X154313492Y-96326570D01*
X154313486Y-96326567D01*
X154100000Y-96269364D01*
X154100000Y-97164498D01*
X153992315Y-97115320D01*
X153885763Y-97100000D01*
X153814237Y-97100000D01*
X153707685Y-97115320D01*
X153600000Y-97164498D01*
X153600000Y-96269364D01*
X153592594Y-96263681D01*
X153549018Y-96262643D01*
X153491157Y-96223479D01*
X153463655Y-96159250D01*
X153462780Y-96143912D01*
X153463250Y-96050000D01*
X153491880Y-90323877D01*
X153511899Y-90256940D01*
X153564931Y-90211449D01*
X153615878Y-90200500D01*
X182960118Y-90200500D01*
X182997962Y-90200500D01*
X183002018Y-90200633D01*
G37*
%TD.AperFunction*%
%TD*%
M02*
