%TF.GenerationSoftware,KiCad,Pcbnew,7.0.9*%
%TF.CreationDate,2024-06-23T02:13:20+02:00*%
%TF.ProjectId,board,626f6172-642e-46b6-9963-61645f706362,rev?*%
%TF.SameCoordinates,Original*%
%TF.FileFunction,Paste,Top*%
%TF.FilePolarity,Positive*%
%FSLAX46Y46*%
G04 Gerber Fmt 4.6, Leading zero omitted, Abs format (unit mm)*
G04 Created by KiCad (PCBNEW 7.0.9) date 2024-06-23 02:13:20*
%MOMM*%
%LPD*%
G01*
G04 APERTURE LIST*
G04 Aperture macros list*
%AMRoundRect*
0 Rectangle with rounded corners*
0 $1 Rounding radius*
0 $2 $3 $4 $5 $6 $7 $8 $9 X,Y pos of 4 corners*
0 Add a 4 corners polygon primitive as box body*
4,1,4,$2,$3,$4,$5,$6,$7,$8,$9,$2,$3,0*
0 Add four circle primitives for the rounded corners*
1,1,$1+$1,$2,$3*
1,1,$1+$1,$4,$5*
1,1,$1+$1,$6,$7*
1,1,$1+$1,$8,$9*
0 Add four rect primitives between the rounded corners*
20,1,$1+$1,$2,$3,$4,$5,0*
20,1,$1+$1,$4,$5,$6,$7,0*
20,1,$1+$1,$6,$7,$8,$9,0*
20,1,$1+$1,$8,$9,$2,$3,0*%
G04 Aperture macros list end*
%ADD10RoundRect,0.125000X0.125000X-0.825000X0.125000X0.825000X-0.125000X0.825000X-0.125000X-0.825000X0*%
%ADD11RoundRect,0.140000X-0.170000X0.140000X-0.170000X-0.140000X0.170000X-0.140000X0.170000X0.140000X0*%
%ADD12RoundRect,0.140000X0.170000X-0.140000X0.170000X0.140000X-0.170000X0.140000X-0.170000X-0.140000X0*%
%ADD13RoundRect,0.140000X-0.140000X-0.170000X0.140000X-0.170000X0.140000X0.170000X-0.140000X0.170000X0*%
%ADD14R,1.400000X1.200000*%
G04 APERTURE END LIST*
D10*
%TO.C,U1*%
X165900000Y-100150000D03*
X166550000Y-100150000D03*
X167200000Y-100150000D03*
X167850000Y-100150000D03*
X168500000Y-100150000D03*
X169150000Y-100150000D03*
X169800000Y-100150000D03*
X170450000Y-100150000D03*
X171100000Y-100150000D03*
X171750000Y-100150000D03*
X171750000Y-93150000D03*
X171100000Y-93150000D03*
X170450000Y-93150000D03*
X169800000Y-93150000D03*
X169150000Y-93150000D03*
X168500000Y-93150000D03*
X167850000Y-93150000D03*
X167200000Y-93150000D03*
X166550000Y-93150000D03*
X165900000Y-93150000D03*
%TD*%
D11*
%TO.C,C7*%
X177600000Y-100690000D03*
X177600000Y-101650000D03*
%TD*%
D12*
%TO.C,C5*%
X161650000Y-92700000D03*
X161650000Y-91740000D03*
%TD*%
%TO.C,C4*%
X161650000Y-94530000D03*
X161650000Y-93570000D03*
%TD*%
%TO.C,C6*%
X160700000Y-92700000D03*
X160700000Y-91740000D03*
%TD*%
%TO.C,C2*%
X160700000Y-102160000D03*
X160700000Y-101200000D03*
%TD*%
D11*
%TO.C,C3*%
X161650000Y-99340000D03*
X161650000Y-100300000D03*
%TD*%
D13*
%TO.C,C10*%
X148780000Y-95090000D03*
X149740000Y-95090000D03*
%TD*%
D11*
%TO.C,C8*%
X179000000Y-100690000D03*
X179000000Y-101650000D03*
%TD*%
D13*
%TO.C,C9*%
X154790000Y-94870000D03*
X155750000Y-94870000D03*
%TD*%
D14*
%TO.C,Y1*%
X178700000Y-97650000D03*
X176500000Y-97650000D03*
X176500000Y-99350000D03*
X178700000Y-99350000D03*
%TD*%
D12*
%TO.C,C1*%
X161650000Y-102160000D03*
X161650000Y-101200000D03*
%TD*%
M02*
